<?xml version="1.0" encoding="UTF-8"?>
<svg width="55.027pt" height="64.991pt" version="1.2" viewBox="0 0 55.027 64.991" xmlns="http://www.w3.org/2000/svg" xmlns:xlink="http://www.w3.org/1999/xlink">
 <defs>
  <clipPath>
   <path d="m0.76562 0.57812h200.58v81.086h-200.58z"/>
  </clipPath>
  <clipPath>
   <path d="m0.76562 0.57812h200.58v81.086h-200.58z"/>
  </clipPath>
  <clipPath>
   <path d="m99 0.57812h55v23.422h-55z"/>
  </clipPath>
  <clipPath>
   <path d="m0.76562 32h76.234v26h-76.234z"/>
  </clipPath>
  <clipPath>
   <path d="m173 36h28.348v18h-28.348z"/>
  </clipPath>
  <clipPath>
   <path d="m22 66h31v15.664h-31z"/>
  </clipPath>
  <clipPath>
   <path d="m88 66h30v15.664h-30z"/>
  </clipPath>
  <clipPath>
   <path d="m135 66h31v15.664h-31z"/>
  </clipPath>
  <clipPath id="clip3">
   <rect width="202" height="82"/>
  </clipPath>
  <g clip-path="url(#clip3)"></g>
  <clipPath id="clip1">
   <rect width="202" height="82"/>
  </clipPath>
  <g clip-path="url(#clip1)"></g>
  <clipPath>
   <path d="m0.55078 0.83594h121.04v83.828h-121.04z"/>
  </clipPath>
  <clipPath>
   <path d="m0.55078 0.83594h121.04v83.828h-121.04z"/>
  </clipPath>
  <clipPath>
   <path d="m32 0.83594h59v18.164h-59z"/>
  </clipPath>
  <clipPath>
   <path d="m0.55078 28h60.449v30h-60.449z"/>
  </clipPath>
  <clipPath>
   <path d="m63 28h58.59v30h-58.59z"/>
  </clipPath>
  <clipPath>
   <path d="m13 67h33v17.664h-33z"/>
  </clipPath>
  <clipPath>
   <path d="m77 67h33v17.664h-33z"/>
  </clipPath>
  <clipPath id="clip13">
   <rect width="122" height="85"/>
  </clipPath>
  <g clip-path="url(#clip13)"></g>
  <clipPath id="clip11">
   <rect width="122" height="85"/>
  </clipPath>
  <g clip-path="url(#clip11)"></g>
  <clipPath>
   <path d="m0.76562 0.22266h200.58v70.793h-200.58z"/>
  </clipPath>
  <clipPath>
   <path d="m0.76562 0.22266h200.58v70.793h-200.58z"/>
  </clipPath>
  <clipPath>
   <path d="m102 0.22266h48v20.777h-48z"/>
  </clipPath>
  <clipPath>
   <path d="m0.76562 28h66.234v23h-66.234z"/>
  </clipPath>
  <clipPath>
   <path d="m178 31h23.348v16h-23.348z"/>
  </clipPath>
  <clipPath>
   <path d="m39 57h26v14.016h-26z"/>
  </clipPath>
  <clipPath>
   <path d="m81 57h27v14.016h-27z"/>
  </clipPath>
  <clipPath>
   <path d="m129 57h26v14.016h-26z"/>
  </clipPath>
  <clipPath id="clip22">
   <rect width="202" height="72"/>
  </clipPath>
  <g clip-path="url(#clip22)"></g>
  <clipPath id="clip20">
   <rect width="202" height="72"/>
  </clipPath>
  <g clip-path="url(#clip20)"></g>
  <clipPath>
   <path d="m0.26172 0.57422h138.32v73.441h-138.32z"/>
  </clipPath>
  <clipPath>
   <path d="m0.26172 0.57422h138.32v73.441h-138.32z"/>
  </clipPath>
  <clipPath>
   <path d="m18 58h29v16.016h-29z"/>
  </clipPath>
  <clipPath>
   <path d="m80 58h29v16.016h-29z"/>
  </clipPath>
  <clipPath>
   <path d="m111 58h27.586v16.016h-27.586z"/>
  </clipPath>
  <clipPath>
   <path d="m37 0.57422h53v16.426h-53z"/>
  </clipPath>
  <clipPath>
   <path d="m0.26172 10h42.738v56h-42.738z"/>
  </clipPath>
  <clipPath>
   <path d="m86 9h52.586v55h-52.586z"/>
  </clipPath>
  <clipPath>
   <path d="m79 0.57422h17v15.426h-17z"/>
  </clipPath>
  <clipPath>
   <path d="m75 0.57422h9v5.4258h-9z"/>
  </clipPath>
  <clipPath id="clip32">
   <rect width="139" height="75"/>
  </clipPath>
  <g clip-path="url(#clip32)"></g>
  <clipPath id="clip30">
   <rect width="139" height="75"/>
  </clipPath>
  <g clip-path="url(#clip30)"></g>
  <clipPath>
   <path d="m0.76562 0.84766h345.83v9.5938h-345.83z"/>
  </clipPath>
  <clipPath>
   <path d="m0.76562 0.84766h345.83v9.5938h-345.83z"/>
  </clipPath>
  <clipPath id="clip46">
   <path d="m0.76562 0.84766h3.2344v9.5938h-3.2344z"/>
  </clipPath>
  <clipPath>
   <path d="m37 0.84766h30v9.5938h-30z"/>
  </clipPath>
  <clipPath id="clip48">
   <path d="m0.76562 5h37.234v5.4414h-37.234z"/>
  </clipPath>
  <clipPath id="clip49">
   <path d="m32 4h11v6.4414h-11z"/>
  </clipPath>
  <clipPath id="clip50">
   <path d="m15 0.84766h22v6.1523h-22z"/>
  </clipPath>
  <clipPath>
   <path d="m115 0.84766h29v9.5938h-29z"/>
  </clipPath>
  <clipPath id="clip52">
   <path d="m128 10h3v0.44141h-3z"/>
  </clipPath>
  <clipPath id="clip53">
   <path d="m61 5h55v5.4414h-55z"/>
  </clipPath>
  <clipPath id="clip54">
   <path d="m110 4h10v6.4414h-10z"/>
  </clipPath>
  <clipPath id="clip55">
   <path d="m68 0.84766h7v5.1523h-7z"/>
  </clipPath>
  <clipPath id="clip56">
   <path d="m80 0.84766h4v5.1523h-4z"/>
  </clipPath>
  <clipPath id="clip57">
   <path d="m83 0.84766h11v6.1523h-11z"/>
  </clipPath>
  <clipPath id="clip58">
   <path d="m93 0.84766h4v5.1523h-4z"/>
  </clipPath>
  <clipPath id="clip59">
   <path d="m97 0.84766h14v5.1523h-14z"/>
  </clipPath>
  <clipPath>
   <path d="m193 0.84766h29v9.5938h-29z"/>
  </clipPath>
  <clipPath id="clip61">
   <path d="m205 10h1v0.44141h-1z"/>
  </clipPath>
  <clipPath id="clip62">
   <path d="m209 10h1v0.44141h-1z"/>
  </clipPath>
  <clipPath id="clip63">
   <path d="m138 5h56v5.4414h-56z"/>
  </clipPath>
  <clipPath id="clip64">
   <path d="m188 4h11v6.4414h-11z"/>
  </clipPath>
  <clipPath id="clip65">
   <path d="m145 0.84766h8v5.1523h-8z"/>
  </clipPath>
  <clipPath id="clip66">
   <path d="m158 0.84766h14v5.1523h-14z"/>
  </clipPath>
  <clipPath id="clip67">
   <path d="m172 0.84766h4v5.1523h-4z"/>
  </clipPath>
  <clipPath id="clip68">
   <path d="m175 0.84766h14v5.1523h-14z"/>
  </clipPath>
  <clipPath>
   <path d="m256 0.84766h29v9.5938h-29z"/>
  </clipPath>
  <clipPath id="clip70">
   <path d="m268 10h5v0.44141h-5z"/>
  </clipPath>
  <clipPath id="clip71">
   <path d="m216 5h41v5.4414h-41z"/>
  </clipPath>
  <clipPath id="clip72">
   <path d="m252 4h10v6.4414h-10z"/>
  </clipPath>
  <clipPath id="clip73">
   <path d="m229 0.84766h5v5.1523h-5z"/>
  </clipPath>
  <clipPath id="clip74">
   <path d="m239 0.84766h13v5.1523h-13z"/>
  </clipPath>
  <clipPath>
   <path d="m330 0.84766h16.594v9.5938h-16.594z"/>
  </clipPath>
  <clipPath id="clip76">
   <path d="m343 10h1v0.44141h-1z"/>
  </clipPath>
  <clipPath id="clip77">
   <path d="m346 10h0.59375v0.44141h-0.59375z"/>
  </clipPath>
  <clipPath id="clip78">
   <path d="m280 5h51v5.4414h-51z"/>
  </clipPath>
  <clipPath id="clip79">
   <path d="m326 4h10v6.4414h-10z"/>
  </clipPath>
  <clipPath id="clip80">
   <path d="m291 0.84766h15v5.1523h-15z"/>
  </clipPath>
  <clipPath id="clip81">
   <path d="m305 0.84766h2v5.1523h-2z"/>
  </clipPath>
  <clipPath id="clip82">
   <path d="m309 0.84766h13v5.1523h-13z"/>
  </clipPath>
  <clipPath id="clip44">
   <rect width="347" height="11"/>
  </clipPath>
  <g clip-path="url(#clip44)">
   <g clip-path="url(#clip50)"></g>
   <g clip-path="url(#clip52)"></g>
   <g clip-path="url(#clip55)"></g>
   <g clip-path="url(#clip56)"></g>
   <g clip-path="url(#clip57)"></g>
   <g clip-path="url(#clip58)"></g>
   <g clip-path="url(#clip59)"></g>
   <g clip-path="url(#clip61)"></g>
   <g clip-path="url(#clip62)"></g>
   <g clip-path="url(#clip65)"></g>
   <g clip-path="url(#clip66)"></g>
   <g clip-path="url(#clip67)"></g>
   <g clip-path="url(#clip68)"></g>
   <g clip-path="url(#clip70)"></g>
   <g clip-path="url(#clip73)"></g>
   <g clip-path="url(#clip74)"></g>
   <g clip-path="url(#clip76)"></g>
   <g clip-path="url(#clip77)"></g>
   <g clip-path="url(#clip80)"></g>
   <g clip-path="url(#clip81)"></g>
   <g clip-path="url(#clip82)"></g>
  </g>
  <clipPath id="clip42">
   <rect width="347" height="11"/>
  </clipPath>
  <g clip-path="url(#clip42)"></g>
 </defs>
 <g transform="translate(-282.62 54.895)">
  <g transform="matrix(1.0812 0 0 1 -22.961 0)" clip-path="url(#clip78)">
   <path transform="matrix(.4361 0 0 .4361 -24.529 -1.3317)" d="m704.31 21.998h105.2" fill="none" stroke="#bfbfbf"/>
  </g>
  <path d="m332.45 6.7344 4.3594 1.5273-4.3594 1.5273z" fill="#bfbfbf"/>
  <g transform="translate(3.84)" clip-path="url(#clip79)">
   <path transform="matrix(.4361 0 0 .4361 -24.529 -1.3317)" d="m809.76 18.496 9.9963 3.5023-9.9963 3.5023z" fill="none" stroke="#bfbfbf"/>
  </g>
  <g transform="translate(-.79683)">
   <g>
    <g transform="translate(286.69 5.1226)">
     <path d="m3.4844-2.75v0.09375c0.21875 0.046875 0.26562 0.078125 0.26562 0.1875 0 0.09375-0.03125 0.23438-0.09375 0.40625l-0.54688 1.3594-0.51562-1.375c-0.10938-0.28125-0.10938-0.28125-0.10938-0.35938 0-0.14062 0.0625-0.17188 0.35938-0.21875v-0.09375h-1.25v0.09375c0.23438 0.015625 0.3125 0.09375 0.42188 0.42188 0.03125 0.078125 0.09375 0.23438 0.125 0.34375l-0.54688 1.2188-0.60938-1.5938c-0.03125-0.0625-0.03125-0.125-0.03125-0.1875 0-0.125 0.0625-0.1875 0.28125-0.20312v-0.09375h-1.1094v0.09375c0.14062 0.015625 0.1875 0.078125 0.32812 0.39062l0.82812 2.0781c0.0625 0.1875 0.125 0.26562 0.15625 0.26562s0.078125-0.0625 0.15625-0.23438l0.67188-1.4688 0.5625 1.4531c0.09375 0.23438 0.10938 0.25 0.14062 0.25 0.046875 0 0.078125-0.046875 0.17188-0.29688l0.84375-2.1094c0.10938-0.25 0.14062-0.28125 0.25-0.32812v-0.09375z"/>
    </g>
   </g>
   <g clip-path="url(#clip80)">
    <g>
     <g transform="translate(290.89 5.1226)">
      <path d="m2.7031-0.40625c-0.10938 0.09375-0.1875 0.125-0.26562 0.125-0.14062 0-0.1875-0.09375-0.1875-0.35938v-1.1875c0-0.32812-0.03125-0.5-0.125-0.64062-0.14062-0.21875-0.39062-0.34375-0.75-0.34375-0.57812 0-1.0312 0.29688-1.0312 0.6875 0 0.14062 0.10938 0.26562 0.26562 0.26562 0.14062 0 0.26562-0.125 0.26562-0.26562v-0.09375c-0.015625-0.046875-0.03125-0.10938-0.03125-0.14062 0-0.17188 0.20312-0.29688 0.45312-0.29688 0.29688 0 0.45312 0.17188 0.45312 0.5v0.375c-0.9375 0.375-1.0469 0.42188-1.2969 0.65625-0.14062 0.125-0.23438 0.32812-0.23438 0.53125 0 0.39062 0.28125 0.65625 0.65625 0.65625 0.26562 0 0.51562-0.125 0.89062-0.45312 0.03125 0.32812 0.14062 0.45312 0.39062 0.45312 0.20312 0 0.32812-0.078125 0.54688-0.3125zm-0.95312-0.34375c0 0.1875-0.03125 0.25-0.15625 0.32812-0.15625 0.078125-0.3125 0.125-0.4375 0.125-0.21875 0-0.39062-0.20312-0.39062-0.46875v-0.015625c0-0.375 0.26562-0.60938 0.98438-0.85938z"/>
     </g>
     <g transform="translate(293.6 5.1226)">
      <path d="m1.9219-1.9219-0.015625-0.82812h-0.078125c-0.03125 0.046875-0.0625 0.0625-0.09375 0.0625s-0.09375-0.015625-0.17188-0.046875c-0.14062-0.046875-0.26562-0.078125-0.42188-0.078125-0.48438 0-0.82812 0.3125-0.82812 0.76562 0 0.34375 0.1875 0.57812 0.71875 0.875l0.34375 0.20312c0.21875 0.125 0.32812 0.26562 0.32812 0.45312 0 0.26562-0.20312 0.4375-0.51562 0.4375-0.42188 0-0.625-0.23438-0.76562-0.84375h-0.10938v0.95312h0.078125c0.046875-0.0625 0.078125-0.078125 0.14062-0.078125 0.078125 0 0.14062 0.015625 0.28125 0.046875 0.17188 0.03125 0.32812 0.0625 0.45312 0.0625 0.46875 0 0.85938-0.35938 0.85938-0.78125 0-0.3125-0.14062-0.51562-0.51562-0.73438l-0.65625-0.39062c-0.17188-0.09375-0.26562-0.25-0.26562-0.40625 0-0.25 0.1875-0.42188 0.46875-0.42188 0.35938 0 0.53125 0.20312 0.67188 0.75z"/>
     </g>
     <g transform="translate(295.97 5.1226)"></g>
     <g transform="translate(297.5 5.1226)">
      <path d="m3-0.35938c-0.078125 0.015625-0.10938 0.015625-0.14062 0.015625-0.21875 0-0.26562-0.078125-0.26562-0.35938v-3.4531l-0.03125-0.015625c-0.29688 0.09375-0.5 0.15625-0.90625 0.26562v0.09375h0.14062c0.21875 0 0.28125 0.0625 0.28125 0.3125v0.95312c-0.23438-0.20312-0.39062-0.26562-0.64062-0.26562-0.70312 0-1.2656 0.6875-1.2656 1.5625 0 0.78125 0.4375 1.3125 1.125 1.3125 0.34375 0 0.57812-0.125 0.78125-0.40625v0.39062l0.03125 0.015625 0.89062-0.3125zm-0.92188-0.26562c0 0.046875-0.046875 0.125-0.10938 0.1875-0.09375 0.125-0.26562 0.1875-0.4375 0.1875-0.51562 0-0.84375-0.5-0.84375-1.25 0-0.6875 0.29688-1.1406 0.76562-1.1406 0.32812 0 0.625 0.28125 0.625 0.60938z"/>
     </g>
     <g transform="translate(300.55 5.1226)">
      <path d="m2.5-1c-0.29688 0.46875-0.5625 0.64062-0.95312 0.64062-0.34375 0-0.60938-0.17188-0.79688-0.53125-0.10938-0.23438-0.14062-0.42188-0.15625-0.79688h1.875c-0.046875-0.40625-0.10938-0.57812-0.25-0.78125-0.1875-0.21875-0.46875-0.34375-0.79688-0.34375-0.29688 0-0.57812 0.10938-0.8125 0.3125-0.29688 0.26562-0.45312 0.6875-0.45312 1.1875 0 0.84375 0.4375 1.375 1.1406 1.375 0.57812 0 1.0312-0.35938 1.2969-1.0156zm-1.8906-0.89062c0.0625-0.46875 0.26562-0.70312 0.64062-0.70312s0.51562 0.17188 0.59375 0.70312z"/>
     </g>
     <g transform="translate(303.26 5.1226)">
      <path d="m0.03125 0h1.4688v-0.09375c-0.40625-0.015625-0.51562-0.09375-0.51562-0.45312v-1.375c0-0.20312 0.25-0.5 0.42188-0.5 0.03125 0 0.09375 0.03125 0.15625 0.09375 0.09375 0.09375 0.17188 0.10938 0.25 0.10938 0.14062 0 0.23438-0.09375 0.23438-0.26562 0-0.20312-0.125-0.32812-0.34375-0.32812-0.25 0-0.42188 0.14062-0.71875 0.57812v-0.5625l-0.03125-0.015625c-0.34375 0.14062-0.5625 0.21875-0.90625 0.32812v0.10938c0.078125-0.03125 0.14062-0.03125 0.20312-0.03125 0.15625 0 0.21875 0.09375 0.21875 0.35938v1.5312c-0.015625 0.3125-0.046875 0.35938-0.4375 0.42188z"/>
     </g>
    </g>
   </g>
   <g clip-path="url(#clip81)">
    <g>
     <g transform="translate(305.42 5.1226)">
      <path d="m0.09375 0h1.4531v-0.09375c-0.40625-0.03125-0.45312-0.078125-0.45312-0.53125v-2.1719l-0.03125-0.015625-0.9375 0.34375v0.09375l0.046875-0.015625c0.078125-0.015625 0.14062-0.015625 0.20312-0.015625 0.15625 0 0.20312 0.09375 0.20312 0.35938v1.4219c-0.015625 0.45312-0.0625 0.51562-0.48438 0.53125zm0.6875-4.1719c-0.17188 0-0.3125 0.14062-0.3125 0.3125s0.14062 0.3125 0.3125 0.3125c0.1875 0 0.3125-0.14062 0.3125-0.3125s-0.14062-0.3125-0.3125-0.3125z"/>
     </g>
    </g>
   </g>
   <g>
    <g transform="translate(306.93 5.1226)">
     <path d="m2.9219-2.75h-0.85938v0.09375c0.20312 0.015625 0.29688 0.078125 0.29688 0.1875 0 0.0625-0.015625 0.125-0.046875 0.1875l-0.60938 1.5781-0.60938-1.5625c-0.046875-0.078125-0.0625-0.17188-0.0625-0.21875 0-0.10938 0.0625-0.15625 0.28125-0.17188v-0.09375h-1.2031v0.09375c0.23438 0.015625 0.28125 0.078125 0.5625 0.70312l0.73438 1.75c0.015625 0.03125 0.03125 0.078125 0.046875 0.125s0.03125 0.09375 0.0625 0.125c0 0.03125 0.03125 0.03125 0.046875 0.03125 0.03125 0 0.078125-0.078125 0.17188-0.29688l0.78125-1.9688c0.17188-0.40625 0.21875-0.45312 0.40625-0.46875z"/>
    </g>
   </g>
   <g clip-path="url(#clip82)">
    <g>
     <g transform="translate(309.75 5.1226)">
      <path d="m2.5-1c-0.29688 0.46875-0.5625 0.64062-0.95312 0.64062-0.34375 0-0.60938-0.17188-0.79688-0.53125-0.10938-0.23438-0.14062-0.42188-0.15625-0.79688h1.875c-0.046875-0.40625-0.10938-0.57812-0.25-0.78125-0.1875-0.21875-0.46875-0.34375-0.79688-0.34375-0.29688 0-0.57812 0.10938-0.8125 0.3125-0.29688 0.26562-0.45312 0.6875-0.45312 1.1875 0 0.84375 0.4375 1.375 1.1406 1.375 0.57812 0 1.0312-0.35938 1.2969-1.0156zm-1.8906-0.89062c0.0625-0.46875 0.26562-0.70312 0.64062-0.70312s0.51562 0.17188 0.59375 0.70312z"/>
     </g>
     <g transform="translate(312.47 5.1226)">
      <path d="m3-0.35938c-0.078125 0.015625-0.10938 0.015625-0.14062 0.015625-0.21875 0-0.26562-0.078125-0.26562-0.35938v-3.4531l-0.03125-0.015625c-0.29688 0.09375-0.5 0.15625-0.90625 0.26562v0.09375h0.14062c0.21875 0 0.28125 0.0625 0.28125 0.3125v0.95312c-0.23438-0.20312-0.39062-0.26562-0.64062-0.26562-0.70312 0-1.2656 0.6875-1.2656 1.5625 0 0.78125 0.4375 1.3125 1.125 1.3125 0.34375 0 0.57812-0.125 0.78125-0.40625v0.39062l0.03125 0.015625 0.89062-0.3125zm-0.92188-0.26562c0 0.046875-0.046875 0.125-0.10938 0.1875-0.09375 0.125-0.26562 0.1875-0.4375 0.1875-0.51562 0-0.84375-0.5-0.84375-1.25 0-0.6875 0.29688-1.1406 0.76562-1.1406 0.32812 0 0.625 0.28125 0.625 0.60938z"/>
     </g>
     <g transform="translate(315.52 5.1226)"></g>
     <g transform="translate(317.04 5.1226)">
      <path d="m1.8906-2.75h-0.75v-0.70312c0-0.35938 0.10938-0.54688 0.34375-0.54688 0.14062 0 0.21875 0.0625 0.32812 0.23438 0.09375 0.15625 0.17188 0.21875 0.26562 0.21875 0.15625 0 0.26562-0.10938 0.26562-0.25 0-0.21875-0.26562-0.375-0.64062-0.375-0.39062 0-0.70312 0.15625-0.85938 0.4375s-0.20312 0.5-0.21875 0.98438h-0.5v0.20312h0.5v1.9062c-0.015625 0.46875-0.0625 0.53125-0.5 0.54688v0.09375h1.5781v-0.09375c-0.5-0.015625-0.5625-0.078125-0.5625-0.54688v-1.9062h0.75z"/>
     </g>
     <g transform="translate(319.08 5.1226)">
      <path d="m0.03125 0h1.4688v-0.09375c-0.40625-0.015625-0.51562-0.09375-0.51562-0.45312v-1.375c0-0.20312 0.25-0.5 0.42188-0.5 0.03125 0 0.09375 0.03125 0.15625 0.09375 0.09375 0.09375 0.17188 0.10938 0.25 0.10938 0.14062 0 0.23438-0.09375 0.23438-0.26562 0-0.20312-0.125-0.32812-0.34375-0.32812-0.25 0-0.42188 0.14062-0.71875 0.57812v-0.5625l-0.03125-0.015625c-0.34375 0.14062-0.5625 0.21875-0.90625 0.32812v0.10938c0.078125-0.03125 0.14062-0.03125 0.20312-0.03125 0.15625 0 0.21875 0.09375 0.21875 0.35938v1.5312c-0.015625 0.3125-0.046875 0.35938-0.4375 0.42188z"/>
     </g>
    </g>
   </g>
   <g>
    <g transform="translate(321.06 5.1226)">
     <path d="m1.5312-2.8125c-0.79688 0-1.3594 0.59375-1.3594 1.4375 0 0.82812 0.57812 1.4375 1.3438 1.4375s1.3594-0.64062 1.3594-1.4844c0-0.8125-0.5625-1.3906-1.3438-1.3906zm-0.078125 0.17188c0.51562 0 0.875 0.59375 0.875 1.4219 0 0.70312-0.28125 1.1094-0.73438 1.1094-0.25 0-0.46875-0.14062-0.59375-0.39062-0.17188-0.3125-0.26562-0.75-0.26562-1.1875 0-0.57812 0.28125-0.95312 0.71875-0.95312z"/>
    </g>
    <g transform="translate(324.11 5.1226)">
     <path d="m0.09375 0h1.3594v-0.09375c-0.3125 0-0.40625-0.078125-0.42188-0.3125v-1.7188c0-0.015625 0.0625-0.078125 0.09375-0.125 0.15625-0.14062 0.42188-0.25 0.64062-0.25 0.26562 0 0.39062 0.21875 0.39062 0.65625v1.3125c0 0.35938-0.0625 0.42188-0.40625 0.4375v0.09375h1.3594v-0.09375c-0.32812 0-0.42188-0.09375-0.4375-0.48438v-1.5469c0.1875-0.25 0.39062-0.375 0.67188-0.375 0.34375 0 0.45312 0.17188 0.45312 0.67188v1.2969c-0.015625 0.35938-0.046875 0.40625-0.40625 0.4375v0.09375h1.3438v-0.09375l-0.15625-0.015625c-0.20312-0.03125-0.26562-0.10938-0.26562-0.35938v-1.25c0-0.71875-0.23438-1.0938-0.70312-1.0938-0.35938 0-0.67188 0.15625-1 0.51562-0.10938-0.34375-0.3125-0.51562-0.64062-0.51562-0.28125 0-0.45312 0.078125-0.95312 0.46875v-0.45312l-0.046875-0.015625c-0.32812 0.125-0.53125 0.1875-0.85938 0.28125v0.09375c0.078125-0.015625 0.14062-0.015625 0.20312-0.015625 0.15625 0 0.21875 0.09375 0.21875 0.39062v1.5469c-0.015625 0.34375-0.09375 0.42188-0.4375 0.42188z"/>
    </g>
   </g>
  </g>
 </g>
 <g transform="translate(-219.37 40.989)">
  <g transform="matrix(1.4164 0 0 1 -91.34 0)" clip-path="url(#clip71)">
   <path transform="matrix(.4361 0 0 .4361 -24.529 -1.3317)" d="m559.28 21.998h80.311" fill="none" stroke="#f00"/>
  </g>
  <path d="m269.2 6.7344 4.3633 1.5273-4.3633 1.5273z" fill="#f00"/>
  <g transform="translate(14.688)" clip-path="url(#clip72)">
   <path transform="matrix(.4361 0 0 .4361 -24.529 -1.3317)" d="m639.85 18.496 10.005 3.5023-10.005 3.5023z" fill="none" stroke="#f00"/>
  </g>
  <g transform="translate(-.96043)">
   <g>
    <g transform="translate(223.58 5.1226)">
     <path d="m2.5-1c-0.29688 0.46875-0.5625 0.64062-0.95312 0.64062-0.34375 0-0.60938-0.17188-0.79688-0.53125-0.10938-0.23438-0.14062-0.42188-0.15625-0.79688h1.875c-0.046875-0.40625-0.10938-0.57812-0.25-0.78125-0.1875-0.21875-0.46875-0.34375-0.79688-0.34375-0.29688 0-0.57812 0.10938-0.8125 0.3125-0.29688 0.26562-0.45312 0.6875-0.45312 1.1875 0 0.84375 0.4375 1.375 1.1406 1.375 0.57812 0 1.0312-0.35938 1.2969-1.0156zm-1.8906-0.89062c0.0625-0.46875 0.26562-0.70312 0.64062-0.70312s0.51562 0.17188 0.59375 0.70312z"/>
    </g>
    <g transform="translate(226.29 5.1226)">
     <path d="m2.2031-2.5938c-0.28125-0.15625-0.46875-0.21875-0.70312-0.21875-0.76562 0-1.3594 0.6875-1.3594 1.5625 0 0.76562 0.40625 1.3125 0.98438 1.3125 0.35938 0 0.6875-0.15625 0.95312-0.45312v1.1406c0 0.34375-0.10938 0.45312-0.53125 0.46875v0.10938h1.4375v-0.09375c-0.32812-0.0625-0.375-0.10938-0.39062-0.375v-3.6406l-0.0625-0.015625zm-0.125 1.8125c0 0.15625-0.015625 0.23438-0.078125 0.28125-0.14062 0.10938-0.34375 0.1875-0.53125 0.1875s-0.34375-0.0625-0.46875-0.17188c-0.20312-0.1875-0.32812-0.57812-0.32812-0.98438 0-0.71875 0.32812-1.1719 0.84375-1.1719 0.375 0 0.5625 0.20312 0.5625 0.60938z"/>
    </g>
   </g>
   <g clip-path="url(#clip73)">
    <g>
     <g transform="translate(229.26 5.1226)">
      <path d="m2.9219-0.3125h-0.03125c-0.29688 0-0.34375-0.046875-0.34375-0.34375v-2.0938h-0.96875v0.10938c0.39062 0.015625 0.45312 0.078125 0.45312 0.375v1.4375c0 0.17188-0.03125 0.26562-0.10938 0.32812-0.17188 0.14062-0.35938 0.20312-0.54688 0.20312-0.23438 0-0.42188-0.20312-0.42188-0.45312v-2h-0.89062v0.09375c0.28125 0 0.35938 0.09375 0.375 0.39062v1.5312c0 0.48438 0.29688 0.79688 0.73438 0.79688 0.23438 0 0.46875-0.09375 0.625-0.26562l0.26562-0.26562v0.51562l0.03125 0.015625c0.29688-0.125 0.51562-0.20312 0.82812-0.28125z"/>
     </g>
     <g transform="translate(232.31 5.1226)">
      <path d="m0.09375 0h1.4531v-0.09375c-0.40625-0.03125-0.45312-0.078125-0.45312-0.53125v-2.1719l-0.03125-0.015625-0.9375 0.34375v0.09375l0.046875-0.015625c0.078125-0.015625 0.14062-0.015625 0.20312-0.015625 0.15625 0 0.20312 0.09375 0.20312 0.35938v1.4219c-0.015625 0.45312-0.0625 0.51562-0.48438 0.53125zm0.6875-4.1719c-0.17188 0-0.3125 0.14062-0.3125 0.3125s0.14062 0.3125 0.3125 0.3125c0.1875 0 0.3125-0.14062 0.3125-0.3125s-0.14062-0.3125-0.3125-0.3125z"/>
     </g>
    </g>
   </g>
   <g>
    <g transform="translate(233.83 5.1226)">
     <path d="m2.9219-2.75h-0.85938v0.09375c0.20312 0.015625 0.29688 0.078125 0.29688 0.1875 0 0.0625-0.015625 0.125-0.046875 0.1875l-0.60938 1.5781-0.60938-1.5625c-0.046875-0.078125-0.0625-0.17188-0.0625-0.21875 0-0.10938 0.0625-0.15625 0.28125-0.17188v-0.09375h-1.2031v0.09375c0.23438 0.015625 0.28125 0.078125 0.5625 0.70312l0.73438 1.75c0.015625 0.03125 0.03125 0.078125 0.046875 0.125s0.03125 0.09375 0.0625 0.125c0 0.03125 0.03125 0.03125 0.046875 0.03125 0.03125 0 0.078125-0.078125 0.17188-0.29688l0.78125-1.9688c0.17188-0.40625 0.21875-0.45312 0.40625-0.46875z"/>
    </g>
    <g transform="translate(236.65 5.1226)">
     <path d="m2.5-1c-0.29688 0.46875-0.5625 0.64062-0.95312 0.64062-0.34375 0-0.60938-0.17188-0.79688-0.53125-0.10938-0.23438-0.14062-0.42188-0.15625-0.79688h1.875c-0.046875-0.40625-0.10938-0.57812-0.25-0.78125-0.1875-0.21875-0.46875-0.34375-0.79688-0.34375-0.29688 0-0.57812 0.10938-0.8125 0.3125-0.29688 0.26562-0.45312 0.6875-0.45312 1.1875 0 0.84375 0.4375 1.375 1.1406 1.375 0.57812 0 1.0312-0.35938 1.2969-1.0156zm-1.8906-0.89062c0.0625-0.46875 0.26562-0.70312 0.64062-0.70312s0.51562 0.17188 0.59375 0.70312z"/>
    </g>
   </g>
   <g clip-path="url(#clip74)">
    <g>
     <g transform="translate(239.22 5.1226)">
      <path d="m0.125 0h1.4375v-0.09375c-0.375-0.015625-0.4375-0.078125-0.45312-0.42188v-3.6406l-0.015625-0.015625c-0.3125 0.09375-0.54688 0.15625-0.98438 0.26562v0.09375h0.046875 0.1875c0.1875 0 0.25 0.078125 0.25 0.35938v2.9219c0 0.32812-0.09375 0.42188-0.46875 0.4375z"/>
     </g>
     <g transform="translate(240.92 5.1226)">
      <path d="m2.5-1c-0.29688 0.46875-0.5625 0.64062-0.95312 0.64062-0.34375 0-0.60938-0.17188-0.79688-0.53125-0.10938-0.23438-0.14062-0.42188-0.15625-0.79688h1.875c-0.046875-0.40625-0.10938-0.57812-0.25-0.78125-0.1875-0.21875-0.46875-0.34375-0.79688-0.34375-0.29688 0-0.57812 0.10938-0.8125 0.3125-0.29688 0.26562-0.45312 0.6875-0.45312 1.1875 0 0.84375 0.4375 1.375 1.1406 1.375 0.57812 0 1.0312-0.35938 1.2969-1.0156zm-1.8906-0.89062c0.0625-0.46875 0.26562-0.70312 0.64062-0.70312s0.51562 0.17188 0.59375 0.70312z"/>
     </g>
     <g transform="translate(243.63 5.1226)">
      <path d="m0.10938 0h1.2969v-0.09375c-0.3125-0.015625-0.40625-0.09375-0.40625-0.3125v-1.7188c0.29688-0.28125 0.42188-0.34375 0.625-0.34375 0.3125 0 0.45312 0.1875 0.45312 0.59375v1.2656c-0.015625 0.40625-0.09375 0.5-0.39062 0.51562v0.09375h1.2812v-0.09375c-0.3125-0.03125-0.375-0.10938-0.375-0.40625v-1.3906c0-0.57812-0.26562-0.92188-0.71875-0.92188-0.28125 0-0.46875 0.10938-0.89062 0.5v-0.48438l-0.046875-0.015625c-0.3125 0.125-0.51562 0.1875-0.84375 0.28125v0.09375c0.046875-0.015625 0.10938-0.015625 0.17188-0.015625 0.17188 0 0.21875 0.09375 0.21875 0.39062v1.5156c0 0.35938-0.0625 0.4375-0.375 0.45312z"/>
     </g>
     <g transform="translate(246.69 5.1226)">
      <path d="m1.5625-2.75h-0.625v-0.70312c0-0.0625-0.015625-0.078125-0.046875-0.078125-0.34375 0.5-0.53125 0.71875-0.70312 0.8125-0.078125 0.046875-0.10938 0.078125-0.10938 0.125 0 0.015625 0 0.03125 0.03125 0.046875h0.3125v1.8281c0 0.51562 0.1875 0.78125 0.54688 0.78125 0.29688 0 0.53125-0.14062 0.73438-0.46875l-0.078125-0.0625c-0.14062 0.15625-0.23438 0.21875-0.35938 0.21875-0.23438 0-0.32812-0.17188-0.32812-0.5625v-1.7344h0.625z"/>
     </g>
     <g transform="translate(248.38 5.1226)"></g>
     <g transform="translate(249.91 5.1226)">
      <path d="m1.5625-2.75h-0.625v-0.70312c0-0.0625-0.015625-0.078125-0.046875-0.078125-0.34375 0.5-0.53125 0.71875-0.70312 0.8125-0.078125 0.046875-0.10938 0.078125-0.10938 0.125 0 0.015625 0 0.03125 0.03125 0.046875h0.3125v1.8281c0 0.51562 0.1875 0.78125 0.54688 0.78125 0.29688 0 0.53125-0.14062 0.73438-0.46875l-0.078125-0.0625c-0.14062 0.15625-0.23438 0.21875-0.35938 0.21875-0.23438 0-0.32812-0.17188-0.32812-0.5625v-1.7344h0.625z"/>
     </g>
    </g>
   </g>
   <g>
    <g transform="translate(251.56 5.1226)">
     <path d="m1.5312-2.8125c-0.79688 0-1.3594 0.59375-1.3594 1.4375 0 0.82812 0.57812 1.4375 1.3438 1.4375s1.3594-0.64062 1.3594-1.4844c0-0.8125-0.5625-1.3906-1.3438-1.3906zm-0.078125 0.17188c0.51562 0 0.875 0.59375 0.875 1.4219 0 0.70312-0.28125 1.1094-0.73438 1.1094-0.25 0-0.46875-0.14062-0.59375-0.39062-0.17188-0.3125-0.26562-0.75-0.26562-1.1875 0-0.57812 0.28125-0.95312 0.71875-0.95312z"/>
    </g>
   </g>
  </g>
 </g>
 <g transform="translate(-141.27 27.084)">
  <g transform="matrix(.99259 0 0 1 1.0466 0)" clip-path="url(#clip63)">
   <path transform="matrix(.4361 0 0 .4361 -24.529 -1.3317)" d="m380.18 21.998h114.6" fill="none" stroke="#00f" stroke-dasharray="5, 2"/>
  </g>
  <path d="m191.09 6.7344 4.3594 1.5273-4.3594 1.5273z" fill="#00f"/>
  <g transform="translate(-.18346)" clip-path="url(#clip64)">
   <path transform="matrix(.4361 0 0 .4361 -24.529 -1.3317)" d="m494.85 18.496 9.9963 3.5023-9.9963 3.5023z" fill="none" stroke="#00f"/>
  </g>
  <g transform="translate(-.78979)">
   <g clip-path="url(#clip65)">
    <g>
     <g transform="translate(145.37 5.1226)">
      <path d="m0.09375 0h1.4531v-0.09375c-0.40625-0.03125-0.45312-0.078125-0.45312-0.53125v-2.1719l-0.03125-0.015625-0.9375 0.34375v0.09375l0.046875-0.015625c0.078125-0.015625 0.14062-0.015625 0.20312-0.015625 0.15625 0 0.20312 0.09375 0.20312 0.35938v1.4219c-0.015625 0.45312-0.0625 0.51562-0.48438 0.53125zm0.6875-4.1719c-0.17188 0-0.3125 0.14062-0.3125 0.3125s0.14062 0.3125 0.3125 0.3125c0.1875 0 0.3125-0.14062 0.3125-0.3125s-0.14062-0.3125-0.3125-0.3125z"/>
     </g>
     <g transform="translate(147.06 5.1226)">
      <path d="m0.10938 0h1.2969v-0.09375c-0.3125-0.015625-0.40625-0.09375-0.40625-0.3125v-1.7188c0.29688-0.28125 0.42188-0.34375 0.625-0.34375 0.3125 0 0.45312 0.1875 0.45312 0.59375v1.2656c-0.015625 0.40625-0.09375 0.5-0.39062 0.51562v0.09375h1.2812v-0.09375c-0.3125-0.03125-0.375-0.10938-0.375-0.40625v-1.3906c0-0.57812-0.26562-0.92188-0.71875-0.92188-0.28125 0-0.46875 0.10938-0.89062 0.5v-0.48438l-0.046875-0.015625c-0.3125 0.125-0.51562 0.1875-0.84375 0.28125v0.09375c0.046875-0.015625 0.10938-0.015625 0.17188-0.015625 0.17188 0 0.21875 0.09375 0.21875 0.39062v1.5156c0 0.35938-0.0625 0.4375-0.375 0.45312z"/>
     </g>
     <g transform="translate(150.12 5.1226)">
      <path d="m1.8906-2.75h-0.75v-0.70312c0-0.35938 0.10938-0.54688 0.34375-0.54688 0.14062 0 0.21875 0.0625 0.32812 0.23438 0.09375 0.15625 0.17188 0.21875 0.26562 0.21875 0.15625 0 0.26562-0.10938 0.26562-0.25 0-0.21875-0.26562-0.375-0.64062-0.375-0.39062 0-0.70312 0.15625-0.85938 0.4375s-0.20312 0.5-0.21875 0.98438h-0.5v0.20312h0.5v1.9062c-0.015625 0.46875-0.0625 0.53125-0.5 0.54688v0.09375h1.5781v-0.09375c-0.5-0.015625-0.5625-0.078125-0.5625-0.54688v-1.9062h0.75z"/>
     </g>
    </g>
   </g>
   <g>
    <g transform="translate(151.94 5.1226)">
     <path d="m2.5-1c-0.29688 0.46875-0.5625 0.64062-0.95312 0.64062-0.34375 0-0.60938-0.17188-0.79688-0.53125-0.10938-0.23438-0.14062-0.42188-0.15625-0.79688h1.875c-0.046875-0.40625-0.10938-0.57812-0.25-0.78125-0.1875-0.21875-0.46875-0.34375-0.79688-0.34375-0.29688 0-0.57812 0.10938-0.8125 0.3125-0.29688 0.26562-0.45312 0.6875-0.45312 1.1875 0 0.84375 0.4375 1.375 1.1406 1.375 0.57812 0 1.0312-0.35938 1.2969-1.0156zm-1.8906-0.89062c0.0625-0.46875 0.26562-0.70312 0.64062-0.70312s0.51562 0.17188 0.59375 0.70312z"/>
    </g>
    <g transform="translate(154.65 5.1226)">
     <path d="m0.03125 0h1.4688v-0.09375c-0.40625-0.015625-0.51562-0.09375-0.51562-0.45312v-1.375c0-0.20312 0.25-0.5 0.42188-0.5 0.03125 0 0.09375 0.03125 0.15625 0.09375 0.09375 0.09375 0.17188 0.10938 0.25 0.10938 0.14062 0 0.23438-0.09375 0.23438-0.26562 0-0.20312-0.125-0.32812-0.34375-0.32812-0.25 0-0.42188 0.14062-0.71875 0.57812v-0.5625l-0.03125-0.015625c-0.34375 0.14062-0.5625 0.21875-0.90625 0.32812v0.10938c0.078125-0.03125 0.14062-0.03125 0.20312-0.03125 0.15625 0 0.21875 0.09375 0.21875 0.35938v1.5312c-0.015625 0.3125-0.046875 0.35938-0.4375 0.42188z"/>
    </g>
    <g transform="translate(156.84 5.1226)">
     <path d="m0.03125 0h1.4688v-0.09375c-0.40625-0.015625-0.51562-0.09375-0.51562-0.45312v-1.375c0-0.20312 0.25-0.5 0.42188-0.5 0.03125 0 0.09375 0.03125 0.15625 0.09375 0.09375 0.09375 0.17188 0.10938 0.25 0.10938 0.14062 0 0.23438-0.09375 0.23438-0.26562 0-0.20312-0.125-0.32812-0.34375-0.32812-0.25 0-0.42188 0.14062-0.71875 0.57812v-0.5625l-0.03125-0.015625c-0.34375 0.14062-0.5625 0.21875-0.90625 0.32812v0.10938c0.078125-0.03125 0.14062-0.03125 0.20312-0.03125 0.15625 0 0.21875 0.09375 0.21875 0.35938v1.5312c-0.015625 0.3125-0.046875 0.35938-0.4375 0.42188z"/>
    </g>
   </g>
   <g>
    <g clip-path="url(#clip66)">
     <g>
      <g transform="translate(158.84 5.1226)">
       <path d="m2.5-1c-0.29688 0.46875-0.5625 0.64062-0.95312 0.64062-0.34375 0-0.60938-0.17188-0.79688-0.53125-0.10938-0.23438-0.14062-0.42188-0.15625-0.79688h1.875c-0.046875-0.40625-0.10938-0.57812-0.25-0.78125-0.1875-0.21875-0.46875-0.34375-0.79688-0.34375-0.29688 0-0.57812 0.10938-0.8125 0.3125-0.29688 0.26562-0.45312 0.6875-0.45312 1.1875 0 0.84375 0.4375 1.375 1.1406 1.375 0.57812 0 1.0312-0.35938 1.2969-1.0156zm-1.8906-0.89062c0.0625-0.46875 0.26562-0.70312 0.64062-0.70312s0.51562 0.17188 0.59375 0.70312z"/>
      </g>
      <g transform="translate(161.55 5.1226)">
       <path d="m3-0.35938c-0.078125 0.015625-0.10938 0.015625-0.14062 0.015625-0.21875 0-0.26562-0.078125-0.26562-0.35938v-3.4531l-0.03125-0.015625c-0.29688 0.09375-0.5 0.15625-0.90625 0.26562v0.09375h0.14062c0.21875 0 0.28125 0.0625 0.28125 0.3125v0.95312c-0.23438-0.20312-0.39062-0.26562-0.64062-0.26562-0.70312 0-1.2656 0.6875-1.2656 1.5625 0 0.78125 0.4375 1.3125 1.125 1.3125 0.34375 0 0.57812-0.125 0.78125-0.40625v0.39062l0.03125 0.015625 0.89062-0.3125zm-0.92188-0.26562c0 0.046875-0.046875 0.125-0.10938 0.1875-0.09375 0.125-0.26562 0.1875-0.4375 0.1875-0.51562 0-0.84375-0.5-0.84375-1.25 0-0.6875 0.29688-1.1406 0.76562-1.1406 0.32812 0 0.625 0.28125 0.625 0.60938z"/>
      </g>
      <g transform="translate(164.6 5.1226)"></g>
      <g transform="translate(166.13 5.1226)">
       <path d="m3-0.35938c-0.078125 0.015625-0.10938 0.015625-0.14062 0.015625-0.21875 0-0.26562-0.078125-0.26562-0.35938v-3.4531l-0.03125-0.015625c-0.29688 0.09375-0.5 0.15625-0.90625 0.26562v0.09375h0.14062c0.21875 0 0.28125 0.0625 0.28125 0.3125v0.95312c-0.23438-0.20312-0.39062-0.26562-0.64062-0.26562-0.70312 0-1.2656 0.6875-1.2656 1.5625 0 0.78125 0.4375 1.3125 1.125 1.3125 0.34375 0 0.57812-0.125 0.78125-0.40625v0.39062l0.03125 0.015625 0.89062-0.3125zm-0.92188-0.26562c0 0.046875-0.046875 0.125-0.10938 0.1875-0.09375 0.125-0.26562 0.1875-0.4375 0.1875-0.51562 0-0.84375-0.5-0.84375-1.25 0-0.6875 0.29688-1.1406 0.76562-1.1406 0.32812 0 0.625 0.28125 0.625 0.60938z"/>
      </g>
      <g transform="translate(169.18 5.1226)">
       <path d="m2.5-1c-0.29688 0.46875-0.5625 0.64062-0.95312 0.64062-0.34375 0-0.60938-0.17188-0.79688-0.53125-0.10938-0.23438-0.14062-0.42188-0.15625-0.79688h1.875c-0.046875-0.40625-0.10938-0.57812-0.25-0.78125-0.1875-0.21875-0.46875-0.34375-0.79688-0.34375-0.29688 0-0.57812 0.10938-0.8125 0.3125-0.29688 0.26562-0.45312 0.6875-0.45312 1.1875 0 0.84375 0.4375 1.375 1.1406 1.375 0.57812 0 1.0312-0.35938 1.2969-1.0156zm-1.8906-0.89062c0.0625-0.46875 0.26562-0.70312 0.64062-0.70312s0.51562 0.17188 0.59375 0.70312z"/>
      </g>
     </g>
    </g>
    <g clip-path="url(#clip67)">
     <g>
      <g transform="translate(171.89 5.1226)">
       <path d="m0.1875-2.5469h0.42188v1.9688c-0.015625 0.40625-0.078125 0.48438-0.40625 0.48438v0.09375h1.3438v-0.09375c-0.34375-0.015625-0.42188-0.10938-0.42188-0.4375v-2.0156h0.51562c0.59375 0 0.60938 0.015625 0.625 0.34375v1.6094c-0.015625 0.42188-0.046875 0.46875-0.42188 0.5v0.09375h1.3438v-0.09375c-0.34375-0.015625-0.40625-0.10938-0.40625-0.5v-1.5938-0.28125-0.32812l-0.015625-0.015625c-0.25 0.046875-0.4375 0.0625-0.6875 0.0625h-0.96875v-0.26562c0-0.21875 0.015625-0.45312 0.046875-0.5625 0.078125-0.26562 0.32812-0.4375 0.60938-0.4375 0.17188 0 0.28125 0.0625 0.42188 0.28125 0.125 0.17188 0.20312 0.23438 0.3125 0.23438 0.125 0 0.21875-0.10938 0.21875-0.25 0-0.26562-0.3125-0.42188-0.78125-0.42188s-0.8125 0.15625-1.0469 0.45312c-0.17188 0.25-0.25 0.48438-0.28125 0.96875h-0.42188z"/>
      </g>
     </g>
    </g>
    <g clip-path="url(#clip68)">
     <g>
      <g transform="translate(175.28 5.1226)">
       <path d="m0.10938 0h1.2969v-0.09375c-0.3125-0.015625-0.40625-0.09375-0.40625-0.3125v-1.7188c0.29688-0.28125 0.42188-0.34375 0.625-0.34375 0.3125 0 0.45312 0.1875 0.45312 0.59375v1.2656c-0.015625 0.40625-0.09375 0.5-0.39062 0.51562v0.09375h1.2812v-0.09375c-0.3125-0.03125-0.375-0.10938-0.375-0.40625v-1.3906c0-0.57812-0.26562-0.92188-0.71875-0.92188-0.28125 0-0.46875 0.10938-0.89062 0.5v-0.48438l-0.046875-0.015625c-0.3125 0.125-0.51562 0.1875-0.84375 0.28125v0.09375c0.046875-0.015625 0.10938-0.015625 0.17188-0.015625 0.17188 0 0.21875 0.09375 0.21875 0.39062v1.5156c0 0.35938-0.0625 0.4375-0.375 0.45312z"/>
      </g>
      <g transform="translate(178.34 5.1226)">
       <path d="m2.5-1c-0.29688 0.46875-0.5625 0.64062-0.95312 0.64062-0.34375 0-0.60938-0.17188-0.79688-0.53125-0.10938-0.23438-0.14062-0.42188-0.15625-0.79688h1.875c-0.046875-0.40625-0.10938-0.57812-0.25-0.78125-0.1875-0.21875-0.46875-0.34375-0.79688-0.34375-0.29688 0-0.57812 0.10938-0.8125 0.3125-0.29688 0.26562-0.45312 0.6875-0.45312 1.1875 0 0.84375 0.4375 1.375 1.1406 1.375 0.57812 0 1.0312-0.35938 1.2969-1.0156zm-1.8906-0.89062c0.0625-0.46875 0.26562-0.70312 0.64062-0.70312s0.51562 0.17188 0.59375 0.70312z"/>
      </g>
      <g transform="translate(181.05 5.1226)">
       <path d="m3-0.35938c-0.078125 0.015625-0.10938 0.015625-0.14062 0.015625-0.21875 0-0.26562-0.078125-0.26562-0.35938v-3.4531l-0.03125-0.015625c-0.29688 0.09375-0.5 0.15625-0.90625 0.26562v0.09375h0.14062c0.21875 0 0.28125 0.0625 0.28125 0.3125v0.95312c-0.23438-0.20312-0.39062-0.26562-0.64062-0.26562-0.70312 0-1.2656 0.6875-1.2656 1.5625 0 0.78125 0.4375 1.3125 1.125 1.3125 0.34375 0 0.57812-0.125 0.78125-0.40625v0.39062l0.03125 0.015625 0.89062-0.3125zm-0.92188-0.26562c0 0.046875-0.046875 0.125-0.10938 0.1875-0.09375 0.125-0.26562 0.1875-0.4375 0.1875-0.51562 0-0.84375-0.5-0.84375-1.25 0-0.6875 0.29688-1.1406 0.76562-1.1406 0.32812 0 0.625 0.28125 0.625 0.60938z"/>
      </g>
      <g transform="translate(184.1 5.1226)"></g>
      <g transform="translate(185.63 5.1226)">
       <path d="m0.9375-4.1562-0.03125-0.015625c-0.25 0.078125-0.42188 0.14062-0.70312 0.21875l-0.1875 0.046875v0.09375h0.10938c0.23438 0 0.29688 0.0625 0.29688 0.3125v3.1719c0 0.1875 0.51562 0.39062 1 0.39062 0.8125 0 1.4375-0.67188 1.4375-1.5469 0-0.75-0.46875-1.3281-1.0781-1.3281-0.375 0-0.71875 0.21875-0.84375 0.51562zm0 2.1875c0-0.23438 0.28125-0.45312 0.60938-0.45312 0.15625 0 0.3125 0.0625 0.4375 0.17188 0.20312 0.1875 0.34375 0.60938 0.34375 1.0469 0 0.67188-0.29688 1.0625-0.79688 1.0625-0.32812 0-0.59375-0.125-0.59375-0.28125z"/>
      </g>
     </g>
    </g>
   </g>
   <g>
    <g transform="translate(188.47 5.1226)">
     <path d="m2.9062-2.75h-0.82812v0.09375c0.1875 0 0.29688 0.046875 0.29688 0.15625 0 0.015625-0.015625 0.0625-0.03125 0.09375l-0.59375 1.6875-0.70312-1.5469c-0.03125-0.078125-0.0625-0.17188-0.0625-0.23438 0-0.10938 0.09375-0.14062 0.35938-0.15625v-0.09375h-1.2656v0.09375c0.17188 0.015625 0.26562 0.078125 0.3125 0.1875l0.70312 1.5c0.078125 0.17188 0.078125 0.17188 0.10938 0.23438 0.17188 0.3125 0.26562 0.53125 0.26562 0.625s-0.14062 0.46875-0.23438 0.65625c-0.09375 0.15625-0.21875 0.26562-0.3125 0.26562-0.03125 0-0.09375 0-0.15625-0.03125-0.10938-0.046875-0.21875-0.078125-0.3125-0.078125-0.15625 0-0.26562 0.125-0.26562 0.28125 0 0.1875 0.1875 0.34375 0.45312 0.34375 0.40625 0 0.6875-0.32812 1.0312-1.2188l0.9375-2.4844c0.078125-0.20312 0.14062-0.26562 0.29688-0.28125z"/>
    </g>
   </g>
  </g>
 </g>
 <g transform="translate(-63.578 13.179)">
  <g transform="matrix(1.0007 0 0 1 -.046154 0)" clip-path="url(#clip53)">
   <path transform="matrix(.4361 0 0 .4361 -24.529 -1.3317)" d="m202.03 21.998h113.67" fill="none" stroke="#00f"/>
  </g>
  <path d="m113.4 6.7344 4.3633 1.5273-4.3633 1.5273z" fill="#00f"/>
  <g transform="translate(.25013)" clip-path="url(#clip54)">
   <path transform="matrix(.4361 0 0 .4361 -24.529 -1.3317)" d="m315.71 18.496 10.005 3.5023-10.005 3.5023z" fill="none" stroke="#00f"/>
  </g>
  <g transform="translate(-1.1459)">
   <g clip-path="url(#clip55)">
    <g>
     <g transform="translate(67.954 5.1226)">
      <path d="m3-0.35938c-0.078125 0.015625-0.10938 0.015625-0.14062 0.015625-0.21875 0-0.26562-0.078125-0.26562-0.35938v-3.4531l-0.03125-0.015625c-0.29688 0.09375-0.5 0.15625-0.90625 0.26562v0.09375h0.14062c0.21875 0 0.28125 0.0625 0.28125 0.3125v0.95312c-0.23438-0.20312-0.39062-0.26562-0.64062-0.26562-0.70312 0-1.2656 0.6875-1.2656 1.5625 0 0.78125 0.4375 1.3125 1.125 1.3125 0.34375 0 0.57812-0.125 0.78125-0.40625v0.39062l0.03125 0.015625 0.89062-0.3125zm-0.92188-0.26562c0 0.046875-0.046875 0.125-0.10938 0.1875-0.09375 0.125-0.26562 0.1875-0.4375 0.1875-0.51562 0-0.84375-0.5-0.84375-1.25 0-0.6875 0.29688-1.1406 0.76562-1.1406 0.32812 0 0.625 0.28125 0.625 0.60938z"/>
     </g>
     <g transform="translate(71.006 5.1226)">
      <path d="m0.09375 0h1.4531v-0.09375c-0.40625-0.03125-0.45312-0.078125-0.45312-0.53125v-2.1719l-0.03125-0.015625-0.9375 0.34375v0.09375l0.046875-0.015625c0.078125-0.015625 0.14062-0.015625 0.20312-0.015625 0.15625 0 0.20312 0.09375 0.20312 0.35938v1.4219c-0.015625 0.45312-0.0625 0.51562-0.48438 0.53125zm0.6875-4.1719c-0.17188 0-0.3125 0.14062-0.3125 0.3125s0.14062 0.3125 0.3125 0.3125c0.1875 0 0.3125-0.14062 0.3125-0.3125s-0.14062-0.3125-0.3125-0.3125z"/>
     </g>
     <g transform="translate(72.704 5.1226)">
      <path d="m0.03125 0h1.4688v-0.09375c-0.40625-0.015625-0.51562-0.09375-0.51562-0.45312v-1.375c0-0.20312 0.25-0.5 0.42188-0.5 0.03125 0 0.09375 0.03125 0.15625 0.09375 0.09375 0.09375 0.17188 0.10938 0.25 0.10938 0.14062 0 0.23438-0.09375 0.23438-0.26562 0-0.20312-0.125-0.32812-0.34375-0.32812-0.25 0-0.42188 0.14062-0.71875 0.57812v-0.5625l-0.03125-0.015625c-0.34375 0.14062-0.5625 0.21875-0.90625 0.32812v0.10938c0.078125-0.03125 0.14062-0.03125 0.20312-0.03125 0.15625 0 0.21875 0.09375 0.21875 0.35938v1.5312c-0.015625 0.3125-0.046875 0.35938-0.4375 0.42188z"/>
     </g>
    </g>
   </g>
   <g>
    <g transform="translate(74.7 5.1226)">
     <path d="m2.5-1c-0.29688 0.46875-0.5625 0.64062-0.95312 0.64062-0.34375 0-0.60938-0.17188-0.79688-0.53125-0.10938-0.23438-0.14062-0.42188-0.15625-0.79688h1.875c-0.046875-0.40625-0.10938-0.57812-0.25-0.78125-0.1875-0.21875-0.46875-0.34375-0.79688-0.34375-0.29688 0-0.57812 0.10938-0.8125 0.3125-0.29688 0.26562-0.45312 0.6875-0.45312 1.1875 0 0.84375 0.4375 1.375 1.1406 1.375 0.57812 0 1.0312-0.35938 1.2969-1.0156zm-1.8906-0.89062c0.0625-0.46875 0.26562-0.70312 0.64062-0.70312s0.51562 0.17188 0.59375 0.70312z"/>
    </g>
    <g transform="translate(77.411 5.1226)">
     <path d="m2.4375-0.95312c-0.29688 0.42188-0.51562 0.57812-0.875 0.57812-0.54688 0-0.9375-0.5-0.9375-1.1875 0-0.64062 0.32812-1.0781 0.82812-1.0781 0.21875 0 0.29688 0.0625 0.35938 0.29688l0.03125 0.14062c0.0625 0.17188 0.17188 0.28125 0.29688 0.28125 0.15625 0 0.29688-0.125 0.29688-0.26562 0-0.32812-0.4375-0.625-0.95312-0.625-0.29688 0-0.60938 0.125-0.85938 0.34375-0.29688 0.26562-0.46875 0.6875-0.46875 1.1719 0 0.79688 0.48438 1.3594 1.1562 1.3594 0.28125 0 0.51562-0.09375 0.73438-0.28125 0.17188-0.14062 0.28125-0.3125 0.46875-0.67188z"/>
    </g>
   </g>
   <g>
    <g clip-path="url(#clip56)">
     <g>
      <g transform="translate(80.036 5.1226)">
       <path d="m1.5625-2.75h-0.625v-0.70312c0-0.0625-0.015625-0.078125-0.046875-0.078125-0.34375 0.5-0.53125 0.71875-0.70312 0.8125-0.078125 0.046875-0.10938 0.078125-0.10938 0.125 0 0.015625 0 0.03125 0.03125 0.046875h0.3125v1.8281c0 0.51562 0.1875 0.78125 0.54688 0.78125 0.29688 0 0.53125-0.14062 0.73438-0.46875l-0.078125-0.0625c-0.14062 0.15625-0.23438 0.21875-0.35938 0.21875-0.23438 0-0.32812-0.17188-0.32812-0.5625v-1.7344h0.625z"/>
      </g>
      <g transform="translate(81.734 5.1226)">
       <path d="m0.125 0h1.4375v-0.09375c-0.375-0.015625-0.4375-0.078125-0.45312-0.42188v-3.6406l-0.015625-0.015625c-0.3125 0.09375-0.54688 0.15625-0.98438 0.26562v0.09375h0.046875 0.1875c0.1875 0 0.25 0.078125 0.25 0.35938v2.9219c0 0.32812-0.09375 0.42188-0.46875 0.4375z"/>
      </g>
     </g>
    </g>
    <g clip-path="url(#clip57)">
     <g>
      <g transform="translate(83.272 5.1226)">
       <path d="m2.9062-2.75h-0.82812v0.09375c0.1875 0 0.29688 0.046875 0.29688 0.15625 0 0.015625-0.015625 0.0625-0.03125 0.09375l-0.59375 1.6875-0.70312-1.5469c-0.03125-0.078125-0.0625-0.17188-0.0625-0.23438 0-0.10938 0.09375-0.14062 0.35938-0.15625v-0.09375h-1.2656v0.09375c0.17188 0.015625 0.26562 0.078125 0.3125 0.1875l0.70312 1.5c0.078125 0.17188 0.078125 0.17188 0.10938 0.23438 0.17188 0.3125 0.26562 0.53125 0.26562 0.625s-0.14062 0.46875-0.23438 0.65625c-0.09375 0.15625-0.21875 0.26562-0.3125 0.26562-0.03125 0-0.09375 0-0.15625-0.03125-0.10938-0.046875-0.21875-0.078125-0.3125-0.078125-0.15625 0-0.26562 0.125-0.26562 0.28125 0 0.1875 0.1875 0.34375 0.45312 0.34375 0.40625 0 0.6875-0.32812 1.0312-1.2188l0.9375-2.4844c0.078125-0.20312 0.14062-0.26562 0.29688-0.28125z"/>
      </g>
      <g transform="translate(86.325 5.1226)"></g>
      <g transform="translate(87.851 5.1226)">
       <path d="m3-0.35938c-0.078125 0.015625-0.10938 0.015625-0.14062 0.015625-0.21875 0-0.26562-0.078125-0.26562-0.35938v-3.4531l-0.03125-0.015625c-0.29688 0.09375-0.5 0.15625-0.90625 0.26562v0.09375h0.14062c0.21875 0 0.28125 0.0625 0.28125 0.3125v0.95312c-0.23438-0.20312-0.39062-0.26562-0.64062-0.26562-0.70312 0-1.2656 0.6875-1.2656 1.5625 0 0.78125 0.4375 1.3125 1.125 1.3125 0.34375 0 0.57812-0.125 0.78125-0.40625v0.39062l0.03125 0.015625 0.89062-0.3125zm-0.92188-0.26562c0 0.046875-0.046875 0.125-0.10938 0.1875-0.09375 0.125-0.26562 0.1875-0.4375 0.1875-0.51562 0-0.84375-0.5-0.84375-1.25 0-0.6875 0.29688-1.1406 0.76562-1.1406 0.32812 0 0.625 0.28125 0.625 0.60938z"/>
      </g>
      <g transform="translate(90.904 5.1226)">
       <path d="m2.5-1c-0.29688 0.46875-0.5625 0.64062-0.95312 0.64062-0.34375 0-0.60938-0.17188-0.79688-0.53125-0.10938-0.23438-0.14062-0.42188-0.15625-0.79688h1.875c-0.046875-0.40625-0.10938-0.57812-0.25-0.78125-0.1875-0.21875-0.46875-0.34375-0.79688-0.34375-0.29688 0-0.57812 0.10938-0.8125 0.3125-0.29688 0.26562-0.45312 0.6875-0.45312 1.1875 0 0.84375 0.4375 1.375 1.1406 1.375 0.57812 0 1.0312-0.35938 1.2969-1.0156zm-1.8906-0.89062c0.0625-0.46875 0.26562-0.70312 0.64062-0.70312s0.51562 0.17188 0.59375 0.70312z"/>
      </g>
     </g>
    </g>
    <g clip-path="url(#clip58)">
     <g>
      <g transform="translate(93.615 5.1226)">
       <path d="m0.1875-2.5469h0.42188v1.9688c-0.015625 0.40625-0.078125 0.48438-0.40625 0.48438v0.09375h1.3438v-0.09375c-0.34375-0.015625-0.42188-0.10938-0.42188-0.4375v-2.0156h0.51562c0.59375 0 0.60938 0.015625 0.625 0.34375v1.6094c-0.015625 0.42188-0.046875 0.46875-0.42188 0.5v0.09375h1.3438v-0.09375c-0.34375-0.015625-0.40625-0.10938-0.40625-0.5v-1.5938-0.28125-0.32812l-0.015625-0.015625c-0.25 0.046875-0.4375 0.0625-0.6875 0.0625h-0.96875v-0.26562c0-0.21875 0.015625-0.45312 0.046875-0.5625 0.078125-0.26562 0.32812-0.4375 0.60938-0.4375 0.17188 0 0.28125 0.0625 0.42188 0.28125 0.125 0.17188 0.20312 0.23438 0.3125 0.23438 0.125 0 0.21875-0.10938 0.21875-0.25 0-0.26562-0.3125-0.42188-0.78125-0.42188s-0.8125 0.15625-1.0469 0.45312c-0.17188 0.25-0.25 0.48438-0.28125 0.96875h-0.42188z"/>
      </g>
     </g>
    </g>
    <g clip-path="url(#clip59)">
     <g>
      <g transform="translate(97.009 5.1226)">
       <path d="m0.10938 0h1.2969v-0.09375c-0.3125-0.015625-0.40625-0.09375-0.40625-0.3125v-1.7188c0.29688-0.28125 0.42188-0.34375 0.625-0.34375 0.3125 0 0.45312 0.1875 0.45312 0.59375v1.2656c-0.015625 0.40625-0.09375 0.5-0.39062 0.51562v0.09375h1.2812v-0.09375c-0.3125-0.03125-0.375-0.10938-0.375-0.40625v-1.3906c0-0.57812-0.26562-0.92188-0.71875-0.92188-0.28125 0-0.46875 0.10938-0.89062 0.5v-0.48438l-0.046875-0.015625c-0.3125 0.125-0.51562 0.1875-0.84375 0.28125v0.09375c0.046875-0.015625 0.10938-0.015625 0.17188-0.015625 0.17188 0 0.21875 0.09375 0.21875 0.39062v1.5156c0 0.35938-0.0625 0.4375-0.375 0.45312z"/>
      </g>
      <g transform="translate(100.06 5.1226)">
       <path d="m2.5-1c-0.29688 0.46875-0.5625 0.64062-0.95312 0.64062-0.34375 0-0.60938-0.17188-0.79688-0.53125-0.10938-0.23438-0.14062-0.42188-0.15625-0.79688h1.875c-0.046875-0.40625-0.10938-0.57812-0.25-0.78125-0.1875-0.21875-0.46875-0.34375-0.79688-0.34375-0.29688 0-0.57812 0.10938-0.8125 0.3125-0.29688 0.26562-0.45312 0.6875-0.45312 1.1875 0 0.84375 0.4375 1.375 1.1406 1.375 0.57812 0 1.0312-0.35938 1.2969-1.0156zm-1.8906-0.89062c0.0625-0.46875 0.26562-0.70312 0.64062-0.70312s0.51562 0.17188 0.59375 0.70312z"/>
      </g>
      <g transform="translate(102.77 5.1226)">
       <path d="m3-0.35938c-0.078125 0.015625-0.10938 0.015625-0.14062 0.015625-0.21875 0-0.26562-0.078125-0.26562-0.35938v-3.4531l-0.03125-0.015625c-0.29688 0.09375-0.5 0.15625-0.90625 0.26562v0.09375h0.14062c0.21875 0 0.28125 0.0625 0.28125 0.3125v0.95312c-0.23438-0.20312-0.39062-0.26562-0.64062-0.26562-0.70312 0-1.2656 0.6875-1.2656 1.5625 0 0.78125 0.4375 1.3125 1.125 1.3125 0.34375 0 0.57812-0.125 0.78125-0.40625v0.39062l0.03125 0.015625 0.89062-0.3125zm-0.92188-0.26562c0 0.046875-0.046875 0.125-0.10938 0.1875-0.09375 0.125-0.26562 0.1875-0.4375 0.1875-0.51562 0-0.84375-0.5-0.84375-1.25 0-0.6875 0.29688-1.1406 0.76562-1.1406 0.32812 0 0.625 0.28125 0.625 0.60938z"/>
      </g>
      <g transform="translate(105.83 5.1226)"></g>
      <g transform="translate(107.35 5.1226)">
       <path d="m0.9375-4.1562-0.03125-0.015625c-0.25 0.078125-0.42188 0.14062-0.70312 0.21875l-0.1875 0.046875v0.09375h0.10938c0.23438 0 0.29688 0.0625 0.29688 0.3125v3.1719c0 0.1875 0.51562 0.39062 1 0.39062 0.8125 0 1.4375-0.67188 1.4375-1.5469 0-0.75-0.46875-1.3281-1.0781-1.3281-0.375 0-0.71875 0.21875-0.84375 0.51562zm0 2.1875c0-0.23438 0.28125-0.45312 0.60938-0.45312 0.15625 0 0.3125 0.0625 0.4375 0.17188 0.20312 0.1875 0.34375 0.60938 0.34375 1.0469 0 0.67188-0.29688 1.0625-0.79688 1.0625-0.32812 0-0.59375-0.125-0.59375-0.28125z"/>
      </g>
     </g>
    </g>
   </g>
   <g>
    <g transform="translate(110.2 5.1226)">
     <path d="m2.9062-2.75h-0.82812v0.09375c0.1875 0 0.29688 0.046875 0.29688 0.15625 0 0.015625-0.015625 0.0625-0.03125 0.09375l-0.59375 1.6875-0.70312-1.5469c-0.03125-0.078125-0.0625-0.17188-0.0625-0.23438 0-0.10938 0.09375-0.14062 0.35938-0.15625v-0.09375h-1.2656v0.09375c0.17188 0.015625 0.26562 0.078125 0.3125 0.1875l0.70312 1.5c0.078125 0.17188 0.078125 0.17188 0.10938 0.23438 0.17188 0.3125 0.26562 0.53125 0.26562 0.625s-0.14062 0.46875-0.23438 0.65625c-0.09375 0.15625-0.21875 0.26562-0.3125 0.26562-0.03125 0-0.09375 0-0.15625-0.03125-0.10938-0.046875-0.21875-0.078125-0.3125-0.078125-0.15625 0-0.26562 0.125-0.26562 0.28125 0 0.1875 0.1875 0.34375 0.45312 0.34375 0.40625 0 0.6875-0.32812 1.0312-1.2188l0.9375-2.4844c0.078125-0.20312 0.14062-0.26562 0.29688-0.28125z"/>
    </g>
   </g>
  </g>
 </g>
 <g transform="translate(-.76562 -.84766)">
  <g clip-path="url(#clip46)">
   <path transform="matrix(.4361 0 0 .4361 -24.529 -1.3317)" d="m58.001 21.998c0 9.9425-12.092 18.004-26.997 18.004-14.914 0-27.006-8.0615-27.006-18.004 0-9.9425 12.092-17.995 27.006-17.995 14.905 0 26.997 8.0526 26.997 17.995z" fill="none" stroke="#fff"/>
  </g>
  <g transform="matrix(1.4346 0 0 1 -.34803 0)" clip-path="url(#clip48)">
   <path transform="matrix(.4361 0 0 .4361 -24.529 -1.3317)" d="m58.082 21.998h79.289" fill="none" stroke="#0f0"/>
  </g>
  <path d="m50.59 6.7344 4.3594 1.5273-4.3594 1.5273z" fill="#0f0"/>
  <g transform="translate(15.133)" clip-path="url(#clip49)">
   <path transform="matrix(.4361 0 0 .4361 -24.529 -1.3317)" d="m137.55 18.496 9.9963 3.5023-9.9963 3.5023z" fill="none" stroke="#0f0"/>
  </g>
  <g transform="translate(-.74267)">
   <g>
    <g transform="translate(4.7536 5.1226)">
     <path d="m2.4375-0.95312c-0.29688 0.42188-0.51562 0.57812-0.875 0.57812-0.54688 0-0.9375-0.5-0.9375-1.1875 0-0.64062 0.32812-1.0781 0.82812-1.0781 0.21875 0 0.29688 0.0625 0.35938 0.29688l0.03125 0.14062c0.0625 0.17188 0.17188 0.28125 0.29688 0.28125 0.15625 0 0.29688-0.125 0.29688-0.26562 0-0.32812-0.4375-0.625-0.95312-0.625-0.29688 0-0.60938 0.125-0.85938 0.34375-0.29688 0.26562-0.46875 0.6875-0.46875 1.1719 0 0.79688 0.48438 1.3594 1.1562 1.3594 0.28125 0 0.51562-0.09375 0.73438-0.28125 0.17188-0.14062 0.28125-0.3125 0.46875-0.67188z"/>
    </g>
    <g transform="translate(7.4278 5.1226)">
     <path d="m1.5312-2.8125c-0.79688 0-1.3594 0.59375-1.3594 1.4375 0 0.82812 0.57812 1.4375 1.3438 1.4375s1.3594-0.64062 1.3594-1.4844c0-0.8125-0.5625-1.3906-1.3438-1.3906zm-0.078125 0.17188c0.51562 0 0.875 0.59375 0.875 1.4219 0 0.70312-0.28125 1.1094-0.73438 1.1094-0.25 0-0.46875-0.14062-0.59375-0.39062-0.17188-0.3125-0.26562-0.75-0.26562-1.1875 0-0.57812 0.28125-0.95312 0.71875-0.95312z"/>
    </g>
    <g transform="translate(10.48 5.1226)">
     <path d="m0.09375 0h1.3594v-0.09375c-0.3125 0-0.40625-0.078125-0.42188-0.3125v-1.7188c0-0.015625 0.0625-0.078125 0.09375-0.125 0.15625-0.14062 0.42188-0.25 0.64062-0.25 0.26562 0 0.39062 0.21875 0.39062 0.65625v1.3125c0 0.35938-0.0625 0.42188-0.40625 0.4375v0.09375h1.3594v-0.09375c-0.32812 0-0.42188-0.09375-0.4375-0.48438v-1.5469c0.1875-0.25 0.39062-0.375 0.67188-0.375 0.34375 0 0.45312 0.17188 0.45312 0.67188v1.2969c-0.015625 0.35938-0.046875 0.40625-0.40625 0.4375v0.09375h1.3438v-0.09375l-0.15625-0.015625c-0.20312-0.03125-0.26562-0.10938-0.26562-0.35938v-1.25c0-0.71875-0.23438-1.0938-0.70312-1.0938-0.35938 0-0.67188 0.15625-1 0.51562-0.10938-0.34375-0.3125-0.51562-0.64062-0.51562-0.28125 0-0.45312 0.078125-0.95312 0.46875v-0.45312l-0.046875-0.015625c-0.32812 0.125-0.53125 0.1875-0.85938 0.28125v0.09375c0.078125-0.015625 0.14062-0.015625 0.20312-0.015625 0.15625 0 0.21875 0.09375 0.21875 0.39062v1.5469c-0.015625 0.34375-0.09375 0.42188-0.4375 0.42188z"/>
    </g>
   </g>
   <g clip-path="url(#clip50)">
    <g>
     <g transform="translate(15.169 5.1226)">
      <path d="m0.03125 1.3281h1.4844v-0.10938c-0.46875-0.015625-0.53125-0.0625-0.54688-0.46875v-0.95312c0.21875 0.20312 0.35938 0.26562 0.625 0.26562 0.71875 0 1.2812-0.6875 1.2812-1.5781 0-0.75-0.4375-1.2969-1.0312-1.2969-0.32812 0-0.60938 0.15625-0.875 0.48438v-0.46875l-0.03125-0.015625c-0.32812 0.125-0.54688 0.20312-0.875 0.3125v0.09375h0.14062c0.21875 0 0.25 0.0625 0.25 0.34375v2.8594c0 0.32812-0.0625 0.39062-0.42188 0.42188zm0.9375-3.375c0-0.17188 0.34375-0.39062 0.625-0.39062 0.45312 0 0.75 0.45312 0.75 1.1719 0 0.67188-0.29688 1.125-0.73438 1.125-0.29688 0-0.64062-0.21875-0.64062-0.39062z"/>
     </g>
     <g transform="translate(18.222 5.1226)">
      <path d="m1.5312-2.8125c-0.79688 0-1.3594 0.59375-1.3594 1.4375 0 0.82812 0.57812 1.4375 1.3438 1.4375s1.3594-0.64062 1.3594-1.4844c0-0.8125-0.5625-1.3906-1.3438-1.3906zm-0.078125 0.17188c0.51562 0 0.875 0.59375 0.875 1.4219 0 0.70312-0.28125 1.1094-0.73438 1.1094-0.25 0-0.46875-0.14062-0.59375-0.39062-0.17188-0.3125-0.26562-0.75-0.26562-1.1875 0-0.57812 0.28125-0.95312 0.71875-0.95312z"/>
     </g>
     <g transform="translate(21.275 5.1226)">
      <path d="m1.9219-1.9219-0.015625-0.82812h-0.078125c-0.03125 0.046875-0.0625 0.0625-0.09375 0.0625s-0.09375-0.015625-0.17188-0.046875c-0.14062-0.046875-0.26562-0.078125-0.42188-0.078125-0.48438 0-0.82812 0.3125-0.82812 0.76562 0 0.34375 0.1875 0.57812 0.71875 0.875l0.34375 0.20312c0.21875 0.125 0.32812 0.26562 0.32812 0.45312 0 0.26562-0.20312 0.4375-0.51562 0.4375-0.42188 0-0.625-0.23438-0.76562-0.84375h-0.10938v0.95312h0.078125c0.046875-0.0625 0.078125-0.078125 0.14062-0.078125 0.078125 0 0.14062 0.015625 0.28125 0.046875 0.17188 0.03125 0.32812 0.0625 0.45312 0.0625 0.46875 0 0.85938-0.35938 0.85938-0.78125 0-0.3125-0.14062-0.51562-0.51562-0.73438l-0.65625-0.39062c-0.17188-0.09375-0.26562-0.25-0.26562-0.40625 0-0.25 0.1875-0.42188 0.46875-0.42188 0.35938 0 0.53125 0.20312 0.67188 0.75z"/>
     </g>
     <g transform="translate(23.65 5.1226)">
      <path d="m2.5-1c-0.29688 0.46875-0.5625 0.64062-0.95312 0.64062-0.34375 0-0.60938-0.17188-0.79688-0.53125-0.10938-0.23438-0.14062-0.42188-0.15625-0.79688h1.875c-0.046875-0.40625-0.10938-0.57812-0.25-0.78125-0.1875-0.21875-0.46875-0.34375-0.79688-0.34375-0.29688 0-0.57812 0.10938-0.8125 0.3125-0.29688 0.26562-0.45312 0.6875-0.45312 1.1875 0 0.84375 0.4375 1.375 1.1406 1.375 0.57812 0 1.0312-0.35938 1.2969-1.0156zm-1.8906-0.89062c0.0625-0.46875 0.26562-0.70312 0.64062-0.70312s0.51562 0.17188 0.59375 0.70312z"/>
     </g>
     <g transform="translate(26.361 5.1226)">
      <path d="m3-0.35938c-0.078125 0.015625-0.10938 0.015625-0.14062 0.015625-0.21875 0-0.26562-0.078125-0.26562-0.35938v-3.4531l-0.03125-0.015625c-0.29688 0.09375-0.5 0.15625-0.90625 0.26562v0.09375h0.14062c0.21875 0 0.28125 0.0625 0.28125 0.3125v0.95312c-0.23438-0.20312-0.39062-0.26562-0.64062-0.26562-0.70312 0-1.2656 0.6875-1.2656 1.5625 0 0.78125 0.4375 1.3125 1.125 1.3125 0.34375 0 0.57812-0.125 0.78125-0.40625v0.39062l0.03125 0.015625 0.89062-0.3125zm-0.92188-0.26562c0 0.046875-0.046875 0.125-0.10938 0.1875-0.09375 0.125-0.26562 0.1875-0.4375 0.1875-0.51562 0-0.84375-0.5-0.84375-1.25 0-0.6875 0.29688-1.1406 0.76562-1.1406 0.32812 0 0.625 0.28125 0.625 0.60938z"/>
     </g>
     <g transform="translate(29.413 5.1226)"></g>
     <g transform="translate(30.94 5.1226)">
      <path d="m1.5312-2.8125c-0.79688 0-1.3594 0.59375-1.3594 1.4375 0 0.82812 0.57812 1.4375 1.3438 1.4375s1.3594-0.64062 1.3594-1.4844c0-0.8125-0.5625-1.3906-1.3438-1.3906zm-0.078125 0.17188c0.51562 0 0.875 0.59375 0.875 1.4219 0 0.70312-0.28125 1.1094-0.73438 1.1094-0.25 0-0.46875-0.14062-0.59375-0.39062-0.17188-0.3125-0.26562-0.75-0.26562-1.1875 0-0.57812 0.28125-0.95312 0.71875-0.95312z"/>
     </g>
     <g transform="translate(33.992 5.1226)">
      <path d="m1.8906-2.75h-0.75v-0.70312c0-0.35938 0.10938-0.54688 0.34375-0.54688 0.14062 0 0.21875 0.0625 0.32812 0.23438 0.09375 0.15625 0.17188 0.21875 0.26562 0.21875 0.15625 0 0.26562-0.10938 0.26562-0.25 0-0.21875-0.26562-0.375-0.64062-0.375-0.39062 0-0.70312 0.15625-0.85938 0.4375s-0.20312 0.5-0.21875 0.98438h-0.5v0.20312h0.5v1.9062c-0.015625 0.46875-0.0625 0.53125-0.5 0.54688v0.09375h1.5781v-0.09375c-0.5-0.015625-0.5625-0.078125-0.5625-0.54688v-1.9062h0.75z"/>
     </g>
    </g>
   </g>
  </g>
 </g>
</svg>
