<?xml version="1.0" encoding="UTF-8"?>
<svg width="138.32pt" height="73.441pt" version="1.2" viewBox="0 0 138.32 73.441" xmlns="http://www.w3.org/2000/svg" xmlns:xlink="http://www.w3.org/1999/xlink">
 <defs>
  <clipPath>
   <path d="m0.76562 0.57812h200.58v81.086h-200.58z"/>
  </clipPath>
  <clipPath>
   <path d="m0.76562 0.57812h200.58v81.086h-200.58z"/>
  </clipPath>
  <clipPath>
   <path d="m99 0.57812h55v23.422h-55z"/>
  </clipPath>
  <clipPath>
   <path d="m0.76562 32h76.234v26h-76.234z"/>
  </clipPath>
  <clipPath>
   <path d="m173 36h28.348v18h-28.348z"/>
  </clipPath>
  <clipPath>
   <path d="m22 66h31v15.664h-31z"/>
  </clipPath>
  <clipPath>
   <path d="m88 66h30v15.664h-30z"/>
  </clipPath>
  <clipPath>
   <path d="m135 66h31v15.664h-31z"/>
  </clipPath>
  <clipPath id="clip3">
   <rect width="202" height="82"/>
  </clipPath>
  <g clip-path="url(#clip3)"></g>
  <clipPath id="clip1">
   <rect width="202" height="82"/>
  </clipPath>
  <g clip-path="url(#clip1)"></g>
  <clipPath>
   <path d="m0.55078 0.83594h121.04v83.828h-121.04z"/>
  </clipPath>
  <clipPath>
   <path d="m0.55078 0.83594h121.04v83.828h-121.04z"/>
  </clipPath>
  <clipPath>
   <path d="m32 0.83594h59v18.164h-59z"/>
  </clipPath>
  <clipPath>
   <path d="m0.55078 28h60.449v30h-60.449z"/>
  </clipPath>
  <clipPath>
   <path d="m63 28h58.59v30h-58.59z"/>
  </clipPath>
  <clipPath>
   <path d="m13 67h33v17.664h-33z"/>
  </clipPath>
  <clipPath>
   <path d="m77 67h33v17.664h-33z"/>
  </clipPath>
  <clipPath id="clip13">
   <rect width="122" height="85"/>
  </clipPath>
  <g clip-path="url(#clip13)"></g>
  <clipPath id="clip11">
   <rect width="122" height="85"/>
  </clipPath>
  <g clip-path="url(#clip11)"></g>
  <clipPath>
   <path d="m0.76562 0.22266h200.58v70.793h-200.58z"/>
  </clipPath>
  <clipPath>
   <path d="m0.76562 0.22266h200.58v70.793h-200.58z"/>
  </clipPath>
  <clipPath>
   <path d="m102 0.22266h48v20.777h-48z"/>
  </clipPath>
  <clipPath>
   <path d="m0.76562 28h66.234v23h-66.234z"/>
  </clipPath>
  <clipPath>
   <path d="m178 31h23.348v16h-23.348z"/>
  </clipPath>
  <clipPath>
   <path d="m39 57h26v14.016h-26z"/>
  </clipPath>
  <clipPath>
   <path d="m81 57h27v14.016h-27z"/>
  </clipPath>
  <clipPath>
   <path d="m129 57h26v14.016h-26z"/>
  </clipPath>
  <clipPath id="clip22">
   <rect width="202" height="72"/>
  </clipPath>
  <g clip-path="url(#clip22)"></g>
  <clipPath id="clip20">
   <rect width="202" height="72"/>
  </clipPath>
  <g clip-path="url(#clip20)"></g>
  <clipPath id="clip31">
   <path d="m0.26172 0.57422h138.32v73.441h-138.32z"/>
  </clipPath>
  <clipPath id="clip33">
   <path d="m0.26172 0.57422h138.32v73.441h-138.32z"/>
  </clipPath>
  <clipPath id="clip34">
   <path d="m18 58h29v16.016h-29z"/>
  </clipPath>
  <clipPath id="clip35">
   <path d="m80 58h29v16.016h-29z"/>
  </clipPath>
  <clipPath id="clip36">
   <path d="m111 58h27.586v16.016h-27.586z"/>
  </clipPath>
  <clipPath id="clip37">
   <path d="m37 0.57422h53v16.426h-53z"/>
  </clipPath>
  <clipPath>
   <path d="m0.26172 10h42.738v56h-42.738z"/>
  </clipPath>
  <clipPath>
   <path d="m86 9h52.586v55h-52.586z"/>
  </clipPath>
  <clipPath id="clip40">
   <path d="m79 0.57422h17v15.426h-17z"/>
  </clipPath>
  <clipPath id="clip41">
   <path d="m75 0.57422h9v5.4258h-9z"/>
  </clipPath>
  <clipPath id="clip32">
   <rect width="139" height="75"/>
  </clipPath>
  <g clip-path="url(#clip32)"></g>
  <clipPath id="clip30">
   <rect width="139" height="75"/>
  </clipPath>
  <g clip-path="url(#clip30)"></g>
  <clipPath>
   <path d="m0.76562 0.84766h345.83v9.5938h-345.83z"/>
  </clipPath>
  <clipPath>
   <path d="m0.76562 0.84766h345.83v9.5938h-345.83z"/>
  </clipPath>
  <clipPath>
   <path d="m0.76562 0.84766h3.2344v9.5938h-3.2344z"/>
  </clipPath>
  <clipPath>
   <path d="m37 0.84766h30v9.5938h-30z"/>
  </clipPath>
  <clipPath>
   <path d="m0.76562 5h37.234v5.4414h-37.234z"/>
  </clipPath>
  <clipPath>
   <path d="m32 4h11v6.4414h-11z"/>
  </clipPath>
  <clipPath id="clip50">
   <path d="m15 0.84766h22v6.1523h-22z"/>
  </clipPath>
  <clipPath>
   <path d="m115 0.84766h29v9.5938h-29z"/>
  </clipPath>
  <clipPath id="clip52">
   <path d="m128 10h3v0.44141h-3z"/>
  </clipPath>
  <clipPath>
   <path d="m61 5h55v5.4414h-55z"/>
  </clipPath>
  <clipPath>
   <path d="m110 4h10v6.4414h-10z"/>
  </clipPath>
  <clipPath id="clip55">
   <path d="m68 0.84766h7v5.1523h-7z"/>
  </clipPath>
  <clipPath id="clip56">
   <path d="m80 0.84766h4v5.1523h-4z"/>
  </clipPath>
  <clipPath id="clip57">
   <path d="m83 0.84766h11v6.1523h-11z"/>
  </clipPath>
  <clipPath id="clip58">
   <path d="m93 0.84766h4v5.1523h-4z"/>
  </clipPath>
  <clipPath id="clip59">
   <path d="m97 0.84766h14v5.1523h-14z"/>
  </clipPath>
  <clipPath>
   <path d="m193 0.84766h29v9.5938h-29z"/>
  </clipPath>
  <clipPath id="clip61">
   <path d="m205 10h1v0.44141h-1z"/>
  </clipPath>
  <clipPath id="clip62">
   <path d="m209 10h1v0.44141h-1z"/>
  </clipPath>
  <clipPath>
   <path d="m138 5h56v5.4414h-56z"/>
  </clipPath>
  <clipPath>
   <path d="m188 4h11v6.4414h-11z"/>
  </clipPath>
  <clipPath id="clip65">
   <path d="m145 0.84766h8v5.1523h-8z"/>
  </clipPath>
  <clipPath id="clip66">
   <path d="m158 0.84766h14v5.1523h-14z"/>
  </clipPath>
  <clipPath id="clip67">
   <path d="m172 0.84766h4v5.1523h-4z"/>
  </clipPath>
  <clipPath id="clip68">
   <path d="m175 0.84766h14v5.1523h-14z"/>
  </clipPath>
  <clipPath>
   <path d="m256 0.84766h29v9.5938h-29z"/>
  </clipPath>
  <clipPath id="clip70">
   <path d="m268 10h5v0.44141h-5z"/>
  </clipPath>
  <clipPath>
   <path d="m216 5h41v5.4414h-41z"/>
  </clipPath>
  <clipPath>
   <path d="m252 4h10v6.4414h-10z"/>
  </clipPath>
  <clipPath id="clip73">
   <path d="m229 0.84766h5v5.1523h-5z"/>
  </clipPath>
  <clipPath id="clip74">
   <path d="m239 0.84766h13v5.1523h-13z"/>
  </clipPath>
  <clipPath>
   <path d="m330 0.84766h16.594v9.5938h-16.594z"/>
  </clipPath>
  <clipPath id="clip76">
   <path d="m343 10h1v0.44141h-1z"/>
  </clipPath>
  <clipPath id="clip77">
   <path d="m346 10h0.59375v0.44141h-0.59375z"/>
  </clipPath>
  <clipPath>
   <path d="m280 5h51v5.4414h-51z"/>
  </clipPath>
  <clipPath>
   <path d="m326 4h10v6.4414h-10z"/>
  </clipPath>
  <clipPath id="clip80">
   <path d="m291 0.84766h15v5.1523h-15z"/>
  </clipPath>
  <clipPath id="clip81">
   <path d="m305 0.84766h2v5.1523h-2z"/>
  </clipPath>
  <clipPath id="clip82">
   <path d="m309 0.84766h13v5.1523h-13z"/>
  </clipPath>
  <clipPath id="clip44">
   <rect width="347" height="11"/>
  </clipPath>
  <g clip-path="url(#clip44)">
   <g clip-path="url(#clip50)"></g>
   <g clip-path="url(#clip52)"></g>
   <g clip-path="url(#clip55)"></g>
   <g clip-path="url(#clip56)"></g>
   <g clip-path="url(#clip57)"></g>
   <g clip-path="url(#clip58)"></g>
   <g clip-path="url(#clip59)"></g>
   <g clip-path="url(#clip61)"></g>
   <g clip-path="url(#clip62)"></g>
   <g clip-path="url(#clip65)"></g>
   <g clip-path="url(#clip66)"></g>
   <g clip-path="url(#clip67)"></g>
   <g clip-path="url(#clip68)"></g>
   <g clip-path="url(#clip70)"></g>
   <g clip-path="url(#clip73)"></g>
   <g clip-path="url(#clip74)"></g>
   <g clip-path="url(#clip76)"></g>
   <g clip-path="url(#clip77)"></g>
   <g clip-path="url(#clip80)"></g>
   <g clip-path="url(#clip81)"></g>
   <g clip-path="url(#clip82)"></g>
  </g>
  <clipPath id="clip42">
   <rect width="347" height="11"/>
  </clipPath>
  <g clip-path="url(#clip42)"></g>
 </defs>
 <g transform="translate(-342.26 -223.57)">
  <g transform="translate(342,223)" clip-path="url(#clip30)">
   <g clip-path="url(#clip31)">
    <g clip-path="url(#clip32)">
     <g clip-path="url(#clip33)">
      <path d="m0 0h139v75h-139z" fill="#fff"/>
     </g>
     <g clip-path="url(#clip34)">
      <path transform="matrix(.3565 0 0 .3565 -.8065 -.137)" d="m127.12 188.86c0 9.9382-15.055 17.992-33.639 17.992-18.583 0-33.65-8.0536-33.65-17.992 0-9.9272 15.066-17.981 33.65-17.981 18.583 0 33.639 8.0536 33.639 17.981" fill="none" stroke="#000" stroke-width=".99937"/>
     </g>
     <g>
      <g transform="translate(25.364 69.05)">
       <path d="m3.1875-3.2031c0.14453 0.15625 0.25391 0.35547 0.32812 0.59375 0.082031 0.23047 0.125 0.49609 0.125 0.79688 0 0.30469-0.042969 0.57422-0.125 0.8125-0.074219 0.23047-0.18359 0.42188-0.32812 0.57812-0.14844 0.16797-0.32422 0.29297-0.53125 0.375-0.19922 0.082031-0.42969 0.125-0.6875 0.125-0.26172 0-0.49609-0.042969-0.70312-0.125-0.21094-0.082031-0.38672-0.20703-0.53125-0.375-0.14844-0.15625-0.26172-0.34766-0.34375-0.57812-0.074219-0.23828-0.10938-0.50781-0.10938-0.8125 0-0.28906 0.035156-0.55078 0.10938-0.78125 0.082031-0.23828 0.19531-0.44141 0.34375-0.60938 0.14453-0.16406 0.32031-0.28906 0.53125-0.375 0.21875-0.082031 0.45312-0.125 0.70312-0.125s0.47656 0.046875 0.6875 0.14062c0.20703 0.085937 0.38281 0.20312 0.53125 0.35938zm-0.046875 1.3906c0-0.46875-0.10547-0.82812-0.3125-1.0781-0.21094-0.25781-0.49609-0.39062-0.85938-0.39062-0.375 0-0.66797 0.13281-0.875 0.39062-0.21094 0.25-0.3125 0.60938-0.3125 1.0781 0 0.48047 0.10156 0.84375 0.3125 1.0938 0.21875 0.25 0.50781 0.375 0.875 0.375 0.35156 0 0.63281-0.125 0.84375-0.375 0.21875-0.25 0.32812-0.61328 0.32812-1.0938z"/>
      </g>
      <g transform="translate(29.289 69.05)">
       <path d="m2.8438-1.375c0 0.21875-0.03125 0.42188-0.09375 0.60938-0.0625 0.17969-0.15234 0.32812-0.26562 0.45312-0.11719 0.13672-0.24219 0.23438-0.375 0.29688-0.13672 0.0625-0.28906 0.09375-0.45312 0.09375-0.15625 0-0.29297-0.023438-0.40625-0.0625-0.11719-0.03125-0.23047-0.078125-0.34375-0.14062l-0.03125 0.125h-0.42188v-3.7812h0.45312v1.3438c0.125-0.10156 0.25781-0.1875 0.40625-0.25 0.14453-0.070313 0.30469-0.10938 0.48438-0.10938 0.32031 0 0.57812 0.125 0.76562 0.375s0.28125 0.60156 0.28125 1.0469zm-0.46875 0c0-0.32031-0.058594-0.56641-0.17188-0.73438-0.10547-0.16406-0.27734-0.25-0.51562-0.25-0.13672 0-0.27344 0.03125-0.40625 0.09375-0.13672 0.054687-0.26172 0.125-0.375 0.21875v1.5625c0.13281 0.054687 0.24219 0.09375 0.32812 0.125 0.09375 0.023437 0.20312 0.03125 0.32812 0.03125 0.25 0 0.44531-0.082031 0.59375-0.25 0.14453-0.16406 0.21875-0.42969 0.21875-0.79688z"/>
      </g>
      <g transform="translate(32.397 69.05)">
       <path d="m2.3906-0.78125c0 0.25-0.10547 0.45312-0.3125 0.60938-0.19922 0.15625-0.47656 0.23438-0.82812 0.23438-0.21094 0-0.39844-0.023438-0.5625-0.0625-0.16797-0.050781-0.30859-0.10156-0.42188-0.15625v-0.51562h0.03125c0.14453 0.10547 0.30469 0.1875 0.48438 0.25 0.17578 0.0625 0.34375 0.09375 0.5 0.09375 0.19531 0 0.35156-0.03125 0.46875-0.09375 0.11328-0.0625 0.17188-0.16016 0.17188-0.29688 0-0.11328-0.03125-0.19531-0.09375-0.25-0.0625-0.050781-0.17969-0.097656-0.34375-0.14062-0.074219-0.007813-0.16406-0.023438-0.26562-0.046875-0.10547-0.019531-0.19922-0.039063-0.28125-0.0625-0.24219-0.0625-0.41406-0.15625-0.51562-0.28125-0.09375-0.125-0.14062-0.27344-0.14062-0.45312 0-0.11328 0.019531-0.21875 0.0625-0.3125 0.050781-0.10156 0.125-0.19141 0.21875-0.26562 0.09375-0.082031 0.20703-0.14453 0.34375-0.1875 0.13281-0.039063 0.28906-0.0625 0.46875-0.0625 0.16406 0 0.33203 0.023437 0.5 0.0625 0.16406 0.03125 0.30078 0.078125 0.40625 0.14062v0.48438h-0.015625c-0.125-0.082031-0.27344-0.14844-0.4375-0.20312-0.16797-0.0625-0.32812-0.09375-0.48438-0.09375-0.16797 0-0.30859 0.03125-0.42188 0.09375-0.11719 0.0625-0.17188 0.15625-0.17188 0.28125 0 0.11719 0.035156 0.19922 0.10938 0.25 0.0625 0.0625 0.17188 0.10938 0.32812 0.14062 0.082031 0.023437 0.17578 0.042969 0.28125 0.0625 0.10156 0.023437 0.19141 0.039062 0.26562 0.046875 0.20703 0.054687 0.36719 0.13672 0.48438 0.25 0.11328 0.125 0.17188 0.28906 0.17188 0.48438z"/>
      </g>
      <g transform="translate(34.99 69.05)"></g>
      <g transform="translate(36.741 69.05)">
       <path d="m2.6406 0h-1.9688v-0.375h0.76562v-2.4219h-0.76562v-0.32812c0.10156 0 0.21094-0.00781 0.32812-0.03125 0.125-0.019531 0.21094-0.046875 0.26562-0.078125 0.070313-0.039063 0.12891-0.09375 0.17188-0.15625 0.050781-0.0625 0.078125-0.14453 0.078125-0.25h0.375v3.2656h0.75z"/>
      </g>
     </g>
     <g clip-path="url(#clip35)">
      <path transform="matrix(.3565 0 0 .3565 -.8065 -.137)" d="m301.01 188.86c0 9.9382-15.066 17.992-33.639 17.992-18.594 0-33.65-8.0536-33.65-17.992 0-9.9272 15.055-17.981 33.65-17.981 18.572 0 33.639 8.0536 33.639 17.981" fill="none" stroke="#000" stroke-width=".99937"/>
     </g>
     <g>
      <g transform="translate(87.252 69.05)">
       <path d="m3.1875-3.2031c0.14453 0.15625 0.25391 0.35547 0.32812 0.59375 0.082031 0.23047 0.125 0.49609 0.125 0.79688 0 0.30469-0.042969 0.57422-0.125 0.8125-0.074219 0.23047-0.18359 0.42188-0.32812 0.57812-0.14844 0.16797-0.32422 0.29297-0.53125 0.375-0.19922 0.082031-0.42969 0.125-0.6875 0.125-0.26172 0-0.49609-0.042969-0.70312-0.125-0.21094-0.082031-0.38672-0.20703-0.53125-0.375-0.14844-0.15625-0.26172-0.34766-0.34375-0.57812-0.074219-0.23828-0.10938-0.50781-0.10938-0.8125 0-0.28906 0.035156-0.55078 0.10938-0.78125 0.082031-0.23828 0.19531-0.44141 0.34375-0.60938 0.14453-0.16406 0.32031-0.28906 0.53125-0.375 0.21875-0.082031 0.45312-0.125 0.70312-0.125s0.47656 0.046875 0.6875 0.14062c0.20703 0.085937 0.38281 0.20312 0.53125 0.35938zm-0.046875 1.3906c0-0.46875-0.10547-0.82812-0.3125-1.0781-0.21094-0.25781-0.49609-0.39062-0.85938-0.39062-0.375 0-0.66797 0.13281-0.875 0.39062-0.21094 0.25-0.3125 0.60938-0.3125 1.0781 0 0.48047 0.10156 0.84375 0.3125 1.0938 0.21875 0.25 0.50781 0.375 0.875 0.375 0.35156 0 0.63281-0.125 0.84375-0.375 0.21875-0.25 0.32812-0.61328 0.32812-1.0938z"/>
      </g>
      <g transform="translate(91.178 69.05)">
       <path d="m2.8438-1.375c0 0.21875-0.03125 0.42188-0.09375 0.60938-0.0625 0.17969-0.15234 0.32812-0.26562 0.45312-0.11719 0.13672-0.24219 0.23438-0.375 0.29688-0.13672 0.0625-0.28906 0.09375-0.45312 0.09375-0.15625 0-0.29297-0.023438-0.40625-0.0625-0.11719-0.03125-0.23047-0.078125-0.34375-0.14062l-0.03125 0.125h-0.42188v-3.7812h0.45312v1.3438c0.125-0.10156 0.25781-0.1875 0.40625-0.25 0.14453-0.070313 0.30469-0.10938 0.48438-0.10938 0.32031 0 0.57812 0.125 0.76562 0.375s0.28125 0.60156 0.28125 1.0469zm-0.46875 0c0-0.32031-0.058594-0.56641-0.17188-0.73438-0.10547-0.16406-0.27734-0.25-0.51562-0.25-0.13672 0-0.27344 0.03125-0.40625 0.09375-0.13672 0.054687-0.26172 0.125-0.375 0.21875v1.5625c0.13281 0.054687 0.24219 0.09375 0.32812 0.125 0.09375 0.023437 0.20312 0.03125 0.32812 0.03125 0.25 0 0.44531-0.082031 0.59375-0.25 0.14453-0.16406 0.21875-0.42969 0.21875-0.79688z"/>
      </g>
      <g transform="translate(94.285 69.05)">
       <path d="m2.3906-0.78125c0 0.25-0.10547 0.45312-0.3125 0.60938-0.19922 0.15625-0.47656 0.23438-0.82812 0.23438-0.21094 0-0.39844-0.023438-0.5625-0.0625-0.16797-0.050781-0.30859-0.10156-0.42188-0.15625v-0.51562h0.03125c0.14453 0.10547 0.30469 0.1875 0.48438 0.25 0.17578 0.0625 0.34375 0.09375 0.5 0.09375 0.19531 0 0.35156-0.03125 0.46875-0.09375 0.11328-0.0625 0.17188-0.16016 0.17188-0.29688 0-0.11328-0.03125-0.19531-0.09375-0.25-0.0625-0.050781-0.17969-0.097656-0.34375-0.14062-0.074219-0.007813-0.16406-0.023438-0.26562-0.046875-0.10547-0.019531-0.19922-0.039063-0.28125-0.0625-0.24219-0.0625-0.41406-0.15625-0.51562-0.28125-0.09375-0.125-0.14062-0.27344-0.14062-0.45312 0-0.11328 0.019531-0.21875 0.0625-0.3125 0.050781-0.10156 0.125-0.19141 0.21875-0.26562 0.09375-0.082031 0.20703-0.14453 0.34375-0.1875 0.13281-0.039063 0.28906-0.0625 0.46875-0.0625 0.16406 0 0.33203 0.023437 0.5 0.0625 0.16406 0.03125 0.30078 0.078125 0.40625 0.14062v0.48438h-0.015625c-0.125-0.082031-0.27344-0.14844-0.4375-0.20312-0.16797-0.0625-0.32812-0.09375-0.48438-0.09375-0.16797 0-0.30859 0.03125-0.42188 0.09375-0.11719 0.0625-0.17188 0.15625-0.17188 0.28125 0 0.11719 0.035156 0.19922 0.10938 0.25 0.0625 0.0625 0.17188 0.10938 0.32812 0.14062 0.082031 0.023437 0.17578 0.042969 0.28125 0.0625 0.10156 0.023437 0.19141 0.039062 0.26562 0.046875 0.20703 0.054687 0.36719 0.13672 0.48438 0.25 0.11328 0.125 0.17188 0.28906 0.17188 0.48438z"/>
      </g>
      <g transform="translate(96.879 69.05)"></g>
      <g transform="translate(98.629 69.05)">
       <path d="m2.8438 0h-2.4531v-0.51562c0.16406-0.14453 0.33203-0.28906 0.5-0.4375 0.17578-0.14453 0.33594-0.28516 0.48438-0.42188 0.3125-0.30078 0.52344-0.53906 0.64062-0.71875 0.11328-0.1875 0.17188-0.37891 0.17188-0.57812 0-0.1875-0.0625-0.33203-0.1875-0.4375-0.11719-0.11328-0.28906-0.17188-0.51562-0.17188-0.14844 0-0.30859 0.027344-0.48438 0.078125-0.16797 0.054687-0.33594 0.13281-0.5 0.23438h-0.015625v-0.5c0.11328-0.0625 0.26562-0.11328 0.45312-0.15625 0.19531-0.050781 0.38281-0.078125 0.5625-0.078125 0.375 0 0.66406 0.09375 0.875 0.28125 0.20703 0.17969 0.3125 0.41797 0.3125 0.71875 0 0.13672-0.015625 0.26562-0.046875 0.39062-0.03125 0.11719-0.085937 0.23047-0.15625 0.34375-0.0625 0.09375-0.13672 0.19531-0.21875 0.29688-0.085937 0.09375-0.1875 0.19922-0.3125 0.3125-0.17969 0.17969-0.35938 0.34375-0.54688 0.5-0.17969 0.15625-0.35156 0.30469-0.51562 0.4375h1.9531z"/>
      </g>
     </g>
     <g clip-path="url(#clip36)">
      <path transform="matrix(.3565 0 0 .3565 -.8065 -.137)" d="m386.96 188.86c0 9.9382-15.066 17.992-33.65 17.992s-33.65-8.0536-33.65-17.992c0-9.9272 15.066-17.981 33.65-17.981s33.65 8.0536 33.65 17.981" fill="none" stroke="#000" stroke-width=".99937"/>
     </g>
     <g>
      <g transform="translate(117.92 69.05)">
       <path d="m3.1875-3.2031c0.14453 0.15625 0.25391 0.35547 0.32812 0.59375 0.082031 0.23047 0.125 0.49609 0.125 0.79688 0 0.30469-0.042969 0.57422-0.125 0.8125-0.074219 0.23047-0.18359 0.42188-0.32812 0.57812-0.14844 0.16797-0.32422 0.29297-0.53125 0.375-0.19922 0.082031-0.42969 0.125-0.6875 0.125-0.26172 0-0.49609-0.042969-0.70312-0.125-0.21094-0.082031-0.38672-0.20703-0.53125-0.375-0.14844-0.15625-0.26172-0.34766-0.34375-0.57812-0.074219-0.23828-0.10938-0.50781-0.10938-0.8125 0-0.28906 0.035156-0.55078 0.10938-0.78125 0.082031-0.23828 0.19531-0.44141 0.34375-0.60938 0.14453-0.16406 0.32031-0.28906 0.53125-0.375 0.21875-0.082031 0.45312-0.125 0.70312-0.125s0.47656 0.046875 0.6875 0.14062c0.20703 0.085937 0.38281 0.20312 0.53125 0.35938zm-0.046875 1.3906c0-0.46875-0.10547-0.82812-0.3125-1.0781-0.21094-0.25781-0.49609-0.39062-0.85938-0.39062-0.375 0-0.66797 0.13281-0.875 0.39062-0.21094 0.25-0.3125 0.60938-0.3125 1.0781 0 0.48047 0.10156 0.84375 0.3125 1.0938 0.21875 0.25 0.50781 0.375 0.875 0.375 0.35156 0 0.63281-0.125 0.84375-0.375 0.21875-0.25 0.32812-0.61328 0.32812-1.0938z"/>
      </g>
      <g transform="translate(121.84 69.05)">
       <path d="m2.8438-1.375c0 0.21875-0.03125 0.42188-0.09375 0.60938-0.0625 0.17969-0.15234 0.32812-0.26562 0.45312-0.11719 0.13672-0.24219 0.23438-0.375 0.29688-0.13672 0.0625-0.28906 0.09375-0.45312 0.09375-0.15625 0-0.29297-0.023438-0.40625-0.0625-0.11719-0.03125-0.23047-0.078125-0.34375-0.14062l-0.03125 0.125h-0.42188v-3.7812h0.45312v1.3438c0.125-0.10156 0.25781-0.1875 0.40625-0.25 0.14453-0.070313 0.30469-0.10938 0.48438-0.10938 0.32031 0 0.57812 0.125 0.76562 0.375s0.28125 0.60156 0.28125 1.0469zm-0.46875 0c0-0.32031-0.058594-0.56641-0.17188-0.73438-0.10547-0.16406-0.27734-0.25-0.51562-0.25-0.13672 0-0.27344 0.03125-0.40625 0.09375-0.13672 0.054687-0.26172 0.125-0.375 0.21875v1.5625c0.13281 0.054687 0.24219 0.09375 0.32812 0.125 0.09375 0.023437 0.20312 0.03125 0.32812 0.03125 0.25 0 0.44531-0.082031 0.59375-0.25 0.14453-0.16406 0.21875-0.42969 0.21875-0.79688z"/>
      </g>
      <g transform="translate(124.95 69.05)">
       <path d="m2.3906-0.78125c0 0.25-0.10547 0.45312-0.3125 0.60938-0.19922 0.15625-0.47656 0.23438-0.82812 0.23438-0.21094 0-0.39844-0.023438-0.5625-0.0625-0.16797-0.050781-0.30859-0.10156-0.42188-0.15625v-0.51562h0.03125c0.14453 0.10547 0.30469 0.1875 0.48438 0.25 0.17578 0.0625 0.34375 0.09375 0.5 0.09375 0.19531 0 0.35156-0.03125 0.46875-0.09375 0.11328-0.0625 0.17188-0.16016 0.17188-0.29688 0-0.11328-0.03125-0.19531-0.09375-0.25-0.0625-0.050781-0.17969-0.097656-0.34375-0.14062-0.074219-0.007813-0.16406-0.023438-0.26562-0.046875-0.10547-0.019531-0.19922-0.039063-0.28125-0.0625-0.24219-0.0625-0.41406-0.15625-0.51562-0.28125-0.09375-0.125-0.14062-0.27344-0.14062-0.45312 0-0.11328 0.019531-0.21875 0.0625-0.3125 0.050781-0.10156 0.125-0.19141 0.21875-0.26562 0.09375-0.082031 0.20703-0.14453 0.34375-0.1875 0.13281-0.039063 0.28906-0.0625 0.46875-0.0625 0.16406 0 0.33203 0.023437 0.5 0.0625 0.16406 0.03125 0.30078 0.078125 0.40625 0.14062v0.48438h-0.015625c-0.125-0.082031-0.27344-0.14844-0.4375-0.20312-0.16797-0.0625-0.32812-0.09375-0.48438-0.09375-0.16797 0-0.30859 0.03125-0.42188 0.09375-0.11719 0.0625-0.17188 0.15625-0.17188 0.28125 0 0.11719 0.035156 0.19922 0.10938 0.25 0.0625 0.0625 0.17188 0.10938 0.32812 0.14062 0.082031 0.023437 0.17578 0.042969 0.28125 0.0625 0.10156 0.023437 0.19141 0.039062 0.26562 0.046875 0.20703 0.054687 0.36719 0.13672 0.48438 0.25 0.11328 0.125 0.17188 0.28906 0.17188 0.48438z"/>
      </g>
      <g transform="translate(127.54 69.05)"></g>
      <g transform="translate(129.29 69.05)">
       <path d="m2.5312-1.75c0.070313 0.074219 0.13281 0.16406 0.1875 0.26562 0.050781 0.10547 0.078125 0.24219 0.078125 0.40625 0 0.16797-0.03125 0.32422-0.09375 0.46875-0.0625 0.13672-0.14844 0.25-0.25 0.34375-0.125 0.11719-0.27344 0.20312-0.4375 0.26562-0.15625 0.050781-0.33594 0.078125-0.53125 0.078125-0.21094 0-0.41406-0.027344-0.60938-0.078125-0.1875-0.039062-0.34375-0.09375-0.46875-0.15625v-0.5h0.03125c0.14453 0.085937 0.30469 0.15625 0.48438 0.21875 0.1875 0.0625 0.36719 0.09375 0.54688 0.09375 0.10156 0 0.21094-0.015625 0.32812-0.046875 0.11328-0.039063 0.20703-0.09375 0.28125-0.15625 0.070313-0.070313 0.125-0.14844 0.15625-0.23438 0.039063-0.082031 0.0625-0.19141 0.0625-0.32812 0-0.125-0.023437-0.22656-0.0625-0.3125-0.042969-0.09375-0.10156-0.16406-0.17188-0.21875-0.074219-0.039063-0.16406-0.070313-0.26562-0.09375-0.10547-0.019531-0.21484-0.03125-0.32812-0.03125h-0.21875v-0.40625h0.15625c0.25 0 0.44531-0.050781 0.59375-0.15625 0.14453-0.10156 0.21875-0.25391 0.21875-0.45312 0-0.082031-0.023437-0.15625-0.0625-0.21875-0.03125-0.070313-0.078125-0.12891-0.14062-0.17188-0.074219-0.039063-0.15234-0.066406-0.23438-0.078125-0.074219-0.019531-0.16406-0.03125-0.26562-0.03125-0.15625 0-0.32422 0.03125-0.5 0.09375-0.16797 0.054687-0.32812 0.125-0.48438 0.21875h-0.015625v-0.5c0.11328-0.0625 0.26562-0.11328 0.45312-0.15625 0.19531-0.050781 0.38281-0.078125 0.5625-0.078125 0.17578 0 0.33203 0.015625 0.46875 0.046875 0.13281 0.03125 0.25391 0.085937 0.35938 0.15625 0.11328 0.085937 0.20312 0.18359 0.26562 0.29688 0.0625 0.10547 0.09375 0.23047 0.09375 0.375 0 0.19922-0.074219 0.375-0.21875 0.53125-0.13672 0.14844-0.30469 0.24219-0.5 0.28125v0.03125c0.082031 0.011719 0.17188 0.039062 0.26562 0.078125 0.10156 0.042969 0.19141 0.09375 0.26562 0.15625z"/>
      </g>
     </g>
     <g clip-path="url(#clip37)">
      <path transform="matrix(.3565 0 0 .3565 -.8065 -.137)" d="m246.41 22.134c0 9.9382-29.541 17.992-65.984 17.992-36.455 0-65.995-8.0536-65.995-17.992 0-9.9272 29.541-17.992 65.995-17.992 36.444 0 65.984 8.0645 65.984 17.992" fill="none" stroke="#000" stroke-width=".99937"/>
     </g>
     <g>
      <g transform="translate(45.449 9.6122)">
       <path d="m3.2812-0.26562c-0.085937 0.042969-0.16406 0.078125-0.23438 0.10938-0.074219 0.03125-0.16797 0.070312-0.28125 0.10938-0.10547 0.03125-0.21484 0.054688-0.32812 0.078125-0.11719 0.019531-0.24609 0.03125-0.39062 0.03125-0.26172 0-0.5-0.039062-0.71875-0.10938-0.21094-0.070313-0.39062-0.1875-0.54688-0.34375s-0.28125-0.35156-0.375-0.59375c-0.085937-0.23828-0.125-0.51562-0.125-0.82812 0-0.28906 0.039063-0.55469 0.125-0.79688 0.082031-0.23828 0.20312-0.4375 0.35938-0.59375s0.34375-0.27344 0.5625-0.35938c0.21875-0.082031 0.46094-0.125 0.73438-0.125 0.1875 0 0.37891 0.027344 0.57812 0.078125 0.19531 0.042969 0.41016 0.12109 0.64062 0.23438v0.57812h-0.03125c-0.19922-0.16406-0.39844-0.28516-0.59375-0.35938-0.19922-0.082031-0.40625-0.125-0.625-0.125-0.1875 0-0.35547 0.03125-0.5 0.09375-0.14844 0.0625-0.27734 0.15625-0.39062 0.28125-0.11719 0.11719-0.20312 0.26562-0.26562 0.45312s-0.09375 0.40234-0.09375 0.64062c0 0.26172 0.03125 0.48438 0.09375 0.67188 0.070313 0.17969 0.16406 0.32422 0.28125 0.4375 0.11328 0.125 0.24219 0.21875 0.39062 0.28125 0.15625 0.054687 0.31641 0.078125 0.48438 0.078125 0.22656 0 0.44141-0.039063 0.64062-0.125 0.20703-0.082031 0.39844-0.20312 0.57812-0.35938h0.03125z"/>
      </g>
      <g transform="translate(48.93 9.6122)">
       <path d="m2.1406-2.2188h-0.015625c-0.074219-0.019531-0.14062-0.03125-0.20312-0.03125-0.0625-0.00781-0.13672-0.015625-0.21875-0.015625-0.14844 0-0.28906 0.03125-0.42188 0.09375-0.125 0.0625-0.25 0.14062-0.375 0.23438v1.9375h-0.45312v-2.7188h0.45312v0.40625c0.1875-0.14453 0.34766-0.25 0.48438-0.3125 0.13281-0.0625 0.27344-0.09375 0.42188-0.09375 0.082031 0 0.14062 0.00781 0.17188 0.015625 0.039063 0 0.09375 0.00781 0.15625 0.015625z"/>
      </g>
      <g transform="translate(51.055 9.6122)">
       <path d="m2.7031 0h-0.45312v-0.29688c-0.15625 0.11719-0.30859 0.21094-0.45312 0.28125-0.13672 0.0625-0.28906 0.09375-0.45312 0.09375-0.29297 0-0.51562-0.085938-0.67188-0.26562-0.15625-0.17578-0.23438-0.42969-0.23438-0.76562v-1.7656h0.45312v1.5469c0 0.13672 0.003906 0.25781 0.015625 0.35938 0.007813 0.09375 0.035156 0.17969 0.078125 0.25 0.050781 0.074219 0.10938 0.125 0.17188 0.15625 0.070313 0.03125 0.17578 0.046875 0.3125 0.046875 0.11328 0 0.23828-0.03125 0.375-0.09375 0.14453-0.0625 0.28125-0.14062 0.40625-0.23438v-2.0312h0.45312z"/>
      </g>
      <g transform="translate(54.207 9.6122)">
       <path d="m2.3906-0.78125c0 0.25-0.10547 0.45312-0.3125 0.60938-0.19922 0.15625-0.47656 0.23438-0.82812 0.23438-0.21094 0-0.39844-0.023438-0.5625-0.0625-0.16797-0.050781-0.30859-0.10156-0.42188-0.15625v-0.51562h0.03125c0.14453 0.10547 0.30469 0.1875 0.48438 0.25 0.17578 0.0625 0.34375 0.09375 0.5 0.09375 0.19531 0 0.35156-0.03125 0.46875-0.09375 0.11328-0.0625 0.17188-0.16016 0.17188-0.29688 0-0.11328-0.03125-0.19531-0.09375-0.25-0.0625-0.050781-0.17969-0.097656-0.34375-0.14062-0.074219-0.007813-0.16406-0.023438-0.26562-0.046875-0.10547-0.019531-0.19922-0.039063-0.28125-0.0625-0.24219-0.0625-0.41406-0.15625-0.51562-0.28125-0.09375-0.125-0.14062-0.27344-0.14062-0.45312 0-0.11328 0.019531-0.21875 0.0625-0.3125 0.050781-0.10156 0.125-0.19141 0.21875-0.26562 0.09375-0.082031 0.20703-0.14453 0.34375-0.1875 0.13281-0.039063 0.28906-0.0625 0.46875-0.0625 0.16406 0 0.33203 0.023437 0.5 0.0625 0.16406 0.03125 0.30078 0.078125 0.40625 0.14062v0.48438h-0.015625c-0.125-0.082031-0.27344-0.14844-0.4375-0.20312-0.16797-0.0625-0.32812-0.09375-0.48438-0.09375-0.16797 0-0.30859 0.03125-0.42188 0.09375-0.11719 0.0625-0.17188 0.15625-0.17188 0.28125 0 0.11719 0.035156 0.19922 0.10938 0.25 0.0625 0.0625 0.17188 0.10938 0.32812 0.14062 0.082031 0.023437 0.17578 0.042969 0.28125 0.0625 0.10156 0.023437 0.19141 0.039062 0.26562 0.046875 0.20703 0.054687 0.36719 0.13672 0.48438 0.25 0.11328 0.125 0.17188 0.28906 0.17188 0.48438z"/>
      </g>
      <g transform="translate(56.801 9.6122)">
       <path d="m2.7188 0h-0.45312v-1.5469c0-0.125-0.011719-0.23828-0.03125-0.34375-0.011719-0.11328-0.039062-0.20312-0.078125-0.26562-0.03125-0.070313-0.089844-0.125-0.17188-0.15625-0.074219-0.03125-0.17188-0.046875-0.29688-0.046875s-0.25781 0.03125-0.39062 0.09375c-0.13672 0.0625-0.26562 0.14062-0.39062 0.23438v2.0312h-0.45312v-3.7812h0.45312v1.3594c0.14453-0.11328 0.28906-0.20312 0.4375-0.26562 0.15625-0.070313 0.31641-0.10938 0.48438-0.10938 0.28906 0 0.50781 0.089844 0.65625 0.26562 0.15625 0.17969 0.23438 0.43359 0.23438 0.76562z"/>
      </g>
      <g transform="translate(59.953 9.6122)">
       <path d="m2.7188-1.3125h-2c0 0.16797 0.023438 0.3125 0.078125 0.4375 0.050781 0.125 0.11719 0.23047 0.20312 0.3125 0.082031 0.074219 0.17969 0.13281 0.29688 0.17188 0.125 0.042969 0.25391 0.0625 0.39062 0.0625 0.1875 0 0.375-0.035156 0.5625-0.10938 0.1875-0.082031 0.31641-0.16016 0.39062-0.23438h0.03125v0.5c-0.15625 0.074219-0.32031 0.13281-0.48438 0.17188-0.15625 0.039062-0.32422 0.0625-0.5 0.0625-0.44922 0-0.79688-0.11719-1.0469-0.35938-0.25-0.25-0.375-0.59766-0.375-1.0469 0-0.44531 0.11719-0.80078 0.35938-1.0625 0.23828-0.25781 0.55469-0.39062 0.95312-0.39062 0.36328 0 0.64453 0.10938 0.84375 0.32812 0.19531 0.21094 0.29688 0.51172 0.29688 0.90625zm-0.4375-0.34375c0-0.23828-0.0625-0.42578-0.1875-0.5625-0.11719-0.13281-0.29297-0.20312-0.53125-0.20312-0.25 0-0.44922 0.074219-0.59375 0.21875-0.14844 0.14844-0.23047 0.32812-0.25 0.54688z"/>
      </g>
      <g transform="translate(62.921 9.6122)">
       <path d="m2.6562 0h-0.45312v-0.28125c-0.13672 0.11719-0.27734 0.20312-0.42188 0.26562-0.13672 0.0625-0.28906 0.09375-0.45312 0.09375-0.33594 0-0.59375-0.125-0.78125-0.375s-0.28125-0.59766-0.28125-1.0469c0-0.22656 0.03125-0.42969 0.09375-0.60938 0.0625-0.17578 0.14844-0.33203 0.26562-0.46875 0.11328-0.11328 0.24219-0.20312 0.39062-0.26562 0.14453-0.070313 0.29688-0.10938 0.45312-0.10938 0.14453 0 0.26953 0.015625 0.375 0.046875 0.11328 0.03125 0.23438 0.078125 0.35938 0.14062v-1.1719h0.45312zm-0.45312-0.67188v-1.5625c-0.125-0.050781-0.24219-0.085938-0.34375-0.10938-0.09375-0.019531-0.19922-0.03125-0.3125-0.03125-0.26172 0-0.46484 0.089844-0.60938 0.26562-0.13672 0.17969-0.20312 0.43359-0.20312 0.76562 0 0.32422 0.050781 0.57031 0.15625 0.73438 0.11328 0.16797 0.29688 0.25 0.54688 0.25 0.125 0 0.25391-0.023438 0.39062-0.078125 0.13281-0.0625 0.25781-0.14062 0.375-0.23438z"/>
      </g>
      <g transform="translate(66.029 9.6122)"></g>
      <g transform="translate(67.779 9.6122)">
       <path d="m2.3906-0.78125c0 0.25-0.10547 0.45312-0.3125 0.60938-0.19922 0.15625-0.47656 0.23438-0.82812 0.23438-0.21094 0-0.39844-0.023438-0.5625-0.0625-0.16797-0.050781-0.30859-0.10156-0.42188-0.15625v-0.51562h0.03125c0.14453 0.10547 0.30469 0.1875 0.48438 0.25 0.17578 0.0625 0.34375 0.09375 0.5 0.09375 0.19531 0 0.35156-0.03125 0.46875-0.09375 0.11328-0.0625 0.17188-0.16016 0.17188-0.29688 0-0.11328-0.03125-0.19531-0.09375-0.25-0.0625-0.050781-0.17969-0.097656-0.34375-0.14062-0.074219-0.007813-0.16406-0.023438-0.26562-0.046875-0.10547-0.019531-0.19922-0.039063-0.28125-0.0625-0.24219-0.0625-0.41406-0.15625-0.51562-0.28125-0.09375-0.125-0.14062-0.27344-0.14062-0.45312 0-0.11328 0.019531-0.21875 0.0625-0.3125 0.050781-0.10156 0.125-0.19141 0.21875-0.26562 0.09375-0.082031 0.20703-0.14453 0.34375-0.1875 0.13281-0.039063 0.28906-0.0625 0.46875-0.0625 0.16406 0 0.33203 0.023437 0.5 0.0625 0.16406 0.03125 0.30078 0.078125 0.40625 0.14062v0.48438h-0.015625c-0.125-0.082031-0.27344-0.14844-0.4375-0.20312-0.16797-0.0625-0.32812-0.09375-0.48438-0.09375-0.16797 0-0.30859 0.03125-0.42188 0.09375-0.11719 0.0625-0.17188 0.15625-0.17188 0.28125 0 0.11719 0.035156 0.19922 0.10938 0.25 0.0625 0.0625 0.17188 0.10938 0.32812 0.14062 0.082031 0.023437 0.17578 0.042969 0.28125 0.0625 0.10156 0.023437 0.19141 0.039062 0.26562 0.046875 0.20703 0.054687 0.36719 0.13672 0.48438 0.25 0.11328 0.125 0.17188 0.28906 0.17188 0.48438z"/>
      </g>
      <g transform="translate(70.388 9.6122)">
       <path d="m1.8594-0.03125c-0.085937 0.03125-0.17969 0.050781-0.28125 0.0625-0.10547 0.0078125-0.19531 0.015625-0.26562 0.015625-0.28125 0-0.49609-0.070312-0.64062-0.21875-0.14844-0.14453-0.21875-0.38281-0.21875-0.71875v-1.4375h-0.29688v-0.39062h0.29688v-0.78125h0.46875v0.78125h0.9375v0.39062h-0.9375v1.2344 0.34375c0.007813 0.074219 0.035156 0.14844 0.078125 0.21875 0.03125 0.0625 0.078125 0.10938 0.14062 0.14062s0.15625 0.046875 0.28125 0.046875c0.082031 0 0.16016-0.007813 0.23438-0.03125 0.082031-0.019531 0.14453-0.039063 0.1875-0.0625h0.015625z"/>
      </g>
      <g transform="translate(72.353 9.6122)">
       <path d="m2.7656-1.3594c0 0.44922-0.11719 0.80469-0.34375 1.0625-0.23047 0.25-0.53125 0.375-0.90625 0.375-0.38672 0-0.69531-0.125-0.92188-0.375-0.21875-0.25781-0.32812-0.61328-0.32812-1.0625 0-0.4375 0.10938-0.78516 0.32812-1.0469 0.22656-0.25781 0.53516-0.39062 0.92188-0.39062 0.375 0 0.67578 0.13281 0.90625 0.39062 0.22656 0.26172 0.34375 0.60938 0.34375 1.0469zm-0.46875 0c0-0.35156-0.074219-0.61328-0.21875-0.78125-0.13672-0.17578-0.32422-0.26562-0.5625-0.26562-0.25 0-0.44531 0.089844-0.57812 0.26562-0.13672 0.16797-0.20312 0.42969-0.20312 0.78125 0 0.34375 0.066406 0.60547 0.20312 0.78125 0.13281 0.17969 0.32812 0.26562 0.57812 0.26562 0.23828 0 0.42578-0.085938 0.5625-0.26562 0.14453-0.17578 0.21875-0.4375 0.21875-0.78125z"/>
      </g>
      <g transform="translate(75.376 9.6122)">
       <path d="m2.7188 0h-0.45312v-1.5469c0-0.125-0.011719-0.23828-0.03125-0.34375-0.011719-0.11328-0.039062-0.20312-0.078125-0.26562-0.03125-0.070313-0.089844-0.125-0.17188-0.15625-0.074219-0.03125-0.17188-0.046875-0.29688-0.046875s-0.25781 0.03125-0.39062 0.09375c-0.13672 0.0625-0.26562 0.14062-0.39062 0.23438v2.0312h-0.45312v-2.7188h0.45312v0.29688c0.14453-0.11328 0.28906-0.20312 0.4375-0.26562 0.15625-0.070313 0.31641-0.10938 0.48438-0.10938 0.28906 0 0.50781 0.089844 0.65625 0.26562 0.15625 0.17969 0.23438 0.43359 0.23438 0.76562z"/>
      </g>
      <g transform="translate(78.528 9.6122)">
       <path d="m2.7188-1.3125h-2c0 0.16797 0.023438 0.3125 0.078125 0.4375 0.050781 0.125 0.11719 0.23047 0.20312 0.3125 0.082031 0.074219 0.17969 0.13281 0.29688 0.17188 0.125 0.042969 0.25391 0.0625 0.39062 0.0625 0.1875 0 0.375-0.035156 0.5625-0.10938 0.1875-0.082031 0.31641-0.16016 0.39062-0.23438h0.03125v0.5c-0.15625 0.074219-0.32031 0.13281-0.48438 0.17188-0.15625 0.039062-0.32422 0.0625-0.5 0.0625-0.44922 0-0.79688-0.11719-1.0469-0.35938-0.25-0.25-0.375-0.59766-0.375-1.0469 0-0.44531 0.11719-0.80078 0.35938-1.0625 0.23828-0.25781 0.55469-0.39062 0.95312-0.39062 0.36328 0 0.64453 0.10938 0.84375 0.32812 0.19531 0.21094 0.29688 0.51172 0.29688 0.90625zm-0.4375-0.34375c0-0.23828-0.0625-0.42578-0.1875-0.5625-0.11719-0.13281-0.29297-0.20312-0.53125-0.20312-0.25 0-0.44922 0.074219-0.59375 0.21875-0.14844 0.14844-0.23047 0.32812-0.25 0.54688z"/>
      </g>
     </g>
     <g clip-path="url(#clip40)">
      <path transform="matrix(.3565 0 0 .3565 -.8065 -.137)" d="m229.83 6.8271c18.89-0.62456 34.559 4.4705 34.559 15.307 0 10.837-15.669 15.943-34.559 15.318" fill="none" stroke="#f00" stroke-width=".99937"/>
     </g>
     <path d="m81.18 3.543-3.6562-0.94531 3.4453-1.5391z" fill="#f00"/>
     <g clip-path="url(#clip41)">
      <path transform="matrix(.3565 0 0 .3565 -.8065 -.137)" d="m229.98 10.322-10.256-2.6516 9.6643-4.3171z" fill="none" stroke="#f00" stroke-width=".99937"/>
     </g>
     <path transform="matrix(.3565 0 0 .3565 -.8065 -.137)" d="m229.38 40.926-9.6643-4.3281 10.256-2.6407z" fill="#f00" stroke="#f00" stroke-width=".99937"/>
     <path transform="matrix(.3565 0 0 .3565 -.8065 -.137)" d="m163.8 105.5c0 16.195-31.491 29.322-70.323 29.322-38.843 0-70.334-13.127-70.334-29.322 0-16.184 31.491-29.311 70.334-29.311 38.832 0 70.323 13.127 70.323 29.311" fill="none" stroke="#000" stroke-width=".99937"/>
     <g>
      <g transform="translate(14.453 36.338)">
       <path d="m3.2812-0.26562c-0.085937 0.042969-0.16406 0.078125-0.23438 0.10938-0.074219 0.03125-0.16797 0.070312-0.28125 0.10938-0.10547 0.03125-0.21484 0.054688-0.32812 0.078125-0.11719 0.019531-0.24609 0.03125-0.39062 0.03125-0.26172 0-0.5-0.039062-0.71875-0.10938-0.21094-0.070313-0.39062-0.1875-0.54688-0.34375s-0.28125-0.35156-0.375-0.59375c-0.085937-0.23828-0.125-0.51562-0.125-0.82812 0-0.28906 0.039063-0.55469 0.125-0.79688 0.082031-0.23828 0.20312-0.4375 0.35938-0.59375s0.34375-0.27344 0.5625-0.35938c0.21875-0.082031 0.46094-0.125 0.73438-0.125 0.1875 0 0.37891 0.027344 0.57812 0.078125 0.19531 0.042969 0.41016 0.12109 0.64062 0.23438v0.57812h-0.03125c-0.19922-0.16406-0.39844-0.28516-0.59375-0.35938-0.19922-0.082031-0.40625-0.125-0.625-0.125-0.1875 0-0.35547 0.03125-0.5 0.09375-0.14844 0.0625-0.27734 0.15625-0.39062 0.28125-0.11719 0.11719-0.20312 0.26562-0.26562 0.45312s-0.09375 0.40234-0.09375 0.64062c0 0.26172 0.03125 0.48438 0.09375 0.67188 0.070313 0.17969 0.16406 0.32422 0.28125 0.4375 0.11328 0.125 0.24219 0.21875 0.39062 0.28125 0.15625 0.054687 0.31641 0.078125 0.48438 0.078125 0.22656 0 0.44141-0.039063 0.64062-0.125 0.20703-0.082031 0.39844-0.20312 0.57812-0.35938h0.03125z"/>
      </g>
      <g transform="translate(17.934 36.338)">
       <path d="m2.1406-2.2188h-0.015625c-0.074219-0.019531-0.14062-0.03125-0.20312-0.03125-0.0625-0.00781-0.13672-0.015625-0.21875-0.015625-0.14844 0-0.28906 0.03125-0.42188 0.09375-0.125 0.0625-0.25 0.14062-0.375 0.23438v1.9375h-0.45312v-2.7188h0.45312v0.40625c0.1875-0.14453 0.34766-0.25 0.48438-0.3125 0.13281-0.0625 0.27344-0.09375 0.42188-0.09375 0.082031 0 0.14062 0.00781 0.17188 0.015625 0.039063 0 0.09375 0.00781 0.15625 0.015625z"/>
      </g>
      <g transform="translate(20.059 36.338)">
       <path d="m2.7031 0h-0.45312v-0.29688c-0.15625 0.11719-0.30859 0.21094-0.45312 0.28125-0.13672 0.0625-0.28906 0.09375-0.45312 0.09375-0.29297 0-0.51562-0.085938-0.67188-0.26562-0.15625-0.17578-0.23438-0.42969-0.23438-0.76562v-1.7656h0.45312v1.5469c0 0.13672 0.003906 0.25781 0.015625 0.35938 0.007813 0.09375 0.035156 0.17969 0.078125 0.25 0.050781 0.074219 0.10938 0.125 0.17188 0.15625 0.070313 0.03125 0.17578 0.046875 0.3125 0.046875 0.11328 0 0.23828-0.03125 0.375-0.09375 0.14453-0.0625 0.28125-0.14062 0.40625-0.23438v-2.0312h0.45312z"/>
      </g>
      <g transform="translate(23.212 36.338)">
       <path d="m2.3906-0.78125c0 0.25-0.10547 0.45312-0.3125 0.60938-0.19922 0.15625-0.47656 0.23438-0.82812 0.23438-0.21094 0-0.39844-0.023438-0.5625-0.0625-0.16797-0.050781-0.30859-0.10156-0.42188-0.15625v-0.51562h0.03125c0.14453 0.10547 0.30469 0.1875 0.48438 0.25 0.17578 0.0625 0.34375 0.09375 0.5 0.09375 0.19531 0 0.35156-0.03125 0.46875-0.09375 0.11328-0.0625 0.17188-0.16016 0.17188-0.29688 0-0.11328-0.03125-0.19531-0.09375-0.25-0.0625-0.050781-0.17969-0.097656-0.34375-0.14062-0.074219-0.007813-0.16406-0.023438-0.26562-0.046875-0.10547-0.019531-0.19922-0.039063-0.28125-0.0625-0.24219-0.0625-0.41406-0.15625-0.51562-0.28125-0.09375-0.125-0.14062-0.27344-0.14062-0.45312 0-0.11328 0.019531-0.21875 0.0625-0.3125 0.050781-0.10156 0.125-0.19141 0.21875-0.26562 0.09375-0.082031 0.20703-0.14453 0.34375-0.1875 0.13281-0.039063 0.28906-0.0625 0.46875-0.0625 0.16406 0 0.33203 0.023437 0.5 0.0625 0.16406 0.03125 0.30078 0.078125 0.40625 0.14062v0.48438h-0.015625c-0.125-0.082031-0.27344-0.14844-0.4375-0.20312-0.16797-0.0625-0.32812-0.09375-0.48438-0.09375-0.16797 0-0.30859 0.03125-0.42188 0.09375-0.11719 0.0625-0.17188 0.15625-0.17188 0.28125 0 0.11719 0.035156 0.19922 0.10938 0.25 0.0625 0.0625 0.17188 0.10938 0.32812 0.14062 0.082031 0.023437 0.17578 0.042969 0.28125 0.0625 0.10156 0.023437 0.19141 0.039062 0.26562 0.046875 0.20703 0.054687 0.36719 0.13672 0.48438 0.25 0.11328 0.125 0.17188 0.28906 0.17188 0.48438z"/>
      </g>
      <g transform="translate(25.805 36.338)">
       <path d="m2.7188 0h-0.45312v-1.5469c0-0.125-0.011719-0.23828-0.03125-0.34375-0.011719-0.11328-0.039062-0.20312-0.078125-0.26562-0.03125-0.070313-0.089844-0.125-0.17188-0.15625-0.074219-0.03125-0.17188-0.046875-0.29688-0.046875s-0.25781 0.03125-0.39062 0.09375c-0.13672 0.0625-0.26562 0.14062-0.39062 0.23438v2.0312h-0.45312v-3.7812h0.45312v1.3594c0.14453-0.11328 0.28906-0.20312 0.4375-0.26562 0.15625-0.070313 0.31641-0.10938 0.48438-0.10938 0.28906 0 0.50781 0.089844 0.65625 0.26562 0.15625 0.17969 0.23438 0.43359 0.23438 0.76562z"/>
      </g>
      <g transform="translate(28.958 36.338)">
       <path d="m2.7188-1.3125h-2c0 0.16797 0.023438 0.3125 0.078125 0.4375 0.050781 0.125 0.11719 0.23047 0.20312 0.3125 0.082031 0.074219 0.17969 0.13281 0.29688 0.17188 0.125 0.042969 0.25391 0.0625 0.39062 0.0625 0.1875 0 0.375-0.035156 0.5625-0.10938 0.1875-0.082031 0.31641-0.16016 0.39062-0.23438h0.03125v0.5c-0.15625 0.074219-0.32031 0.13281-0.48438 0.17188-0.15625 0.039062-0.32422 0.0625-0.5 0.0625-0.44922 0-0.79688-0.11719-1.0469-0.35938-0.25-0.25-0.375-0.59766-0.375-1.0469 0-0.44531 0.11719-0.80078 0.35938-1.0625 0.23828-0.25781 0.55469-0.39062 0.95312-0.39062 0.36328 0 0.64453 0.10938 0.84375 0.32812 0.19531 0.21094 0.29688 0.51172 0.29688 0.90625zm-0.4375-0.34375c0-0.23828-0.0625-0.42578-0.1875-0.5625-0.11719-0.13281-0.29297-0.20312-0.53125-0.20312-0.25 0-0.44922 0.074219-0.59375 0.21875-0.14844 0.14844-0.23047 0.32812-0.25 0.54688z"/>
      </g>
      <g transform="translate(31.925 36.338)">
       <path d="m2.6562 0h-0.45312v-0.28125c-0.13672 0.11719-0.27734 0.20312-0.42188 0.26562-0.13672 0.0625-0.28906 0.09375-0.45312 0.09375-0.33594 0-0.59375-0.125-0.78125-0.375s-0.28125-0.59766-0.28125-1.0469c0-0.22656 0.03125-0.42969 0.09375-0.60938 0.0625-0.17578 0.14844-0.33203 0.26562-0.46875 0.11328-0.11328 0.24219-0.20312 0.39062-0.26562 0.14453-0.070313 0.29688-0.10938 0.45312-0.10938 0.14453 0 0.26953 0.015625 0.375 0.046875 0.11328 0.03125 0.23438 0.078125 0.35938 0.14062v-1.1719h0.45312zm-0.45312-0.67188v-1.5625c-0.125-0.050781-0.24219-0.085938-0.34375-0.10938-0.09375-0.019531-0.19922-0.03125-0.3125-0.03125-0.26172 0-0.46484 0.089844-0.60938 0.26562-0.13672 0.17969-0.20312 0.43359-0.20312 0.76562 0 0.32422 0.050781 0.57031 0.15625 0.73438 0.11328 0.16797 0.29688 0.25 0.54688 0.25 0.125 0 0.25391-0.023438 0.39062-0.078125 0.13281-0.0625 0.25781-0.14062 0.375-0.23438z"/>
      </g>
      <g transform="translate(35.033 36.338)"></g>
      <g transform="translate(36.784 36.338)">
       <path d="m2.3906-0.78125c0 0.25-0.10547 0.45312-0.3125 0.60938-0.19922 0.15625-0.47656 0.23438-0.82812 0.23438-0.21094 0-0.39844-0.023438-0.5625-0.0625-0.16797-0.050781-0.30859-0.10156-0.42188-0.15625v-0.51562h0.03125c0.14453 0.10547 0.30469 0.1875 0.48438 0.25 0.17578 0.0625 0.34375 0.09375 0.5 0.09375 0.19531 0 0.35156-0.03125 0.46875-0.09375 0.11328-0.0625 0.17188-0.16016 0.17188-0.29688 0-0.11328-0.03125-0.19531-0.09375-0.25-0.0625-0.050781-0.17969-0.097656-0.34375-0.14062-0.074219-0.007813-0.16406-0.023438-0.26562-0.046875-0.10547-0.019531-0.19922-0.039063-0.28125-0.0625-0.24219-0.0625-0.41406-0.15625-0.51562-0.28125-0.09375-0.125-0.14062-0.27344-0.14062-0.45312 0-0.11328 0.019531-0.21875 0.0625-0.3125 0.050781-0.10156 0.125-0.19141 0.21875-0.26562 0.09375-0.082031 0.20703-0.14453 0.34375-0.1875 0.13281-0.039063 0.28906-0.0625 0.46875-0.0625 0.16406 0 0.33203 0.023437 0.5 0.0625 0.16406 0.03125 0.30078 0.078125 0.40625 0.14062v0.48438h-0.015625c-0.125-0.082031-0.27344-0.14844-0.4375-0.20312-0.16797-0.0625-0.32812-0.09375-0.48438-0.09375-0.16797 0-0.30859 0.03125-0.42188 0.09375-0.11719 0.0625-0.17188 0.15625-0.17188 0.28125 0 0.11719 0.035156 0.19922 0.10938 0.25 0.0625 0.0625 0.17188 0.10938 0.32812 0.14062 0.082031 0.023437 0.17578 0.042969 0.28125 0.0625 0.10156 0.023437 0.19141 0.039062 0.26562 0.046875 0.20703 0.054687 0.36719 0.13672 0.48438 0.25 0.11328 0.125 0.17188 0.28906 0.17188 0.48438z"/>
      </g>
      <g transform="translate(39.392 36.338)">
       <path d="m1.8594-0.03125c-0.085937 0.03125-0.17969 0.050781-0.28125 0.0625-0.10547 0.0078125-0.19531 0.015625-0.26562 0.015625-0.28125 0-0.49609-0.070312-0.64062-0.21875-0.14844-0.14453-0.21875-0.38281-0.21875-0.71875v-1.4375h-0.29688v-0.39062h0.29688v-0.78125h0.46875v0.78125h0.9375v0.39062h-0.9375v1.2344 0.34375c0.007813 0.074219 0.035156 0.14844 0.078125 0.21875 0.03125 0.0625 0.078125 0.10938 0.14062 0.14062s0.15625 0.046875 0.28125 0.046875c0.082031 0 0.16016-0.007813 0.23438-0.03125 0.082031-0.019531 0.14453-0.039063 0.1875-0.0625h0.015625z"/>
      </g>
      <g transform="translate(41.357 36.338)">
       <path d="m2.7656-1.3594c0 0.44922-0.11719 0.80469-0.34375 1.0625-0.23047 0.25-0.53125 0.375-0.90625 0.375-0.38672 0-0.69531-0.125-0.92188-0.375-0.21875-0.25781-0.32812-0.61328-0.32812-1.0625 0-0.4375 0.10938-0.78516 0.32812-1.0469 0.22656-0.25781 0.53516-0.39062 0.92188-0.39062 0.375 0 0.67578 0.13281 0.90625 0.39062 0.22656 0.26172 0.34375 0.60938 0.34375 1.0469zm-0.46875 0c0-0.35156-0.074219-0.61328-0.21875-0.78125-0.13672-0.17578-0.32422-0.26562-0.5625-0.26562-0.25 0-0.44531 0.089844-0.57812 0.26562-0.13672 0.16797-0.20312 0.42969-0.20312 0.78125 0 0.34375 0.066406 0.60547 0.20312 0.78125 0.13281 0.17969 0.32812 0.26562 0.57812 0.26562 0.23828 0 0.42578-0.085938 0.5625-0.26562 0.14453-0.17578 0.21875-0.4375 0.21875-0.78125z"/>
      </g>
      <g transform="translate(44.38 36.338)">
       <path d="m2.7188 0h-0.45312v-1.5469c0-0.125-0.011719-0.23828-0.03125-0.34375-0.011719-0.11328-0.039062-0.20312-0.078125-0.26562-0.03125-0.070313-0.089844-0.125-0.17188-0.15625-0.074219-0.03125-0.17188-0.046875-0.29688-0.046875s-0.25781 0.03125-0.39062 0.09375c-0.13672 0.0625-0.26562 0.14062-0.39062 0.23438v2.0312h-0.45312v-2.7188h0.45312v0.29688c0.14453-0.11328 0.28906-0.20312 0.4375-0.26562 0.15625-0.070313 0.31641-0.10938 0.48438-0.10938 0.28906 0 0.50781 0.089844 0.65625 0.26562 0.15625 0.17969 0.23438 0.43359 0.23438 0.76562z"/>
      </g>
      <g transform="translate(47.532 36.338)">
       <path d="m2.7188-1.3125h-2c0 0.16797 0.023438 0.3125 0.078125 0.4375 0.050781 0.125 0.11719 0.23047 0.20312 0.3125 0.082031 0.074219 0.17969 0.13281 0.29688 0.17188 0.125 0.042969 0.25391 0.0625 0.39062 0.0625 0.1875 0 0.375-0.035156 0.5625-0.10938 0.1875-0.082031 0.31641-0.16016 0.39062-0.23438h0.03125v0.5c-0.15625 0.074219-0.32031 0.13281-0.48438 0.17188-0.15625 0.039062-0.32422 0.0625-0.5 0.0625-0.44922 0-0.79688-0.11719-1.0469-0.35938-0.25-0.25-0.375-0.59766-0.375-1.0469 0-0.44531 0.11719-0.80078 0.35938-1.0625 0.23828-0.25781 0.55469-0.39062 0.95312-0.39062 0.36328 0 0.64453 0.10938 0.84375 0.32812 0.19531 0.21094 0.29688 0.51172 0.29688 0.90625zm-0.4375-0.34375c0-0.23828-0.0625-0.42578-0.1875-0.5625-0.11719-0.13281-0.29297-0.20312-0.53125-0.20312-0.25 0-0.44922 0.074219-0.59375 0.21875-0.14844 0.14844-0.23047 0.32812-0.25 0.54688z"/>
      </g>
      <g transform="translate(16.421 42.324)">
       <path d="m0.9375-3.1719h-0.51562v-0.46875h0.51562zm-0.03125 3.1719h-0.45312v-2.7188h0.45312z"/>
      </g>
      <g transform="translate(17.787 42.324)">
       <path d="m2.7188 0h-0.45312v-1.5469c0-0.125-0.011719-0.23828-0.03125-0.34375-0.011719-0.11328-0.039062-0.20312-0.078125-0.26562-0.03125-0.070313-0.089844-0.125-0.17188-0.15625-0.074219-0.03125-0.17188-0.046875-0.29688-0.046875s-0.25781 0.03125-0.39062 0.09375c-0.13672 0.0625-0.26562 0.14062-0.39062 0.23438v2.0312h-0.45312v-2.7188h0.45312v0.29688c0.14453-0.11328 0.28906-0.20312 0.4375-0.26562 0.15625-0.070313 0.31641-0.10938 0.48438-0.10938 0.28906 0 0.50781 0.089844 0.65625 0.26562 0.15625 0.17969 0.23438 0.43359 0.23438 0.76562z"/>
      </g>
      <g transform="translate(20.94 42.324)"></g>
      <g transform="translate(22.691 42.324)">
       <path d="m2.8594-2.5312c0 0.16797-0.03125 0.32031-0.09375 0.45312-0.054687 0.13672-0.13281 0.25781-0.23438 0.35938-0.125 0.125-0.27344 0.21875-0.4375 0.28125-0.16797 0.0625-0.38281 0.09375-0.64062 0.09375h-0.48438v1.3438h-0.48438v-3.625h0.98438c0.21875 0 0.39844 0.023437 0.54688 0.0625 0.15625 0.03125 0.28906 0.089844 0.40625 0.17188 0.13281 0.085937 0.23828 0.19922 0.3125 0.34375 0.082031 0.13672 0.125 0.30859 0.125 0.51562zm-0.5 0.015625c0-0.125-0.027344-0.23438-0.078125-0.32812-0.042969-0.09375-0.10547-0.16406-0.1875-0.21875-0.085937-0.050781-0.17969-0.085938-0.28125-0.10938-0.09375-0.019531-0.21484-0.03125-0.35938-0.03125h-0.48438v1.4375h0.40625c0.19531 0 0.35156-0.015625 0.46875-0.046875 0.125-0.03125 0.22266-0.085938 0.29688-0.17188 0.082031-0.070313 0.14062-0.14844 0.17188-0.23438 0.03125-0.09375 0.046875-0.19141 0.046875-0.29688z"/>
      </g>
      <g transform="translate(25.698 42.324)">
       <path d="m3.4844 0h-0.625l-1.2188-1.4375h-0.67188v1.4375h-0.48438v-3.625h1.0156c0.21875 0 0.39844 0.015625 0.54688 0.046875 0.14453 0.03125 0.27344 0.085937 0.39062 0.15625 0.13281 0.074219 0.23828 0.17969 0.3125 0.3125 0.070313 0.125 0.10938 0.28125 0.10938 0.46875 0 0.26172-0.070312 0.48047-0.20312 0.65625-0.125 0.17969-0.30469 0.3125-0.53125 0.40625zm-1.125-2.6094c0-0.10156-0.023437-0.19141-0.0625-0.26562-0.03125-0.082031-0.089844-0.14844-0.17188-0.20312-0.074219-0.050781-0.15625-0.082031-0.25-0.09375-0.09375-0.019531-0.21094-0.03125-0.34375-0.03125h-0.5625v1.3594h0.48438c0.15625 0 0.28906-0.00781 0.40625-0.03125 0.11328-0.03125 0.20703-0.082031 0.28125-0.15625 0.070313-0.070313 0.125-0.14844 0.15625-0.23438 0.039063-0.09375 0.0625-0.20703 0.0625-0.34375z"/>
      </g>
      <g transform="translate(29.165 42.324)">
       <path d="m3.1875-3.2031c0.14453 0.15625 0.25391 0.35547 0.32812 0.59375 0.082031 0.23047 0.125 0.49609 0.125 0.79688 0 0.30469-0.042969 0.57422-0.125 0.8125-0.074219 0.23047-0.18359 0.42188-0.32812 0.57812-0.14844 0.16797-0.32422 0.29297-0.53125 0.375-0.19922 0.082031-0.42969 0.125-0.6875 0.125-0.26172 0-0.49609-0.042969-0.70312-0.125-0.21094-0.082031-0.38672-0.20703-0.53125-0.375-0.14844-0.15625-0.26172-0.34766-0.34375-0.57812-0.074219-0.23828-0.10938-0.50781-0.10938-0.8125 0-0.28906 0.035156-0.55078 0.10938-0.78125 0.082031-0.23828 0.19531-0.44141 0.34375-0.60938 0.14453-0.16406 0.32031-0.28906 0.53125-0.375 0.21875-0.082031 0.45312-0.125 0.70312-0.125s0.47656 0.046875 0.6875 0.14062c0.20703 0.085937 0.38281 0.20312 0.53125 0.35938zm-0.046875 1.3906c0-0.46875-0.10547-0.82812-0.3125-1.0781-0.21094-0.25781-0.49609-0.39062-0.85938-0.39062-0.375 0-0.66797 0.13281-0.875 0.39062-0.21094 0.25-0.3125 0.60938-0.3125 1.0781 0 0.48047 0.10156 0.84375 0.3125 1.0938 0.21875 0.25 0.50781 0.375 0.875 0.375 0.35156 0 0.63281-0.125 0.84375-0.375 0.21875-0.25 0.32812-0.61328 0.32812-1.0938z"/>
      </g>
      <g transform="translate(33.09 42.324)">
       <path d="m3.5469-1.8125c0 0.33594-0.074219 0.63672-0.21875 0.90625-0.13672 0.26172-0.32422 0.46484-0.5625 0.60938-0.16797 0.10547-0.35547 0.18359-0.5625 0.23438-0.19922 0.042969-0.46484 0.0625-0.79688 0.0625h-0.92188v-3.625h0.90625c0.35156 0 0.63281 0.027344 0.84375 0.078125 0.20703 0.054687 0.38281 0.12109 0.53125 0.20312 0.25 0.15625 0.44141 0.36719 0.57812 0.625 0.13281 0.25 0.20312 0.55469 0.20312 0.90625zm-0.5 0c0-0.28125-0.054687-0.51953-0.15625-0.71875-0.09375-0.19531-0.24219-0.35156-0.4375-0.46875-0.14844-0.070313-0.30469-0.125-0.46875-0.15625-0.15625-0.03125-0.34375-0.046875-0.5625-0.046875h-0.45312v2.7969h0.45312c0.22656 0 0.42578-0.015625 0.59375-0.046875 0.17578-0.039063 0.33594-0.10938 0.48438-0.20312 0.1875-0.11328 0.32031-0.26562 0.40625-0.45312 0.09375-0.1875 0.14062-0.42188 0.14062-0.70312z"/>
      </g>
      <g transform="translate(36.931 42.324)">
       <path d="m3.2812-0.26562c-0.085937 0.042969-0.16406 0.078125-0.23438 0.10938-0.074219 0.03125-0.16797 0.070312-0.28125 0.10938-0.10547 0.03125-0.21484 0.054688-0.32812 0.078125-0.11719 0.019531-0.24609 0.03125-0.39062 0.03125-0.26172 0-0.5-0.039062-0.71875-0.10938-0.21094-0.070313-0.39062-0.1875-0.54688-0.34375s-0.28125-0.35156-0.375-0.59375c-0.085937-0.23828-0.125-0.51562-0.125-0.82812 0-0.28906 0.039063-0.55469 0.125-0.79688 0.082031-0.23828 0.20312-0.4375 0.35938-0.59375s0.34375-0.27344 0.5625-0.35938c0.21875-0.082031 0.46094-0.125 0.73438-0.125 0.1875 0 0.37891 0.027344 0.57812 0.078125 0.19531 0.042969 0.41016 0.12109 0.64062 0.23438v0.57812h-0.03125c-0.19922-0.16406-0.39844-0.28516-0.59375-0.35938-0.19922-0.082031-0.40625-0.125-0.625-0.125-0.1875 0-0.35547 0.03125-0.5 0.09375-0.14844 0.0625-0.27734 0.15625-0.39062 0.28125-0.11719 0.11719-0.20312 0.26562-0.26562 0.45312s-0.09375 0.40234-0.09375 0.64062c0 0.26172 0.03125 0.48438 0.09375 0.67188 0.070313 0.17969 0.16406 0.32422 0.28125 0.4375 0.11328 0.125 0.24219 0.21875 0.39062 0.28125 0.15625 0.054687 0.31641 0.078125 0.48438 0.078125 0.22656 0 0.44141-0.039063 0.64062-0.125 0.20703-0.082031 0.39844-0.20312 0.57812-0.35938h0.03125z"/>
      </g>
      <g transform="translate(40.427 42.324)">
       <path d="m3.1875-3.2031c0.14453 0.15625 0.25391 0.35547 0.32812 0.59375 0.082031 0.23047 0.125 0.49609 0.125 0.79688 0 0.30469-0.042969 0.57422-0.125 0.8125-0.074219 0.23047-0.18359 0.42188-0.32812 0.57812-0.14844 0.16797-0.32422 0.29297-0.53125 0.375-0.19922 0.082031-0.42969 0.125-0.6875 0.125-0.26172 0-0.49609-0.042969-0.70312-0.125-0.21094-0.082031-0.38672-0.20703-0.53125-0.375-0.14844-0.15625-0.26172-0.34766-0.34375-0.57812-0.074219-0.23828-0.10938-0.50781-0.10938-0.8125 0-0.28906 0.035156-0.55078 0.10938-0.78125 0.082031-0.23828 0.19531-0.44141 0.34375-0.60938 0.14453-0.16406 0.32031-0.28906 0.53125-0.375 0.21875-0.082031 0.45312-0.125 0.70312-0.125s0.47656 0.046875 0.6875 0.14062c0.20703 0.085937 0.38281 0.20312 0.53125 0.35938zm-0.046875 1.3906c0-0.46875-0.10547-0.82812-0.3125-1.0781-0.21094-0.25781-0.49609-0.39062-0.85938-0.39062-0.375 0-0.66797 0.13281-0.875 0.39062-0.21094 0.25-0.3125 0.60938-0.3125 1.0781 0 0.48047 0.10156 0.84375 0.3125 1.0938 0.21875 0.25 0.50781 0.375 0.875 0.375 0.35156 0 0.63281-0.125 0.84375-0.375 0.21875-0.25 0.32812-0.61328 0.32812-1.0938z"/>
      </g>
      <g transform="translate(44.353 42.324)">
       <path d="m3.7188 0h-0.48438v-3.125l-1.0156 2.125h-0.28125l-1-2.125v3.125h-0.45312v-3.625h0.65625l0.96875 2.0156 0.9375-2.0156h0.67188z"/>
      </g>
     </g>
     <g stroke="#f00" stroke-width=".99937">
      <path transform="matrix(.3565 0 0 .3565 -.8065 -.137)" d="m154.47 47.018c-7.955 7.6262-16.852 16.162-25.333 24.292" fill="none"/>
      <path transform="matrix(.3565 0 0 .3565 -.8065 -.137)" d="m152.34 44.202 9.6424-4.3829-4.7993 9.4342z" fill="#f00"/>
      <path transform="matrix(.3565 0 0 .3565 -.8065 -.137)" d="m131.45 73.929-9.6314 4.3938 4.7883-9.4342z" fill="#f00"/>
     </g>
     <path transform="matrix(.3565 0 0 .3565 -.8065 -.137)" d="m335.18 105.5c0 16.195-30.362 29.322-67.803 29.322-37.452 0-67.814-13.127-67.814-29.322 0-16.184 30.362-29.311 67.814-29.311 37.441 0 67.803 13.127 67.803 29.311" fill="none" stroke="#000" stroke-width=".99937"/>
     <g>
      <g transform="translate(76.445 36.341)">
       <path d="m3.2812-0.26562c-0.085937 0.042969-0.16406 0.078125-0.23438 0.10938-0.074219 0.03125-0.16797 0.070312-0.28125 0.10938-0.10547 0.03125-0.21484 0.054688-0.32812 0.078125-0.11719 0.019531-0.24609 0.03125-0.39062 0.03125-0.26172 0-0.5-0.039062-0.71875-0.10938-0.21094-0.070313-0.39062-0.1875-0.54688-0.34375s-0.28125-0.35156-0.375-0.59375c-0.085937-0.23828-0.125-0.51562-0.125-0.82812 0-0.28906 0.039063-0.55469 0.125-0.79688 0.082031-0.23828 0.20312-0.4375 0.35938-0.59375s0.34375-0.27344 0.5625-0.35938c0.21875-0.082031 0.46094-0.125 0.73438-0.125 0.1875 0 0.37891 0.027344 0.57812 0.078125 0.19531 0.042969 0.41016 0.12109 0.64062 0.23438v0.57812h-0.03125c-0.19922-0.16406-0.39844-0.28516-0.59375-0.35938-0.19922-0.082031-0.40625-0.125-0.625-0.125-0.1875 0-0.35547 0.03125-0.5 0.09375-0.14844 0.0625-0.27734 0.15625-0.39062 0.28125-0.11719 0.11719-0.20312 0.26562-0.26562 0.45312s-0.09375 0.40234-0.09375 0.64062c0 0.26172 0.03125 0.48438 0.09375 0.67188 0.070313 0.17969 0.16406 0.32422 0.28125 0.4375 0.11328 0.125 0.24219 0.21875 0.39062 0.28125 0.15625 0.054687 0.31641 0.078125 0.48438 0.078125 0.22656 0 0.44141-0.039063 0.64062-0.125 0.20703-0.082031 0.39844-0.20312 0.57812-0.35938h0.03125z"/>
      </g>
      <g transform="translate(79.926 36.341)">
       <path d="m2.1406-2.2188h-0.015625c-0.074219-0.019531-0.14062-0.03125-0.20312-0.03125-0.0625-0.00781-0.13672-0.015625-0.21875-0.015625-0.14844 0-0.28906 0.03125-0.42188 0.09375-0.125 0.0625-0.25 0.14062-0.375 0.23438v1.9375h-0.45312v-2.7188h0.45312v0.40625c0.1875-0.14453 0.34766-0.25 0.48438-0.3125 0.13281-0.0625 0.27344-0.09375 0.42188-0.09375 0.082031 0 0.14062 0.00781 0.17188 0.015625 0.039063 0 0.09375 0.00781 0.15625 0.015625z"/>
      </g>
      <g transform="translate(82.051 36.341)">
       <path d="m2.7031 0h-0.45312v-0.29688c-0.15625 0.11719-0.30859 0.21094-0.45312 0.28125-0.13672 0.0625-0.28906 0.09375-0.45312 0.09375-0.29297 0-0.51562-0.085938-0.67188-0.26562-0.15625-0.17578-0.23438-0.42969-0.23438-0.76562v-1.7656h0.45312v1.5469c0 0.13672 0.003906 0.25781 0.015625 0.35938 0.007813 0.09375 0.035156 0.17969 0.078125 0.25 0.050781 0.074219 0.10938 0.125 0.17188 0.15625 0.070313 0.03125 0.17578 0.046875 0.3125 0.046875 0.11328 0 0.23828-0.03125 0.375-0.09375 0.14453-0.0625 0.28125-0.14062 0.40625-0.23438v-2.0312h0.45312z"/>
      </g>
      <g transform="translate(85.203 36.341)">
       <path d="m2.3906-0.78125c0 0.25-0.10547 0.45312-0.3125 0.60938-0.19922 0.15625-0.47656 0.23438-0.82812 0.23438-0.21094 0-0.39844-0.023438-0.5625-0.0625-0.16797-0.050781-0.30859-0.10156-0.42188-0.15625v-0.51562h0.03125c0.14453 0.10547 0.30469 0.1875 0.48438 0.25 0.17578 0.0625 0.34375 0.09375 0.5 0.09375 0.19531 0 0.35156-0.03125 0.46875-0.09375 0.11328-0.0625 0.17188-0.16016 0.17188-0.29688 0-0.11328-0.03125-0.19531-0.09375-0.25-0.0625-0.050781-0.17969-0.097656-0.34375-0.14062-0.074219-0.007813-0.16406-0.023438-0.26562-0.046875-0.10547-0.019531-0.19922-0.039063-0.28125-0.0625-0.24219-0.0625-0.41406-0.15625-0.51562-0.28125-0.09375-0.125-0.14062-0.27344-0.14062-0.45312 0-0.11328 0.019531-0.21875 0.0625-0.3125 0.050781-0.10156 0.125-0.19141 0.21875-0.26562 0.09375-0.082031 0.20703-0.14453 0.34375-0.1875 0.13281-0.039063 0.28906-0.0625 0.46875-0.0625 0.16406 0 0.33203 0.023437 0.5 0.0625 0.16406 0.03125 0.30078 0.078125 0.40625 0.14062v0.48438h-0.015625c-0.125-0.082031-0.27344-0.14844-0.4375-0.20312-0.16797-0.0625-0.32812-0.09375-0.48438-0.09375-0.16797 0-0.30859 0.03125-0.42188 0.09375-0.11719 0.0625-0.17188 0.15625-0.17188 0.28125 0 0.11719 0.035156 0.19922 0.10938 0.25 0.0625 0.0625 0.17188 0.10938 0.32812 0.14062 0.082031 0.023437 0.17578 0.042969 0.28125 0.0625 0.10156 0.023437 0.19141 0.039062 0.26562 0.046875 0.20703 0.054687 0.36719 0.13672 0.48438 0.25 0.11328 0.125 0.17188 0.28906 0.17188 0.48438z"/>
      </g>
      <g transform="translate(87.797 36.341)">
       <path d="m2.7188 0h-0.45312v-1.5469c0-0.125-0.011719-0.23828-0.03125-0.34375-0.011719-0.11328-0.039062-0.20312-0.078125-0.26562-0.03125-0.070313-0.089844-0.125-0.17188-0.15625-0.074219-0.03125-0.17188-0.046875-0.29688-0.046875s-0.25781 0.03125-0.39062 0.09375c-0.13672 0.0625-0.26562 0.14062-0.39062 0.23438v2.0312h-0.45312v-3.7812h0.45312v1.3594c0.14453-0.11328 0.28906-0.20312 0.4375-0.26562 0.15625-0.070313 0.31641-0.10938 0.48438-0.10938 0.28906 0 0.50781 0.089844 0.65625 0.26562 0.15625 0.17969 0.23438 0.43359 0.23438 0.76562z"/>
      </g>
      <g transform="translate(90.949 36.341)">
       <path d="m2.7188-1.3125h-2c0 0.16797 0.023438 0.3125 0.078125 0.4375 0.050781 0.125 0.11719 0.23047 0.20312 0.3125 0.082031 0.074219 0.17969 0.13281 0.29688 0.17188 0.125 0.042969 0.25391 0.0625 0.39062 0.0625 0.1875 0 0.375-0.035156 0.5625-0.10938 0.1875-0.082031 0.31641-0.16016 0.39062-0.23438h0.03125v0.5c-0.15625 0.074219-0.32031 0.13281-0.48438 0.17188-0.15625 0.039062-0.32422 0.0625-0.5 0.0625-0.44922 0-0.79688-0.11719-1.0469-0.35938-0.25-0.25-0.375-0.59766-0.375-1.0469 0-0.44531 0.11719-0.80078 0.35938-1.0625 0.23828-0.25781 0.55469-0.39062 0.95312-0.39062 0.36328 0 0.64453 0.10938 0.84375 0.32812 0.19531 0.21094 0.29688 0.51172 0.29688 0.90625zm-0.4375-0.34375c0-0.23828-0.0625-0.42578-0.1875-0.5625-0.11719-0.13281-0.29297-0.20312-0.53125-0.20312-0.25 0-0.44922 0.074219-0.59375 0.21875-0.14844 0.14844-0.23047 0.32812-0.25 0.54688z"/>
      </g>
      <g transform="translate(93.917 36.341)">
       <path d="m2.6562 0h-0.45312v-0.28125c-0.13672 0.11719-0.27734 0.20312-0.42188 0.26562-0.13672 0.0625-0.28906 0.09375-0.45312 0.09375-0.33594 0-0.59375-0.125-0.78125-0.375s-0.28125-0.59766-0.28125-1.0469c0-0.22656 0.03125-0.42969 0.09375-0.60938 0.0625-0.17578 0.14844-0.33203 0.26562-0.46875 0.11328-0.11328 0.24219-0.20312 0.39062-0.26562 0.14453-0.070313 0.29688-0.10938 0.45312-0.10938 0.14453 0 0.26953 0.015625 0.375 0.046875 0.11328 0.03125 0.23438 0.078125 0.35938 0.14062v-1.1719h0.45312zm-0.45312-0.67188v-1.5625c-0.125-0.050781-0.24219-0.085938-0.34375-0.10938-0.09375-0.019531-0.19922-0.03125-0.3125-0.03125-0.26172 0-0.46484 0.089844-0.60938 0.26562-0.13672 0.17969-0.20312 0.43359-0.20312 0.76562 0 0.32422 0.050781 0.57031 0.15625 0.73438 0.11328 0.16797 0.29688 0.25 0.54688 0.25 0.125 0 0.25391-0.023438 0.39062-0.078125 0.13281-0.0625 0.25781-0.14062 0.375-0.23438z"/>
      </g>
      <g transform="translate(97.025 36.341)"></g>
      <g transform="translate(98.775 36.341)">
       <path d="m2.3906-0.78125c0 0.25-0.10547 0.45312-0.3125 0.60938-0.19922 0.15625-0.47656 0.23438-0.82812 0.23438-0.21094 0-0.39844-0.023438-0.5625-0.0625-0.16797-0.050781-0.30859-0.10156-0.42188-0.15625v-0.51562h0.03125c0.14453 0.10547 0.30469 0.1875 0.48438 0.25 0.17578 0.0625 0.34375 0.09375 0.5 0.09375 0.19531 0 0.35156-0.03125 0.46875-0.09375 0.11328-0.0625 0.17188-0.16016 0.17188-0.29688 0-0.11328-0.03125-0.19531-0.09375-0.25-0.0625-0.050781-0.17969-0.097656-0.34375-0.14062-0.074219-0.007813-0.16406-0.023438-0.26562-0.046875-0.10547-0.019531-0.19922-0.039063-0.28125-0.0625-0.24219-0.0625-0.41406-0.15625-0.51562-0.28125-0.09375-0.125-0.14062-0.27344-0.14062-0.45312 0-0.11328 0.019531-0.21875 0.0625-0.3125 0.050781-0.10156 0.125-0.19141 0.21875-0.26562 0.09375-0.082031 0.20703-0.14453 0.34375-0.1875 0.13281-0.039063 0.28906-0.0625 0.46875-0.0625 0.16406 0 0.33203 0.023437 0.5 0.0625 0.16406 0.03125 0.30078 0.078125 0.40625 0.14062v0.48438h-0.015625c-0.125-0.082031-0.27344-0.14844-0.4375-0.20312-0.16797-0.0625-0.32812-0.09375-0.48438-0.09375-0.16797 0-0.30859 0.03125-0.42188 0.09375-0.11719 0.0625-0.17188 0.15625-0.17188 0.28125 0 0.11719 0.035156 0.19922 0.10938 0.25 0.0625 0.0625 0.17188 0.10938 0.32812 0.14062 0.082031 0.023437 0.17578 0.042969 0.28125 0.0625 0.10156 0.023437 0.19141 0.039062 0.26562 0.046875 0.20703 0.054687 0.36719 0.13672 0.48438 0.25 0.11328 0.125 0.17188 0.28906 0.17188 0.48438z"/>
      </g>
      <g transform="translate(101.38 36.341)">
       <path d="m1.8594-0.03125c-0.085937 0.03125-0.17969 0.050781-0.28125 0.0625-0.10547 0.0078125-0.19531 0.015625-0.26562 0.015625-0.28125 0-0.49609-0.070312-0.64062-0.21875-0.14844-0.14453-0.21875-0.38281-0.21875-0.71875v-1.4375h-0.29688v-0.39062h0.29688v-0.78125h0.46875v0.78125h0.9375v0.39062h-0.9375v1.2344 0.34375c0.007813 0.074219 0.035156 0.14844 0.078125 0.21875 0.03125 0.0625 0.078125 0.10938 0.14062 0.14062s0.15625 0.046875 0.28125 0.046875c0.082031 0 0.16016-0.007813 0.23438-0.03125 0.082031-0.019531 0.14453-0.039063 0.1875-0.0625h0.015625z"/>
      </g>
      <g transform="translate(103.35 36.341)">
       <path d="m2.7656-1.3594c0 0.44922-0.11719 0.80469-0.34375 1.0625-0.23047 0.25-0.53125 0.375-0.90625 0.375-0.38672 0-0.69531-0.125-0.92188-0.375-0.21875-0.25781-0.32812-0.61328-0.32812-1.0625 0-0.4375 0.10938-0.78516 0.32812-1.0469 0.22656-0.25781 0.53516-0.39062 0.92188-0.39062 0.375 0 0.67578 0.13281 0.90625 0.39062 0.22656 0.26172 0.34375 0.60938 0.34375 1.0469zm-0.46875 0c0-0.35156-0.074219-0.61328-0.21875-0.78125-0.13672-0.17578-0.32422-0.26562-0.5625-0.26562-0.25 0-0.44531 0.089844-0.57812 0.26562-0.13672 0.16797-0.20312 0.42969-0.20312 0.78125 0 0.34375 0.066406 0.60547 0.20312 0.78125 0.13281 0.17969 0.32812 0.26562 0.57812 0.26562 0.23828 0 0.42578-0.085938 0.5625-0.26562 0.14453-0.17578 0.21875-0.4375 0.21875-0.78125z"/>
      </g>
      <g transform="translate(106.37 36.341)">
       <path d="m2.7188 0h-0.45312v-1.5469c0-0.125-0.011719-0.23828-0.03125-0.34375-0.011719-0.11328-0.039062-0.20312-0.078125-0.26562-0.03125-0.070313-0.089844-0.125-0.17188-0.15625-0.074219-0.03125-0.17188-0.046875-0.29688-0.046875s-0.25781 0.03125-0.39062 0.09375c-0.13672 0.0625-0.26562 0.14062-0.39062 0.23438v2.0312h-0.45312v-2.7188h0.45312v0.29688c0.14453-0.11328 0.28906-0.20312 0.4375-0.26562 0.15625-0.070313 0.31641-0.10938 0.48438-0.10938 0.28906 0 0.50781 0.089844 0.65625 0.26562 0.15625 0.17969 0.23438 0.43359 0.23438 0.76562z"/>
      </g>
      <g transform="translate(109.52 36.341)">
       <path d="m2.7188-1.3125h-2c0 0.16797 0.023438 0.3125 0.078125 0.4375 0.050781 0.125 0.11719 0.23047 0.20312 0.3125 0.082031 0.074219 0.17969 0.13281 0.29688 0.17188 0.125 0.042969 0.25391 0.0625 0.39062 0.0625 0.1875 0 0.375-0.035156 0.5625-0.10938 0.1875-0.082031 0.31641-0.16016 0.39062-0.23438h0.03125v0.5c-0.15625 0.074219-0.32031 0.13281-0.48438 0.17188-0.15625 0.039062-0.32422 0.0625-0.5 0.0625-0.44922 0-0.79688-0.11719-1.0469-0.35938-0.25-0.25-0.375-0.59766-0.375-1.0469 0-0.44531 0.11719-0.80078 0.35938-1.0625 0.23828-0.25781 0.55469-0.39062 0.95312-0.39062 0.36328 0 0.64453 0.10938 0.84375 0.32812 0.19531 0.21094 0.29688 0.51172 0.29688 0.90625zm-0.4375-0.34375c0-0.23828-0.0625-0.42578-0.1875-0.5625-0.11719-0.13281-0.29297-0.20312-0.53125-0.20312-0.25 0-0.44922 0.074219-0.59375 0.21875-0.14844 0.14844-0.23047 0.32812-0.25 0.54688z"/>
      </g>
      <g transform="translate(86.001 42.326)">
       <path d="m0.9375-3.1719h-0.51562v-0.46875h0.51562zm-0.03125 3.1719h-0.45312v-2.7188h0.45312z"/>
      </g>
      <g transform="translate(87.368 42.326)">
       <path d="m2.7188 0h-0.45312v-1.5469c0-0.125-0.011719-0.23828-0.03125-0.34375-0.011719-0.11328-0.039062-0.20312-0.078125-0.26562-0.03125-0.070313-0.089844-0.125-0.17188-0.15625-0.074219-0.03125-0.17188-0.046875-0.29688-0.046875s-0.25781 0.03125-0.39062 0.09375c-0.13672 0.0625-0.26562 0.14062-0.39062 0.23438v2.0312h-0.45312v-2.7188h0.45312v0.29688c0.14453-0.11328 0.28906-0.20312 0.4375-0.26562 0.15625-0.070313 0.31641-0.10938 0.48438-0.10938 0.28906 0 0.50781 0.089844 0.65625 0.26562 0.15625 0.17969 0.23438 0.43359 0.23438 0.76562z"/>
      </g>
      <g transform="translate(90.52 42.326)"></g>
      <g transform="translate(92.271 42.326)">
       <path d="m3.2188-1.1094c0 0.17969-0.039062 0.33594-0.10938 0.46875-0.0625 0.13672-0.15234 0.25-0.26562 0.34375-0.13672 0.10547-0.28906 0.18359-0.45312 0.23438-0.15625 0.042969-0.36719 0.0625-0.625 0.0625h-1.2812v-3.625h1.0781c0.25781 0 0.45312 0.011719 0.57812 0.03125 0.13281 0.023437 0.26562 0.0625 0.39062 0.125 0.13281 0.0625 0.22656 0.15234 0.28125 0.26562 0.0625 0.10547 0.09375 0.23438 0.09375 0.39062 0 0.17969-0.046875 0.32812-0.14062 0.45312-0.085937 0.11719-0.19922 0.21094-0.34375 0.28125v0.015625c0.25 0.054687 0.44141 0.16406 0.57812 0.32812 0.14453 0.16797 0.21875 0.375 0.21875 0.625zm-0.8125-1.6406c0-0.082031-0.015625-0.15625-0.046875-0.21875-0.023437-0.0625-0.070312-0.10938-0.14062-0.14062-0.074219-0.050781-0.16797-0.082031-0.28125-0.09375-0.10547-0.007813-0.23438-0.015625-0.39062-0.015625h-0.57812v1.0469h0.625c0.14453 0 0.25781-0.00391 0.34375-0.015625 0.09375-0.019531 0.17969-0.050781 0.26562-0.09375 0.070313-0.050781 0.125-0.11328 0.15625-0.1875 0.03125-0.082031 0.046875-0.17578 0.046875-0.28125zm0.3125 1.6562c0-0.14453-0.023437-0.25781-0.0625-0.34375-0.042969-0.09375-0.12109-0.16406-0.23438-0.21875-0.085937-0.039063-0.18359-0.066406-0.29688-0.078125-0.10547-0.019531-0.24219-0.03125-0.40625-0.03125h-0.75v1.3594h0.64062c0.20703 0 0.37891-0.007813 0.51562-0.03125 0.13281-0.03125 0.24219-0.070313 0.32812-0.125 0.09375-0.0625 0.16016-0.13281 0.20312-0.21875 0.039063-0.082031 0.0625-0.1875 0.0625-0.3125z"/>
      </g>
      <g transform="translate(95.688 42.326)">
       <path d="m3.5156-0.26562c-0.19922 0.09375-0.41797 0.17969-0.65625 0.25-0.23047 0.0625-0.45312 0.09375-0.67188 0.09375-0.29297 0-0.55859-0.039062-0.79688-0.10938-0.23047-0.082031-0.42969-0.20312-0.59375-0.35938-0.16797-0.15625-0.29688-0.35156-0.39062-0.59375-0.085937-0.23828-0.125-0.51562-0.125-0.82812 0-0.58203 0.16406-1.0391 0.5-1.375 0.34375-0.33203 0.8125-0.5 1.4062-0.5 0.19531 0 0.40625 0.027344 0.625 0.078125 0.21875 0.042969 0.44531 0.125 0.6875 0.25v0.5625h-0.03125c-0.054687-0.03125-0.13281-0.078125-0.23438-0.14062-0.09375-0.070313-0.18359-0.12891-0.26562-0.17188-0.11719-0.039063-0.24609-0.078125-0.39062-0.10938-0.13672-0.039063-0.29688-0.0625-0.48438-0.0625-0.40625 0-0.73047 0.13281-0.96875 0.39062-0.23047 0.26172-0.34375 0.61719-0.34375 1.0625 0 0.46875 0.11719 0.83594 0.35938 1.0938 0.25 0.26172 0.58594 0.39062 1.0156 0.39062 0.15625 0 0.3125-0.015625 0.46875-0.046875s0.28906-0.070313 0.40625-0.125v-0.89062h-0.96875v-0.42188h1.4531z"/>
      </g>
      <g transform="translate(99.553 42.326)">
       <path d="m3.125-1.0312c0 0.13672-0.039062 0.27734-0.10938 0.42188-0.0625 0.13672-0.15234 0.25-0.26562 0.34375-0.13672 0.10547-0.29297 0.1875-0.46875 0.25-0.16797 0.050781-0.37109 0.078125-0.60938 0.078125-0.26172 0-0.49609-0.023438-0.70312-0.0625-0.21094-0.050781-0.42188-0.125-0.64062-0.21875v-0.60938h0.03125c0.1875 0.15625 0.39844 0.27734 0.64062 0.35938 0.23828 0.085937 0.46094 0.125 0.67188 0.125 0.30078 0 0.53516-0.054688 0.70312-0.17188 0.16406-0.11328 0.25-0.26562 0.25-0.45312 0-0.15625-0.042969-0.26953-0.125-0.34375-0.085937-0.082031-0.20312-0.14453-0.35938-0.1875-0.125-0.03125-0.26172-0.054688-0.40625-0.078125-0.13672-0.019531-0.28125-0.046875-0.4375-0.078125-0.32422-0.070313-0.5625-0.1875-0.71875-0.34375-0.15625-0.16406-0.23438-0.38281-0.23438-0.65625 0-0.30078 0.125-0.54688 0.375-0.73438 0.25781-0.19531 0.58594-0.29688 0.98438-0.29688 0.25781 0 0.49219 0.027344 0.70312 0.078125 0.21875 0.042969 0.40625 0.10156 0.5625 0.17188v0.57812h-0.03125c-0.13672-0.125-0.32031-0.22266-0.54688-0.29688-0.21875-0.070313-0.44922-0.10938-0.6875-0.10938-0.26172 0-0.46875 0.054687-0.625 0.15625-0.15625 0.10547-0.23438 0.24219-0.23438 0.40625 0 0.15625 0.035156 0.27734 0.10938 0.35938 0.082031 0.085937 0.22266 0.15234 0.42188 0.20312 0.10156 0.023437 0.25 0.046875 0.4375 0.078125 0.19531 0.03125 0.36328 0.0625 0.5 0.09375 0.26953 0.074219 0.47266 0.18359 0.60938 0.32812 0.13281 0.14844 0.20312 0.35156 0.20312 0.60938z"/>
      </g>
     </g>
     <g stroke="#f00" stroke-width=".99937">
      <path transform="matrix(.3565 0 0 .3565 -.8065 -.137)" d="m206.13 46.788c8.0864 7.7468 17.159 16.447 25.793 24.73" fill="none"/>
      <path transform="matrix(.3565 0 0 .3565 -.8065 -.137)" d="m203.66 49.254-4.7993-9.4342 9.6424 4.3829z" fill="#f00"/>
      <path transform="matrix(.3565 0 0 .3565 -.8065 -.137)" d="m234.57 69.207 4.7993 9.4451-9.6314-4.3938z" fill="#f00"/>
     </g>
     <path transform="matrix(.3565 0 0 .3565 -.8065 -.137)" d="m93.481 145.32v25.169" fill="none" stroke="#00f" stroke-width=".99937"/>
     <path transform="matrix(.3565 0 0 .3565 -.8065 -.137)" d="m89.975 145.12 3.5063-9.993 3.4954 9.993z" fill="#00f" stroke="#00f" stroke-width=".99937"/>
     <g stroke="#f00" stroke-width=".99937">
      <path transform="matrix(.3565 0 0 .3565 -.8065 -.137)" d="m163.95 91.505c10.672 2.1476 17.904 6.8154 17.904 13.992 0 7.1879-7.2318 11.845-17.904 13.992" fill="none"/>
      <path transform="matrix(.3565 0 0 .3565 -.8065 -.137)" d="m163.29 94.956-9.4999-4.6897 10.344-2.2572z" fill="#f00"/>
      <path transform="matrix(.3565 0 0 .3565 -.8065 -.137)" d="m164.13 123-10.344-2.2682 9.4999-4.6787z" fill="#f00"/>
      <path transform="matrix(.3565 0 0 .3565 -.8065 -.137)" d="m174.38 105.5h14.979" fill="none"/>
      <path transform="matrix(.3565 0 0 .3565 -.8065 -.137)" d="m174.12 109-9.993-3.5063 9.993-3.4954z" fill="#f00"/>
      <path transform="matrix(.3565 0 0 .3565 -.8065 -.137)" d="m189.62 102 9.993 3.4954-9.993 3.5063z" fill="#f00"/>
     </g>
     <g stroke="#00f" stroke-width=".99937">
      <path transform="matrix(.3565 0 0 .3565 -.8065 -.137)" d="m267.37 145.32v25.169" fill="none"/>
      <path transform="matrix(.3565 0 0 .3565 -.8065 -.137)" d="m263.87 145.12 3.5063-9.993 3.4954 9.993z" fill="#00f"/>
      <path transform="matrix(.3565 0 0 .3565 -.8065 -.137)" d="m302.35 139.43c11.987 11.626 24.829 24.084 34.625 33.584" fill="none" stroke-dasharray="4.99684, 1.99873"/>
      <path transform="matrix(.3565 0 0 .3565 -.8065 -.137)" d="m299.77 141.81-4.7335-9.478 9.6095 4.4486z" fill="#00f"/>
     </g>
     <g stroke="#f00" stroke-width=".99937">
      <path transform="matrix(.3565 0 0 .3565 -.8065 -.137)" d="m335.37 91.45c10.486 2.1257 17.619 6.8044 17.619 14.047 0 7.2427-7.1332 11.932-17.619 14.047" fill="none"/>
      <path transform="matrix(.3565 0 0 .3565 -.8065 -.137)" d="m334.89 94.923-9.4999-4.6678 10.344-2.2791z" fill="#f00"/>
      <path transform="matrix(.3565 0 0 .3565 -.8065 -.137)" d="m335.73 123.03-10.344-2.2791 9.4999-4.6678z" fill="#f00"/>
     </g>
    </g>
   </g>
  </g>
 </g>
</svg>
