<?xml version="1.0" encoding="UTF-8"?>
<svg width="583pt" height="162pt" version="1.1" viewBox="0 0 583.23 161.66" xmlns="http://www.w3.org/2000/svg">
 <g class="graph" transform="translate(4 157.66)">
  <title>G</title>
  <g class="node">
   <title>Crushed stone\nin BGS</title>
   <path d="m287.15-154.08c-19.469 0-37.095 3.2862-49.9 8.6289-6.4025 2.6714-11.602 5.8566-15.225 9.4297-3.6222 3.5731-5.6738 7.5617-5.6738 11.773s2.0517 8.1984 5.6738 11.771c3.6222 3.5731 8.8221 6.7583 15.225 9.4297 12.805 5.3428 30.431 8.6289 49.9 8.6289 19.469 0 37.097-3.2862 49.902-8.6289 6.4025-2.6714 11.602-5.8566 15.225-9.4297s5.6738-7.5597 5.6738-11.771c0-4.2117-2.0517-8.2003-5.6738-11.773-3.6222-3.5731-8.8221-6.7583-15.225-9.4297-12.805-5.3428-30.433-8.6289-49.902-8.6289zm0 1c19.356 0 36.879 3.2796 49.518 8.5527 6.3191 2.6366 11.414 5.7716 14.906 9.2168 3.4925 3.4452 5.377 7.1746 5.377 11.062-1e-5 3.8879-1.8845 7.6153-5.377 11.061-3.4925 3.4452-8.5871 6.5802-14.906 9.2168-12.638 5.2731-30.161 8.5527-49.518 8.5527-19.356 0-36.877-3.2796-49.516-8.5527-6.3191-2.6366-11.414-5.7716-14.906-9.2168-3.4925-3.4452-5.377-7.1726-5.377-11.061s1.8845-7.6173 5.377-11.062c3.4925-3.4452 8.5871-6.5802 14.906-9.2168 12.638-5.2732 30.159-8.5527 49.516-8.5527z" color="#000000" style="-inkscape-stroke:none"/>
   <g transform="translate(-.05127 1.0192)">
    <g aria-label="Crushed stone">
     <path d="m245.75-129.19q-0.37597 0.16406-0.68359 0.30762-0.30078 0.14355-0.79297 0.30078-0.41699 0.12988-0.90918 0.21875-0.48535 0.0957-1.0732 0.0957-1.1074 0-2.0166-0.30762-0.90235-0.31445-1.5723-0.97754-0.65625-0.64941-1.0254-1.6475-0.36914-1.0049-0.36914-2.331 0-1.2578 0.35547-2.249 0.35547-0.99122 1.0254-1.6748 0.64941-0.66309 1.5654-1.0117 0.92285-0.34863 2.0439-0.34863 0.82032 0 1.6338 0.19824 0.82032 0.19824 1.8184 0.69727v1.6064h-0.10254q-0.84082-0.7041-1.668-1.0254-0.82714-0.32129-1.7705-0.32129-0.77246 0-1.3945 0.25293-0.61524 0.2461-1.1006 0.77246-0.47168 0.5127-0.73828 1.2988-0.25977 0.7793-0.25977 1.8047 0 1.0732 0.28711 1.8457 0.29395 0.77246 0.75196 1.2578 0.47851 0.50586 1.1142 0.75196 0.64258 0.23926 1.3535 0.23926 0.97754 0 1.832-0.33497 0.85449-0.33496 1.5996-1.0049h0.0957z" color="#000000" style="-inkscape-stroke:none"/>
     <path d="m252.33-134.68h-0.0684q-0.2871-0.0684-0.56054-0.0957-0.2666-0.0342-0.63574-0.0342-0.59473 0-1.1484 0.2666-0.55371 0.25977-1.0664 0.67676v5.4209h-1.2852v-7.6357h1.2852v1.1279q0.76563-0.61524 1.3467-0.86817 0.58789-0.25976 1.1963-0.25976 0.33496 0 0.48535 0.0205 0.15039 0.0137 0.45117 0.0615z" color="#000000" style="-inkscape-stroke:none"/>
     <path d="m259.87-128.45h-1.2852v-0.84766q-0.64942 0.5127-1.2441 0.78614-0.59473 0.27343-1.3125 0.27343-1.2031 0-1.873-0.73144-0.66992-0.73828-0.66992-2.1602v-4.956h1.2852v4.3476q0 0.58106 0.0547 0.99805 0.0547 0.41016 0.23242 0.7041 0.18457 0.30078 0.47852 0.4375 0.29394 0.13672 0.85449 0.13672 0.49902 0 1.0869-0.25976 0.59472-0.25977 1.1074-0.66309v-5.7012h1.2852z" color="#000000" style="-inkscape-stroke:none"/>
     <path d="m267.85-130.65q0 1.0459-0.86817 1.7158-0.86132 0.66992-2.3584 0.66992-0.84766 0-1.5586-0.19824-0.7041-0.20508-1.1826-0.44434v-1.4424h0.0684q0.6084 0.45801 1.3535 0.73145 0.74512 0.2666 1.4287 0.2666 0.84766 0 1.3262-0.27344 0.47852-0.27344 0.47852-0.86133 0-0.45117-0.25977-0.68359-0.25976-0.23242-0.99804-0.39649-0.27344-0.0615-0.71778-0.14355-0.4375-0.082-0.7998-0.17774-1.0049-0.2666-1.4287-0.77929-0.417-0.51953-0.417-1.2715 0-0.47168 0.19141-0.88867 0.19824-0.41699 0.59473-0.74512 0.38281-0.32129 0.9707-0.50586 0.59473-0.1914 1.3262-0.1914 0.6836 0 1.3809 0.1709 0.7041 0.16406 1.169 0.40332v1.374h-0.0684q-0.49219-0.3623-1.1963-0.6084-0.7041-0.25293-1.3809-0.25293-0.7041 0-1.1894 0.27344-0.48536 0.2666-0.48536 0.7998 0 0.47168 0.29395 0.71094 0.28711 0.23926 0.92969 0.38965 0.35547 0.082 0.79297 0.16406 0.44433 0.082 0.73828 0.15039 0.89551 0.20508 1.3809 0.7041 0.48535 0.50586 0.48535 1.3398z" color="#000000" style="-inkscape-stroke:none"/>
     <path d="m276.07-128.45h-1.2852v-4.3477q0-0.52636-0.0615-0.98437-0.0615-0.46484-0.22558-0.72461-0.1709-0.28711-0.49219-0.42383-0.32129-0.14355-0.83399-0.14355-0.52636 0-1.1006 0.25976-0.57422 0.25977-1.1006 0.66309v5.7012h-1.2852v-10.637h1.2852v3.8486q0.60156-0.49902 1.2441-0.77929 0.64258-0.28028 1.3193-0.28028 1.2373 0 1.8867 0.74512 0.64941 0.74512 0.64941 2.1465z" color="#000000" style="-inkscape-stroke:none"/>
     <path d="m284.94-132.13h-5.626q0 0.7041 0.21191 1.2305 0.21191 0.51953 0.58105 0.85449 0.35547 0.32813 0.84082 0.49219 0.49219 0.16406 1.0801 0.16406 0.7793 0 1.5654-0.30762 0.79297-0.31445 1.1279-0.61523h0.0684v1.4014q-0.64941 0.27343-1.3262 0.458t-1.4219 0.18457q-1.9004 0-2.9668-1.0254-1.0664-1.0322-1.0664-2.9258 0-1.873 1.0186-2.9736 1.0254-1.1006 2.6934-1.1006 1.5449 0 2.3789 0.90235 0.84082 0.90234 0.84082 2.5635zm-1.251-0.98437q-7e-3 -1.0117-0.5127-1.5654-0.49902-0.55372-1.5244-0.55372-1.0322 0-1.6475 0.6084-0.6084 0.6084-0.69043 1.5108z" color="#000000" style="-inkscape-stroke:none"/>
     <path d="m293.08-128.45h-1.2852v-0.7998q-0.55371 0.47851-1.1553 0.74511-0.60156 0.2666-1.3057 0.2666-1.3672 0-2.1738-1.0527-0.7998-1.0527-0.7998-2.919 0-0.9707 0.27343-1.7295 0.28028-0.75879 0.75196-1.292 0.46484-0.51953 1.0801-0.79297 0.62207-0.27344 1.2852-0.27344 0.60156 0 1.0664 0.12989 0.46484 0.12304 0.97754 0.38965v-3.3086h1.2852zm-1.2852-1.8799v-4.3818q-0.51953-0.23242-0.92969-0.32129-0.41016-0.0889-0.89551-0.0889-1.0801 0-1.6816 0.75195t-0.60156 2.1328q0 1.3604 0.46484 2.0713 0.46485 0.7041 1.4902 0.7041 0.54687 0 1.1074-0.23926 0.56055-0.24609 1.0459-0.6289z" color="#000000" style="-inkscape-stroke:none"/>
     <path d="m305.99-130.65q0 1.0459-0.86816 1.7158-0.86133 0.66992-2.3584 0.66992-0.84766 0-1.5586-0.19824-0.7041-0.20508-1.1826-0.44434v-1.4424h0.0684q0.6084 0.45801 1.3535 0.73145 0.74511 0.2666 1.4287 0.2666 0.84765 0 1.3262-0.27344 0.47851-0.27344 0.47851-0.86133 0-0.45117-0.25976-0.68359-0.25977-0.23242-0.99805-0.39649-0.27344-0.0615-0.71777-0.14355-0.4375-0.082-0.79981-0.17774-1.0049-0.2666-1.4287-0.77929-0.41699-0.51953-0.41699-1.2715 0-0.47168 0.19141-0.88867 0.19824-0.41699 0.59472-0.74512 0.38282-0.32129 0.97071-0.50586 0.59472-0.1914 1.3262-0.1914 0.68359 0 1.3809 0.1709 0.7041 0.16406 1.1689 0.40332v1.374h-0.0684q-0.49218-0.3623-1.1963-0.6084-0.7041-0.25293-1.3809-0.25293-0.7041 0-1.1894 0.27344-0.48535 0.2666-0.48535 0.7998 0 0.47168 0.29395 0.71094 0.2871 0.23926 0.92968 0.38965 0.35547 0.082 0.79297 0.16406 0.44434 0.082 0.73828 0.15039 0.89551 0.20508 1.3809 0.7041 0.48535 0.50586 0.48535 1.3398z" color="#000000" style="-inkscape-stroke:none"/>
     <path d="m311.79-128.52q-0.3623 0.0957-0.79296 0.15723-0.42383 0.0615-0.75879 0.0615-1.169 0-1.7774-0.62891-0.6084-0.6289-0.6084-2.0166v-4.0605h-0.86816v-1.0801h0.86816v-2.1943h1.2852v2.1943h2.6523v1.0801h-2.6523v3.4795q0 0.60156 0.0273 0.94336 0.0274 0.33496 0.19141 0.6289 0.15039 0.27344 0.41016 0.40332 0.2666 0.12305 0.80664 0.12305 0.31445 0 0.65625-0.0889 0.34179-0.0957 0.49219-0.15722h0.0684z" color="#000000" style="-inkscape-stroke:none"/>
     <path d="m319.85-132.26q0 1.8662-0.95703 2.9463-0.95703 1.0801-2.5635 1.0801-1.6201 0-2.5772-1.0801-0.9502-1.0801-0.9502-2.9463t0.9502-2.9463q0.95703-1.0869 2.5772-1.0869 1.6064 0 2.5635 1.0869 0.95703 1.0801 0.95703 2.9463zm-1.3262 0q0-1.4834-0.58105-2.2012-0.58106-0.72461-1.6133-0.72461-1.0459 0-1.627 0.72461-0.57421 0.71777-0.57421 2.2012 0 1.4355 0.58105 2.1807 0.58105 0.73828 1.6201 0.73828 1.0254 0 1.6064-0.73144 0.58789-0.73828 0.58789-2.1875z" color="#000000" style="-inkscape-stroke:none"/>
     <path d="m328.22-128.45h-1.2852v-4.3477q0-0.52636-0.0615-0.98437-0.0615-0.46484-0.22559-0.72461-0.1709-0.28711-0.49218-0.42383-0.32129-0.14355-0.83399-0.14355-0.52637 0-1.1006 0.25976-0.57421 0.25977-1.1006 0.66309v5.7012h-1.2852v-7.6357h1.2852v0.84765q0.60156-0.49902 1.2441-0.77929 0.64258-0.28028 1.3193-0.28028 1.2373 0 1.8867 0.74512 0.64942 0.74512 0.64942 2.1465z" color="#000000" style="-inkscape-stroke:none"/>
     <path d="m337.09-132.13h-5.626q0 0.7041 0.21192 1.2305 0.21191 0.51953 0.58105 0.85449 0.35547 0.32813 0.84082 0.49219 0.49219 0.16406 1.0801 0.16406 0.7793 0 1.5654-0.30762 0.79297-0.31445 1.1279-0.61523h0.0684v1.4014q-0.64942 0.27343-1.3262 0.458-0.67676 0.18457-1.4219 0.18457-1.9004 0-2.9668-1.0254-1.0664-1.0322-1.0664-2.9258 0-1.873 1.0186-2.9736 1.0254-1.1006 2.6934-1.1006 1.5449 0 2.3789 0.90235 0.84082 0.90234 0.84082 2.5635zm-1.251-0.98437q-7e-3 -1.0117-0.51269-1.5654-0.49903-0.55372-1.5244-0.55372-1.0322 0-1.6475 0.6084-0.6084 0.6084-0.69043 1.5108z" color="#000000" style="-inkscape-stroke:none"/>
    </g>
    <g aria-label="in BGS">
     <path d="m265.97-120.56h-1.4492v-1.333h1.4492zm-0.082 8.9141h-1.2852v-7.6357h1.2852z" color="#000000" style="-inkscape-stroke:none"/>
     <path d="m274.82-111.65h-1.2852v-4.3476q0-0.52637-0.0615-0.98438-0.0615-0.46484-0.22559-0.72461-0.1709-0.28711-0.49218-0.42383-0.32129-0.14355-0.83399-0.14355-0.52637 0-1.1006 0.25977-0.57422 0.25976-1.1006 0.66308v5.7012h-1.2852v-7.6357h1.2852v0.84766q0.60156-0.49903 1.2441-0.7793t1.3193-0.28027q1.2373 0 1.8867 0.74511 0.64942 0.74512 0.64942 2.1465z" color="#000000" style="-inkscape-stroke:none"/>
     <path d="m289.99-114.78q0 0.75879-0.28711 1.3398-0.28711 0.58105-0.77246 0.95703-0.57422 0.45117-1.2646 0.64258-0.68359 0.1914-1.7432 0.1914h-3.6094v-10.179h3.0146q1.1143 0 1.668 0.082t1.0596 0.3418q0.56055 0.29395 0.81348 0.75879 0.25293 0.45801 0.25293 1.1006 0 0.72461-0.36914 1.2373-0.36915 0.50586-0.98438 0.81348v0.0547q1.0322 0.21192 1.627 0.90918 0.59473 0.69043 0.59473 1.75zm-2.2764-4.5869q0-0.36914-0.12304-0.62207-0.12305-0.25293-0.39649-0.41016-0.32129-0.18457-0.7793-0.22558-0.458-0.0479-1.1348-0.0479h-1.6133v2.9394h1.75q0.63574 0 1.0117-0.0615 0.37597-0.0684 0.69726-0.27344 0.32129-0.20508 0.45117-0.52637 0.13672-0.32812 0.13672-0.77246zm0.86817 4.6416q0-0.61523-0.18457-0.97754-0.18457-0.3623-0.66993-0.61523-0.32812-0.1709-0.7998-0.21875-0.46484-0.0547-1.1348-0.0547h-2.126v3.7871h1.791q0.88868 0 1.4561-0.0889 0.56738-0.0957 0.92969-0.34179 0.38281-0.26661 0.56054-0.6084 0.17774-0.3418 0.17774-0.88184z" color="#000000" style="-inkscape-stroke:none"/>
     <path d="m300.4-112.4q-0.83398 0.38281-1.8252 0.66992-0.98438 0.28028-1.9072 0.28028-1.1894 0-2.1807-0.32813-0.99121-0.32812-1.6885-0.98437-0.7041-0.66309-1.0869-1.6543-0.38282-0.99805-0.38282-2.3311 0-2.4404 1.4219-3.8486 1.4287-1.415 3.917-1.415 0.86816 0 1.7705 0.21192 0.90918 0.20507 1.9551 0.7041v1.6064h-0.12305q-0.21191-0.16406-0.61523-0.43066t-0.79297-0.44434q-0.47168-0.21191-1.0732-0.34863-0.59472-0.14355-1.3535-0.14355-1.709 0-2.707 1.1006-0.99121 1.0938-0.99121 2.9668 0 1.9756 1.0391 3.0762 1.0391 1.0938 2.8301 1.0938 0.65625 0 1.3057-0.12988 0.65625-0.12989 1.1484-0.33496v-2.4951h-2.7275v-1.1894h4.0674z" color="#000000" style="-inkscape-stroke:none"/>
     <path d="m310.16-114.55q0 0.59473-0.28027 1.1758-0.27344 0.58106-0.77246 0.98438-0.54688 0.4375-1.2783 0.68359-0.72461 0.24609-1.75 0.24609-1.1006 0-1.9824-0.20507-0.875-0.20508-1.7842-0.6084v-1.6953h0.0957q0.77246 0.64258 1.7842 0.99122 1.0117 0.34863 1.9004 0.34863 1.2578 0 1.9551-0.47168 0.7041-0.47168 0.7041-1.2578 0-0.67676-0.33496-0.99805-0.32813-0.32129-1.0049-0.49902-0.51269-0.13672-1.1142-0.22559-0.59473-0.0889-1.2646-0.22559-1.3535-0.28711-2.0098-0.97753-0.64941-0.69727-0.64941-1.8115 0-1.2783 1.0801-2.0918 1.0801-0.82031 2.7412-0.82031 1.0732 0 1.9688 0.20508t1.5859 0.50586v1.5996h-0.0957q-0.58105-0.49219-1.5312-0.81348-0.94336-0.32812-1.9346-0.32812-1.0869 0-1.75 0.45117-0.65625 0.45117-0.65625 1.1621 0 0.63574 0.32813 0.99805 0.32812 0.3623 1.1553 0.55371 0.4375 0.0957 1.2441 0.23242t1.3672 0.28027q1.1348 0.30078 1.709 0.90918t0.57422 1.7022z" color="#000000" style="-inkscape-stroke:none"/>
    </g>
   </g>
  </g>
  <g class="node">
   <title>Limestone &amp; Dolomite\nin BGS</title>
   <path d="m103.15-59.248c-28.562 0-54.419 3.2851-73.176 8.6113-9.3785 2.6631-16.982 5.8325-22.279 9.3887-5.297 3.5562-8.3398 7.5443-8.3398 11.832-1.4e-7 4.2877 3.0429 8.2759 8.3398 11.832 5.297 3.5562 12.901 6.7275 22.279 9.3906 18.757 5.3262 44.613 8.6094 73.176 8.6094 28.562 0 54.421-3.2832 73.178-8.6094 9.3785-2.6631 16.982-5.8345 22.279-9.3906 5.297-3.5562 8.3379-7.5443 8.3379-11.832 0-4.2877-3.0409-8.2759-8.3379-11.832-5.297-3.5562-12.901-6.7256-22.279-9.3887-18.757-5.3262-44.615-8.6113-73.178-8.6113zm0 1c28.486 0 54.276 3.2826 72.904 8.5723 9.3142 2.6448 16.839 5.7956 21.996 9.2578 5.157 3.4622 7.8945 7.19 7.8945 11.002 0 3.8119-2.7375 7.5398-7.8945 11.002-5.157 3.4622-12.682 6.613-21.996 9.2578-18.628 5.2897-44.419 8.5723-72.904 8.5723-28.486-8e-8 -54.274-3.2826-72.902-8.5723-9.3142-2.6448-16.839-5.7956-21.996-9.2578-5.157-3.4622-7.8965-7.19-7.8965-11.002 0-3.8119 2.7395-7.5398 7.8965-11.002 5.157-3.4622 12.682-6.613 21.996-9.2578 18.628-5.2897 44.417-8.5723 72.902-8.5723z" color="#000000" style="-inkscape-stroke:none"/>
   <g transform="translate(-.3418 1.0192)">
    <g aria-label="Limestone &amp; Dolomite">
     <path d="m33.428-33.616h-6.4395v-10.179h1.3535v8.9756h5.0859z" color="#000000" style="-inkscape-stroke:none"/>
     <path d="m36.06-42.53h-1.4492v-1.333h1.4492zm-0.08203 8.9141h-1.2852v-7.6357h1.2852z" color="#000000" style="-inkscape-stroke:none"/>
     <path d="m49.663-33.616h-1.2852v-4.3477q0-0.49219-0.04785-0.9502-0.04102-0.45801-0.18457-0.73144-0.15723-0.29395-0.45117-0.44434-0.29394-0.15039-0.84766-0.15039-0.54004 0-1.0801 0.27344-0.54004 0.2666-1.0801 0.68359 0.02051 0.15723 0.03418 0.36914 0.01367 0.20508 0.01367 0.41016v4.8877h-1.2852v-4.3477q0-0.50586-0.04785-0.95703-0.04102-0.45801-0.18457-0.73144-0.15723-0.29395-0.45117-0.4375-0.29394-0.15039-0.84766-0.15039-0.52637 0-1.0596 0.25977-0.52637 0.25976-1.0527 0.66309v5.7012h-1.2852v-7.6357h1.2852v0.84766q0.60156-0.49902 1.1963-0.7793 0.60156-0.28027 1.2783-0.28027 0.7793 0 1.3193 0.32812 0.54688 0.32812 0.81348 0.90918 0.7793-0.65625 1.4219-0.94336 0.64258-0.29394 1.374-0.29394 1.2578 0 1.8525 0.76562 0.60156 0.75879 0.60156 2.126z" color="#000000" style="-inkscape-stroke:none"/>
     <path d="m58.529-37.3h-5.626q0 0.7041 0.21191 1.2305 0.21191 0.51953 0.58106 0.85449 0.35547 0.32812 0.84082 0.49219 0.49219 0.16406 1.0801 0.16406 0.7793 0 1.5654-0.30762 0.79297-0.31445 1.1279-0.61524h0.06836v1.4014q-0.64941 0.27344-1.3262 0.45801-0.67676 0.18457-1.4219 0.18457-1.9004 0-2.9668-1.0254-1.0664-1.0322-1.0664-2.9258 0-1.873 1.0186-2.9736 1.0254-1.1006 2.6934-1.1006 1.5449 0 2.3789 0.90234 0.84082 0.90234 0.84082 2.5635zm-1.251-0.98438q-0.0068-1.0117-0.5127-1.5654-0.49902-0.55371-1.5244-0.55371-1.0322 0-1.6475 0.6084-0.6084 0.6084-0.69043 1.5107z" color="#000000" style="-inkscape-stroke:none"/>
     <path d="m65.933-35.817q0 1.0459-0.86816 1.7158-0.86133 0.66992-2.3584 0.66992-0.84766 0-1.5586-0.19824-0.7041-0.20508-1.1826-0.44434v-1.4424h0.06836q0.6084 0.45801 1.3535 0.73144 0.74512 0.2666 1.4287 0.2666 0.84766 0 1.3262-0.27344 0.47852-0.27344 0.47852-0.86133 0-0.45117-0.25976-0.68359-0.25977-0.23242-0.99805-0.39648-0.27344-0.06152-0.71777-0.14356-0.4375-0.08203-0.7998-0.17773-1.0049-0.2666-1.4287-0.7793-0.41699-0.51953-0.41699-1.2715 0-0.47168 0.19141-0.88867 0.19824-0.41699 0.59473-0.74512 0.38281-0.32129 0.9707-0.50586 0.59473-0.19141 1.3262-0.19141 0.68359 0 1.3809 0.1709 0.7041 0.16406 1.1689 0.40332v1.374h-0.06836q-0.49219-0.3623-1.1963-0.6084-0.7041-0.25293-1.3809-0.25293-0.7041 0-1.1895 0.27344-0.48535 0.2666-0.48535 0.7998 0 0.47168 0.29395 0.71094 0.28711 0.23926 0.92969 0.38965 0.35547 0.08203 0.79297 0.16406 0.44434 0.08203 0.73828 0.15039 0.89551 0.20508 1.3809 0.7041 0.48535 0.50586 0.48535 1.3398z" color="#000000" style="-inkscape-stroke:none"/>
     <path d="m71.736-33.684q-0.3623 0.0957-0.79297 0.15723-0.42383 0.06152-0.75879 0.06152-1.1689 0-1.7773-0.62891-0.6084-0.62891-0.6084-2.0166v-4.0605h-0.86816v-1.0801h0.86816v-2.1943h1.2852v2.1943h2.6523v1.0801h-2.6523v3.4795q0 0.60156 0.02734 0.94336 0.02734 0.33496 0.19141 0.62891 0.15039 0.27344 0.41016 0.40332 0.2666 0.12305 0.80664 0.12305 0.31445 0 0.65625-0.08887 0.3418-0.0957 0.49219-0.15723h0.06836z" color="#000000" style="-inkscape-stroke:none"/>
     <path d="m79.796-37.43q0 1.8662-0.95703 2.9463t-2.5635 1.0801q-1.6201 0-2.5771-1.0801-0.9502-1.0801-0.9502-2.9463t0.9502-2.9463q0.95703-1.0869 2.5771-1.0869 1.6064 0 2.5635 1.0869 0.95703 1.0801 0.95703 2.9463zm-1.3262 0q0-1.4834-0.58106-2.2012-0.58106-0.72461-1.6133-0.72461-1.0459 0-1.627 0.72461-0.57422 0.71777-0.57422 2.2012 0 1.4355 0.58105 2.1807 0.58106 0.73828 1.6201 0.73828 1.0254 0 1.6064-0.73145 0.58789-0.73828 0.58789-2.1875z" color="#000000" style="-inkscape-stroke:none"/>
     <path d="m88.17-33.616h-1.2852v-4.3477q0-0.52637-0.06152-0.98438-0.06152-0.46484-0.22559-0.72461-0.1709-0.28711-0.49219-0.42383-0.32129-0.14356-0.83398-0.14356-0.52637 0-1.1006 0.25977-0.57422 0.25976-1.1006 0.66309v5.7012h-1.2852v-7.6357h1.2852v0.84766q0.60156-0.49902 1.2441-0.7793 0.64258-0.28027 1.3193-0.28027 1.2373 0 1.8867 0.74512 0.64941 0.74512 0.64941 2.1465z" color="#000000" style="-inkscape-stroke:none"/>
     <path d="m97.036-37.3h-5.626q0 0.7041 0.21191 1.2305 0.21191 0.51953 0.58106 0.85449 0.35547 0.32812 0.84082 0.49219 0.49219 0.16406 1.0801 0.16406 0.7793 0 1.5654-0.30762 0.79297-0.31445 1.1279-0.61524h0.06836v1.4014q-0.64941 0.27344-1.3262 0.45801-0.67676 0.18457-1.4219 0.18457-1.9004 0-2.9668-1.0254-1.0664-1.0322-1.0664-2.9258 0-1.873 1.0186-2.9736 1.0254-1.1006 2.6934-1.1006 1.5449 0 2.3789 0.90234 0.84082 0.90234 0.84082 2.5635zm-1.251-0.98438q-0.0068-1.0117-0.5127-1.5654-0.49902-0.55371-1.5244-0.55371-1.0322 0-1.6475 0.6084-0.6084 0.6084-0.69043 1.5107z" color="#000000" style="-inkscape-stroke:none"/>
     <path d="m108.06-41.757q0-0.64941-0.38965-1.0186-0.38281-0.37598-0.98437-0.37598-0.62891 0-1.0254 0.42383-0.39649 0.41699-0.39649 1.0254 0 0.5127 0.26661 0.90918 0.27343 0.39648 1.1689 0.93652 0.66992-0.23926 1.0117-0.69726 0.34863-0.46484 0.34863-1.2031zm1.3262 5.9883-3.2676-3.1855q-0.21192 0.10254-0.42383 0.27344-0.21192 0.16406-0.42383 0.45117-0.19141 0.2666-0.31445 0.64258-0.12305 0.37598-0.12305 0.84766 0 0.99805 0.58106 1.6133 0.58789 0.6084 1.6611 0.6084 0.63574 0 1.2578-0.30762 0.62891-0.31445 1.0527-0.94336zm2.0576-4.0605v0.65625q0 0.65625-0.1709 1.4766-0.17089 0.82031-0.58105 1.5654l2.584 2.5156h-1.6816l-1.5654-1.5312q-0.78613 0.9707-1.6064 1.3604-0.82031 0.38281-1.6885 0.38281-1.4219 0-2.3652-0.82715-0.93653-0.83398-0.93653-2.1807 0-0.62891 0.17774-1.0869 0.17773-0.45801 0.41699-0.79297 0.23926-0.32129 0.59473-0.60156 0.35547-0.28711 0.71777-0.49902-0.75195-0.49219-1.0869-0.99121-0.32813-0.49902-0.32813-1.2578 0-0.45801 0.17774-0.86816 0.18457-0.41699 0.54687-0.75879 0.3418-0.32812 0.88867-0.5332 0.55371-0.20508 1.2168-0.20508 1.1826 0 1.9141 0.60156 0.73145 0.59473 0.73145 1.5107 0 0.30078-0.082 0.68359-0.082 0.37598-0.28028 0.67676-0.21875 0.33496-0.62207 0.64258t-1.0459 0.52637l2.5361 2.4746q0.0957-0.27344 0.14355-0.60156 0.0478-0.32812 0.0547-0.68359 0.0137-0.38281 7e-3 -0.85449 0-0.47168 0-0.7998z" color="#000000" style="-inkscape-stroke:none"/>
     <path d="m127.7-38.695q0 1.3877-0.6084 2.5156-0.60156 1.1279-1.6064 1.75-0.69726 0.43066-1.5586 0.62207-0.85449 0.19141-2.2559 0.19141h-2.5703v-10.179h2.543q1.4902 0 2.3652 0.21875 0.88184 0.21192 1.4902 0.58789 1.0391 0.64941 1.6201 1.7295 0.58106 1.0801 0.58106 2.5635zm-1.415-0.02051q0-1.1963-0.41699-2.0166-0.417-0.82031-1.2441-1.292-0.60157-0.3418-1.2783-0.47168-0.67676-0.13672-1.6201-0.13672h-1.2715v7.8545h1.2715q0.97754 0 1.7022-0.14356 0.73144-0.14355 1.3398-0.5332 0.75879-0.48535 1.1348-1.2783 0.38281-0.79297 0.38281-1.9824z" color="#000000" style="-inkscape-stroke:none"/>
     <path d="m136.29-37.43q0 1.8662-0.95703 2.9463t-2.5635 1.0801q-1.6201 0-2.5772-1.0801-0.95019-1.0801-0.95019-2.9463t0.95019-2.9463q0.95704-1.0869 2.5772-1.0869 1.6064 0 2.5635 1.0869 0.95703 1.0801 0.95703 2.9463zm-1.3262 0q0-1.4834-0.58106-2.2012-0.58105-0.72461-1.6133-0.72461-1.0459 0-1.627 0.72461-0.57422 0.71777-0.57422 2.2012 0 1.4355 0.58106 2.1807 0.58105 0.73828 1.6201 0.73828 1.0254 0 1.6064-0.73145 0.58789-0.73828 0.58789-2.1875z" color="#000000" style="-inkscape-stroke:none"/>
     <path d="m139.58-33.616h-1.2852v-10.637h1.2852z" color="#000000" style="-inkscape-stroke:none"/>
     <path d="m148.63-37.43q0 1.8662-0.95703 2.9463t-2.5635 1.0801q-1.6201 0-2.5772-1.0801-0.95019-1.0801-0.95019-2.9463t0.95019-2.9463q0.95703-1.0869 2.5772-1.0869 1.6064 0 2.5635 1.0869 0.95703 1.0801 0.95703 2.9463zm-1.3262 0q0-1.4834-0.58106-2.2012-0.58105-0.72461-1.6133-0.72461-1.0459 0-1.627 0.72461-0.57422 0.71777-0.57422 2.2012 0 1.4355 0.58105 2.1807 0.58106 0.73828 1.6201 0.73828 1.0254 0 1.6064-0.73145 0.58789-0.73828 0.58789-2.1875z" color="#000000" style="-inkscape-stroke:none"/>
     <path d="m161.77-33.616h-1.2852v-4.3477q0-0.49219-0.0479-0.9502-0.041-0.45801-0.18457-0.73144-0.15723-0.29395-0.45118-0.44434-0.29394-0.15039-0.84765-0.15039-0.54004 0-1.0801 0.27344-0.54004 0.2666-1.0801 0.68359 0.0205 0.15723 0.0342 0.36914 0.0137 0.20508 0.0137 0.41016v4.8877h-1.2852v-4.3477q0-0.50586-0.0479-0.95703-0.041-0.45801-0.18458-0.73144-0.15722-0.29395-0.45117-0.4375-0.29394-0.15039-0.84765-0.15039-0.52637 0-1.0596 0.25977-0.52637 0.25976-1.0527 0.66309v5.7012h-1.2852v-7.6357h1.2852v0.84766q0.60156-0.49902 1.1963-0.7793 0.60156-0.28027 1.2783-0.28027 0.7793 0 1.3193 0.32812 0.54687 0.32812 0.81347 0.90918 0.7793-0.65625 1.4219-0.94336 0.64258-0.29394 1.374-0.29394 1.2578 0 1.8525 0.76562 0.60156 0.75879 0.60156 2.126z" color="#000000" style="-inkscape-stroke:none"/>
     <path d="m165.62-42.53h-1.4492v-1.333h1.4492zm-0.082 8.9141h-1.2852v-7.6357h1.2852z" color="#000000" style="-inkscape-stroke:none"/>
     <path d="m172.05-33.684q-0.3623 0.0957-0.79296 0.15723-0.42383 0.06152-0.75879 0.06152-1.169 0-1.7774-0.62891t-0.6084-2.0166v-4.0605h-0.86816v-1.0801h0.86816v-2.1943h1.2852v2.1943h2.6523v1.0801h-2.6523v3.4795q0 0.60156 0.0273 0.94336 0.0274 0.33496 0.19141 0.62891 0.15039 0.27344 0.41016 0.40332 0.2666 0.12305 0.80664 0.12305 0.31445 0 0.65625-0.08887 0.34179-0.0957 0.49218-0.15723h0.0684z" color="#000000" style="-inkscape-stroke:none"/>
     <path d="m179.99-37.3h-5.626q0 0.7041 0.21191 1.2305 0.21191 0.51953 0.58106 0.85449 0.35546 0.32812 0.84082 0.49219 0.49218 0.16406 1.0801 0.16406 0.7793 0 1.5654-0.30762 0.79297-0.31445 1.1279-0.61524h0.0684v1.4014q-0.64941 0.27344-1.3262 0.45801-0.67676 0.18457-1.4219 0.18457-1.9004 0-2.9668-1.0254-1.0664-1.0322-1.0664-2.9258 0-1.873 1.0186-2.9736 1.0254-1.1006 2.6934-1.1006 1.5449 0 2.3789 0.90234 0.84082 0.90234 0.84082 2.5635zm-1.251-0.98438q-7e-3 -1.0117-0.5127-1.5654-0.49902-0.55371-1.5244-0.55371-1.0322 0-1.6475 0.6084-0.6084 0.6084-0.69043 1.5107z" color="#000000" style="-inkscape-stroke:none"/>
    </g>
    <g aria-label="in BGS">
     <path d="m81.97-25.73h-1.4492v-1.333h1.4492zm-0.08203 8.9141h-1.2852v-7.6357h1.2852z" color="#000000" style="-inkscape-stroke:none"/>
     <path d="m90.815-16.816h-1.2852v-4.3477q0-0.52637-0.06152-0.98438-0.06152-0.46484-0.22559-0.72461-0.1709-0.28711-0.49219-0.42383-0.32129-0.14356-0.83398-0.14356-0.52637 0-1.1006 0.25977-0.57422 0.25976-1.1006 0.66309v5.7012h-1.2852v-7.6357h1.2852v0.84766q0.60156-0.49902 1.2441-0.7793 0.64258-0.28027 1.3193-0.28027 1.2373 0 1.8867 0.74512 0.64941 0.74512 0.64941 2.1465z" color="#000000" style="-inkscape-stroke:none"/>
     <path d="m105.99-19.946q0 0.75879-0.28711 1.3398t-0.77246 0.95703q-0.57422 0.45117-1.2646 0.64258-0.68359 0.19141-1.7432 0.19141h-3.6094v-10.179h3.0146q1.1143 0 1.668 0.08203t1.0596 0.3418q0.56055 0.29394 0.81348 0.75879 0.25293 0.45801 0.25293 1.1006 0 0.72461-0.36914 1.2373-0.36915 0.50586-0.98438 0.81348v0.05469q1.0322 0.21192 1.627 0.90918 0.59473 0.69043 0.59473 1.75zm-2.2764-4.5869q0-0.36914-0.12304-0.62207-0.12305-0.25293-0.39649-0.41016-0.32129-0.18457-0.7793-0.22559-0.458-0.04785-1.1348-0.04785h-1.6133v2.9395h1.75q0.63574 0 1.0117-0.06152 0.37597-0.06836 0.69726-0.27344t0.45117-0.52637q0.13672-0.32812 0.13672-0.77246zm0.86817 4.6416q0-0.61524-0.18457-0.97754-0.18457-0.3623-0.66993-0.61524-0.32812-0.1709-0.7998-0.21875-0.46484-0.05469-1.1348-0.05469h-2.126v3.7871h1.791q0.88868 0 1.4561-0.08887 0.56738-0.0957 0.92969-0.3418 0.38281-0.2666 0.56054-0.6084 0.17774-0.3418 0.17774-0.88184z" color="#000000" style="-inkscape-stroke:none"/>
     <path d="m116.4-17.568q-0.83398 0.38281-1.8252 0.66992-0.98438 0.28027-1.9072 0.28027-1.1894 0-2.1807-0.32812t-1.6885-0.98438q-0.7041-0.66309-1.0869-1.6543-0.38282-0.99805-0.38282-2.3311 0-2.4404 1.4219-3.8486 1.4287-1.415 3.917-1.415 0.86816 0 1.7705 0.21191 0.90918 0.20508 1.9551 0.7041v1.6064h-0.12305q-0.21191-0.16406-0.61523-0.43066-0.40332-0.2666-0.79297-0.44434-0.47168-0.21191-1.0732-0.34863-0.59472-0.14355-1.3535-0.14355-1.709 0-2.707 1.1006-0.99121 1.0938-0.99121 2.9668 0 1.9756 1.0391 3.0762 1.0391 1.0938 2.8301 1.0938 0.65625 0 1.3057-0.12988 0.65625-0.12988 1.1484-0.33496v-2.4951h-2.7275v-1.1895h4.0674z" color="#000000" style="-inkscape-stroke:none"/>
     <path d="m126.16-19.721q0 0.59473-0.28027 1.1758-0.27344 0.58106-0.77246 0.98438-0.54688 0.4375-1.2783 0.68359-0.72461 0.24609-1.75 0.24609-1.1006 0-1.9824-0.20508-0.875-0.20508-1.7842-0.6084v-1.6953h0.0957q0.77246 0.64258 1.7842 0.99121t1.9004 0.34863q1.2578 0 1.9551-0.47168 0.7041-0.47168 0.7041-1.2578 0-0.67676-0.33496-0.99805-0.32813-0.32129-1.0049-0.49902-0.51269-0.13672-1.1142-0.22559-0.59473-0.08887-1.2646-0.22559-1.3535-0.28711-2.0098-0.97754-0.64941-0.69727-0.64941-1.8115 0-1.2783 1.0801-2.0918 1.0801-0.82031 2.7412-0.82031 1.0732 0 1.9688 0.20508 0.89551 0.20508 1.5859 0.50586v1.5996h-0.0957q-0.58105-0.49219-1.5312-0.81348-0.94336-0.32812-1.9346-0.32812-1.0869 0-1.75 0.45117-0.65625 0.45117-0.65625 1.1621 0 0.63574 0.32813 0.99805 0.32812 0.3623 1.1553 0.55371 0.4375 0.0957 1.2441 0.23242 0.80664 0.13672 1.3672 0.28027 1.1348 0.30078 1.709 0.90918 0.57422 0.6084 0.57422 1.7021z" color="#000000" style="-inkscape-stroke:none"/>
    </g>
   </g>
  </g>
  <g class="edge">
   <title>Crushed stone\nin BGS-&gt;Limestone &amp; Dolomite\nin BGS</title>
   <path d="m242.38-101.73c-24.166 12.455-54.348 28.01-80.447 41.461l0.45898 0.88867c26.099-13.451 56.282-29.006 80.447-41.461z" color="#000000" fill="#0f0" style="-inkscape-stroke:none"/>
   <g fill="#0f0">
    <path d="m163.61-56.638-10.492 1.4702 7.2855-7.6924z" color="#000000" style="-inkscape-stroke:none"/>
    <path d="m160.52-63.717-8.752 9.2422 12.605-1.7656-0.32422-0.62695zm-0.24414 1.7129 2.5625 4.9688-8.3789 1.1719z" color="#000000" style="-inkscape-stroke:none"/>
   </g>
  </g>
  <g class="node">
   <title>Igneous rock\nin BGS</title>
   <path d="m287.15-59.248c-17.442 0-33.234 3.2896-44.711 8.6387s-18.723 12.804-18.723 21.193 7.2455 15.844 18.723 21.193c11.477 5.3491 27.269 8.6387 44.711 8.6387 17.442 1.2e-7 33.236-3.2896 44.713-8.6387 11.477-5.3491 18.723-12.804 18.723-21.193s-7.2455-15.844-18.723-21.193c-11.477-5.3491-27.271-8.6387-44.713-8.6387zm0 1c17.316 0 32.99 3.2781 44.291 8.5449s18.145 12.477 18.145 20.287c0 7.8098-6.8439 15.02-18.145 20.287-11.301 5.2668-26.975 8.5449-44.291 8.5449-17.316 1.2e-7 -32.988-3.2781-44.289-8.5449-11.301-5.2668-18.145-12.477-18.145-20.287 0-7.8098 6.8439-15.02 18.145-20.287s26.973-8.5449 44.289-8.5449z" color="#000000" style="-inkscape-stroke:none"/>
   <g transform="translate(-.42383 1.0192)">
    <g aria-label="Igneous rock">
     <path d="m246.38-33.616h-4.0195v-1.0391h1.333v-8.1006h-1.333v-1.0391h4.0195v1.0391h-1.333v8.1006h1.333z" color="#000000" style="-inkscape-stroke:none"/>
     <path d="m254.78-34.484q0 1.9414-0.88184 2.8506-0.88184 0.90918-2.7139 0.90918-0.6084 0-1.1894-0.08887-0.57422-0.08203-1.1348-0.23926v-1.3125h0.0684q0.31446 0.12305 0.99805 0.30078 0.68359 0.18457 1.3672 0.18457 0.65625 0 1.0869-0.15723 0.43067-0.15723 0.66992-0.4375 0.23926-0.2666 0.3418-0.64258 0.10254-0.37598 0.10254-0.84082v-0.69727q-0.58106 0.46484-1.1143 0.69727-0.52637 0.22558-1.3467 0.22558-1.3672 0-2.1738-0.98438-0.7998-0.99121-0.7998-2.7891 0-0.98438 0.27344-1.6953 0.28027-0.71777 0.75879-1.2373 0.44433-0.48535 1.0801-0.75195 0.63575-0.27344 1.2646-0.27344 0.66309 0 1.1074 0.13672 0.45118 0.12988 0.9502 0.40332l0.082-0.32812h1.2031zm-1.2852-1.2305v-4.1631q-0.5127-0.23242-0.95703-0.32812-0.4375-0.10254-0.875-0.10254-1.0596 0-1.668 0.71094-0.6084 0.71094-0.6084 2.0645 0 1.2852 0.45117 1.9482t1.4971 0.66309q0.56055 0 1.1211-0.21191 0.56738-0.21875 1.0391-0.58105z" color="#000000" style="-inkscape-stroke:none"/>
     <path d="m263.69-33.616h-1.2852v-4.3477q0-0.52637-0.0615-0.98438-0.0615-0.46484-0.22559-0.72461-0.1709-0.28711-0.49218-0.42383-0.32129-0.14356-0.83399-0.14356-0.52637 0-1.1006 0.25977-0.57421 0.25976-1.1006 0.66309v5.7012h-1.2852v-7.6357h1.2852v0.84766q0.60156-0.49902 1.2441-0.7793 0.64258-0.28027 1.3193-0.28027 1.2373 0 1.8867 0.74512 0.64942 0.74512 0.64942 2.1465z" color="#000000" style="-inkscape-stroke:none"/>
     <path d="m272.56-37.3h-5.626q0 0.7041 0.21192 1.2305 0.21191 0.51953 0.58105 0.85449 0.35547 0.32812 0.84082 0.49219 0.49219 0.16406 1.0801 0.16406 0.7793 0 1.5654-0.30762 0.79297-0.31445 1.1279-0.61524h0.0684v1.4014q-0.64942 0.27344-1.3262 0.45801-0.67676 0.18457-1.4219 0.18457-1.9004 0-2.9668-1.0254-1.0664-1.0322-1.0664-2.9258 0-1.873 1.0186-2.9736 1.0254-1.1006 2.6934-1.1006 1.5449 0 2.3789 0.90234 0.84082 0.90234 0.84082 2.5635zm-1.251-0.98438q-7e-3 -1.0117-0.51269-1.5654-0.49903-0.55371-1.5244-0.55371-1.0322 0-1.6475 0.6084-0.6084 0.6084-0.69043 1.5107z" color="#000000" style="-inkscape-stroke:none"/>
     <path d="m281.02-37.43q0 1.8662-0.95703 2.9463t-2.5635 1.0801q-1.6201 0-2.5772-1.0801-0.9502-1.0801-0.9502-2.9463t0.9502-2.9463q0.95703-1.0869 2.5772-1.0869 1.6064 0 2.5635 1.0869 0.95703 1.0801 0.95703 2.9463zm-1.3262 0q0-1.4834-0.58105-2.2012-0.58106-0.72461-1.6133-0.72461-1.0459 0-1.627 0.72461-0.57422 0.71777-0.57422 2.2012 0 1.4355 0.58106 2.1807 0.58105 0.73828 1.6201 0.73828 1.0254 0 1.6064-0.73145 0.58789-0.73828 0.58789-2.1875z" color="#000000" style="-inkscape-stroke:none"/>
     <path d="m289.33-33.616h-1.2852v-0.84766q-0.64941 0.5127-1.2441 0.78613-0.59472 0.27344-1.3125 0.27344-1.2031 0-1.873-0.73144-0.66993-0.73828-0.66993-2.1602v-4.9561h1.2852v4.3477q0 0.58106 0.0547 0.99805 0.0547 0.41016 0.23242 0.7041 0.18457 0.30078 0.47852 0.4375 0.29394 0.13672 0.85449 0.13672 0.49902 0 1.0869-0.25977 0.59473-0.25977 1.1074-0.66309v-5.7012h1.2852z" color="#000000" style="-inkscape-stroke:none"/>
     <path d="m297.32-35.817q0 1.0459-0.86816 1.7158-0.86133 0.66992-2.3584 0.66992-0.84765 0-1.5586-0.19824-0.7041-0.20508-1.1826-0.44434v-1.4424h0.0684q0.6084 0.45801 1.3535 0.73144 0.74511 0.2666 1.4287 0.2666 0.84765 0 1.3262-0.27344 0.47851-0.27344 0.47851-0.86133 0-0.45117-0.25976-0.68359-0.25977-0.23242-0.99805-0.39648-0.27344-0.06152-0.71777-0.14356-0.4375-0.08203-0.79981-0.17773-1.0049-0.2666-1.4287-0.7793-0.41699-0.51953-0.41699-1.2715 0-0.47168 0.19141-0.88867 0.19824-0.41699 0.59472-0.74512 0.38282-0.32129 0.97071-0.50586 0.59472-0.19141 1.3262-0.19141 0.68359 0 1.3809 0.1709 0.7041 0.16406 1.1689 0.40332v1.374h-0.0684q-0.49218-0.3623-1.1963-0.6084-0.70411-0.25293-1.3809-0.25293-0.70411 0-1.1895 0.27344-0.48535 0.2666-0.48535 0.7998 0 0.47168 0.29395 0.71094 0.28711 0.23926 0.92968 0.38965 0.35547 0.08203 0.79297 0.16406 0.44434 0.08203 0.73828 0.15039 0.89551 0.20508 1.3809 0.7041 0.48535 0.50586 0.48535 1.3398z" color="#000000" style="-inkscape-stroke:none"/>
     <path d="m308.84-39.85h-0.0684q-0.28711-0.06836-0.56055-0.0957-0.2666-0.03418-0.63574-0.03418-0.59473 0-1.1484 0.2666-0.55371 0.25977-1.0664 0.67676v5.4209h-1.2852v-7.6357h1.2852v1.1279q0.76563-0.61523 1.3467-0.86816 0.58789-0.25977 1.1963-0.25977 0.33496 0 0.48535 0.02051 0.15039 0.01367 0.45118 0.06152z" color="#000000" style="-inkscape-stroke:none"/>
     <path d="m316.56-37.43q0 1.8662-0.95703 2.9463t-2.5635 1.0801q-1.6201 0-2.5772-1.0801-0.95019-1.0801-0.95019-2.9463t0.95019-2.9463q0.95703-1.0869 2.5772-1.0869 1.6064 0 2.5635 1.0869 0.95703 1.0801 0.95703 2.9463zm-1.3262 0q0-1.4834-0.58106-2.2012-0.58105-0.72461-1.6133-0.72461-1.0459 0-1.627 0.72461-0.57422 0.71777-0.57422 2.2012 0 1.4355 0.58105 2.1807 0.58106 0.73828 1.6201 0.73828 1.0254 0 1.6064-0.73145 0.58789-0.73828 0.58789-2.1875z" color="#000000" style="-inkscape-stroke:none"/>
     <path d="m324.2-34.094q-0.64258 0.30762-1.2236 0.47852-0.57422 0.1709-1.2236 0.1709-0.82715 0-1.5176-0.23926-0.69043-0.24609-1.1826-0.73828-0.49902-0.49219-0.77246-1.2441t-0.27344-1.7568q0-1.873 1.0254-2.9395 1.0322-1.0664 2.7207-1.0664 0.65625 0 1.2852 0.18457 0.63574 0.18457 1.1621 0.45117v1.4287h-0.0684q-0.58789-0.45801-1.2168-0.7041-0.62207-0.24609-1.2168-0.24609-1.0938 0-1.7295 0.73828-0.62891 0.73144-0.62891 2.1533 0 1.3809 0.61523 2.126 0.62207 0.73828 1.7432 0.73828 0.38965 0 0.79297-0.10254t0.72461-0.2666q0.28027-0.14355 0.52636-0.30078 0.2461-0.16406 0.38965-0.28027h0.0684z" color="#000000" style="-inkscape-stroke:none"/>
     <path d="m332.78-33.616h-1.6953l-3.0625-3.3428-0.83398 0.79297v2.5498h-1.2852v-10.637h1.2852v6.8223l3.7119-3.8213h1.6201l-3.5478 3.5273z" color="#000000" style="-inkscape-stroke:none"/>
    </g>
    <g aria-label="in BGS">
     <path d="m265.97-25.73h-1.4492v-1.333h1.4492zm-0.082 8.9141h-1.2852v-7.6357h1.2852z" color="#000000" style="-inkscape-stroke:none"/>
     <path d="m274.82-16.816h-1.2852v-4.3477q0-0.52637-0.0615-0.98438-0.0615-0.46484-0.22559-0.72461-0.1709-0.28711-0.49218-0.42383-0.32129-0.14356-0.83399-0.14356-0.52637 0-1.1006 0.25977-0.57422 0.25976-1.1006 0.66309v5.7012h-1.2852v-7.6357h1.2852v0.84766q0.60156-0.49902 1.2441-0.7793 0.64258-0.28027 1.3193-0.28027 1.2373 0 1.8867 0.74512 0.64942 0.74512 0.64942 2.1465z" color="#000000" style="-inkscape-stroke:none"/>
     <path d="m289.99-19.946q0 0.75879-0.28711 1.3398t-0.77246 0.95703q-0.57422 0.45117-1.2646 0.64258-0.68359 0.19141-1.7432 0.19141h-3.6094v-10.179h3.0146q1.1143 0 1.668 0.08203t1.0596 0.3418q0.56055 0.29394 0.81348 0.75879 0.25293 0.45801 0.25293 1.1006 0 0.72461-0.36914 1.2373-0.36915 0.50586-0.98438 0.81348v0.05469q1.0322 0.21192 1.627 0.90918 0.59473 0.69043 0.59473 1.75zm-2.2764-4.5869q0-0.36914-0.12304-0.62207-0.12305-0.25293-0.39649-0.41016-0.32129-0.18457-0.7793-0.22559-0.458-0.04785-1.1348-0.04785h-1.6133v2.9395h1.75q0.63574 0 1.0117-0.06152 0.37597-0.06836 0.69726-0.27344t0.45117-0.52637q0.13672-0.32812 0.13672-0.77246zm0.86817 4.6416q0-0.61524-0.18457-0.97754-0.18457-0.3623-0.66993-0.61524-0.32812-0.1709-0.7998-0.21875-0.46484-0.05469-1.1348-0.05469h-2.126v3.7871h1.791q0.88868 0 1.4561-0.08887 0.56738-0.0957 0.92969-0.3418 0.38281-0.2666 0.56054-0.6084 0.17774-0.3418 0.17774-0.88184z" color="#000000" style="-inkscape-stroke:none"/>
     <path d="m300.4-17.568q-0.83398 0.38281-1.8252 0.66992-0.98438 0.28027-1.9072 0.28027-1.1894 0-2.1807-0.32812t-1.6885-0.98438q-0.7041-0.66309-1.0869-1.6543-0.38282-0.99805-0.38282-2.3311 0-2.4404 1.4219-3.8486 1.4287-1.415 3.917-1.415 0.86816 0 1.7705 0.21191 0.90918 0.20508 1.9551 0.7041v1.6064h-0.12305q-0.21191-0.16406-0.61523-0.43066-0.40332-0.2666-0.79297-0.44434-0.47168-0.21191-1.0732-0.34863-0.59472-0.14355-1.3535-0.14355-1.709 0-2.707 1.1006-0.99121 1.0938-0.99121 2.9668 0 1.9756 1.0391 3.0762 1.0391 1.0938 2.8301 1.0938 0.65625 0 1.3057-0.12988 0.65625-0.12988 1.1484-0.33496v-2.4951h-2.7275v-1.1895h4.0674z" color="#000000" style="-inkscape-stroke:none"/>
     <path d="m310.16-19.721q0 0.59473-0.28027 1.1758-0.27344 0.58106-0.77246 0.98438-0.54688 0.4375-1.2783 0.68359-0.72461 0.24609-1.75 0.24609-1.1006 0-1.9824-0.20508-0.875-0.20508-1.7842-0.6084v-1.6953h0.0957q0.77246 0.64258 1.7842 0.99121t1.9004 0.34863q1.2578 0 1.9551-0.47168 0.7041-0.47168 0.7041-1.2578 0-0.67676-0.33496-0.99805-0.32813-0.32129-1.0049-0.49902-0.51269-0.13672-1.1142-0.22559-0.59473-0.08887-1.2646-0.22559-1.3535-0.28711-2.0098-0.97754-0.64941-0.69727-0.64941-1.8115 0-1.2783 1.0801-2.0918 1.0801-0.82031 2.7412-0.82031 1.0732 0 1.9688 0.20508 0.89551 0.20508 1.5859 0.50586v1.5996h-0.0957q-0.58105-0.49219-1.5312-0.81348-0.94336-0.32812-1.9346-0.32812-1.0869 0-1.75 0.45117-0.65625 0.45117-0.65625 1.1621 0 0.63574 0.32813 0.99805 0.32812 0.3623 1.1553 0.55371 0.4375 0.0957 1.2441 0.23242 0.80664 0.13672 1.3672 0.28027 1.1348 0.30078 1.709 0.90918 0.57422 0.6084 0.57422 1.7021z" color="#000000" style="-inkscape-stroke:none"/>
    </g>
   </g>
  </g>
  <g class="edge">
   <title>Crushed stone\nin BGS-&gt;Igneous rock\nin BGS</title>
   <path d="m286.65-94.762v25.65h1v-25.65z" color="#000000" fill="#0f0" style="-inkscape-stroke:none"/>
   <g fill="#0f0">
    <path d="m290.65-68.883-3.5001 10-3.4999-10z" color="#000000" style="-inkscape-stroke:none"/>
    <path d="m282.94-69.383 4.2031 12.014 4.2051-12.014h-0.70312zm1.4082 1h5.5918l-2.7949 7.9863z" color="#000000" style="-inkscape-stroke:none"/>
   </g>
  </g>
  <g class="node">
   <title>Sandstone\nin BGS</title>
   <path d="m420.15-59.248c-14.439 0-27.515 3.2948-37.021 8.6562s-15.488 12.837-15.488 21.176c0 8.3392 5.9813 15.814 15.488 21.176 9.507 5.3614 22.583 8.6563 37.021 8.6563 14.439-1e-8 27.516-3.2948 37.023-8.6563 9.507-5.3614 15.488-12.837 15.488-21.176 0-8.3392-5.9813-15.814-15.488-21.176s-22.585-8.6562-37.023-8.6562zm0 1c14.286 0 27.216 3.2728 36.533 8.5273s14.979 12.445 14.979 20.305c0 7.8601-5.6611 15.05-14.979 20.305-9.3174 5.2545-22.247 8.5273-36.533 8.5273-14.286 0-27.214-3.2728-36.531-8.5273-9.3174-5.2545-14.979-12.445-14.979-20.305 0-7.8601 5.6611-15.05 14.979-20.305 9.3174-5.2545 22.245-8.5273 36.531-8.5273z" color="#000000" style="-inkscape-stroke:none"/>
   <g aria-label="Sandstone">
    <path d="m391.88-36.521q0 0.59473-0.28027 1.1758-0.27344 0.58106-0.77246 0.98438-0.54688 0.4375-1.2783 0.68359-0.72461 0.24609-1.75 0.24609-1.1006 0-1.9824-0.20508-0.875-0.20508-1.7842-0.6084v-1.6953h0.0957q0.77246 0.64258 1.7842 0.99121 1.0117 0.34863 1.9004 0.34863 1.2578 0 1.9551-0.47168 0.7041-0.47168 0.7041-1.2578 0-0.67676-0.33496-0.99805-0.32813-0.32129-1.0049-0.49902-0.51269-0.13672-1.1142-0.22559-0.59473-0.08887-1.2646-0.22559-1.3535-0.28711-2.0098-0.97754-0.64941-0.69727-0.64941-1.8115 0-1.2783 1.0801-2.0918 1.0801-0.82031 2.7412-0.82031 1.0732 0 1.9688 0.20508 0.8955 0.20508 1.5859 0.50586v1.5996h-0.0957q-0.58105-0.49219-1.5312-0.81348-0.94336-0.32812-1.9346-0.32812-1.0869 0-1.75 0.45117-0.65625 0.45117-0.65625 1.1621 0 0.63574 0.32813 0.99805 0.32812 0.3623 1.1553 0.55371 0.4375 0.0957 1.2441 0.23242 0.80664 0.13672 1.3672 0.28027 1.1348 0.30078 1.709 0.90918 0.57422 0.6084 0.57422 1.7021z" color="#000000" style="-inkscape-stroke:none"/>
    <path d="m399.88-33.616h-1.2783v-0.81348q-0.1709 0.11621-0.46484 0.32812-0.28711 0.20508-0.56055 0.32812-0.32129 0.15723-0.73828 0.25976-0.41699 0.10938-0.97754 0.10938-1.0322 0-1.75-0.68359-0.71777-0.68359-0.71777-1.7432 0-0.86816 0.36914-1.4014 0.37598-0.54004 1.0664-0.84766 0.69726-0.30762 1.6748-0.41699t2.0986-0.16406v-0.19824q0-0.4375-0.15722-0.72461-0.15039-0.28711-0.4375-0.45117-0.27344-0.15723-0.65625-0.21191-0.38282-0.05469-0.79981-0.05469-0.50586 0-1.1279 0.13672-0.62207 0.12988-1.2852 0.38281h-0.0684v-1.3057q0.37597-0.10254 1.0869-0.22559t1.4014-0.12305q0.80664 0 1.4014 0.13672 0.60157 0.12988 1.0391 0.45117 0.43066 0.31445 0.65625 0.81348 0.22558 0.49902 0.22558 1.2373zm-1.2783-1.8799v-2.126q-0.58789 0.03418-1.3877 0.10254-0.79297 0.06836-1.2578 0.19824-0.55372 0.15723-0.89551 0.49219-0.3418 0.32812-0.3418 0.90918 0 0.65625 0.39648 0.99121 0.39649 0.32812 1.21 0.32812 0.67675 0 1.2373-0.25976 0.56055-0.2666 1.0391-0.63574z" color="#000000" style="-inkscape-stroke:none"/>
    <path d="m408.74-33.616h-1.2852v-4.3477q0-0.52637-0.0615-0.98438-0.0615-0.46484-0.22559-0.72461-0.1709-0.28711-0.49218-0.42383-0.32129-0.14356-0.83399-0.14356-0.52637 0-1.1006 0.25977-0.57421 0.25976-1.1006 0.66309v5.7012h-1.2852v-7.6357h1.2852v0.84766q0.60156-0.49902 1.2441-0.7793 0.64258-0.28027 1.3193-0.28027 1.2373 0 1.8867 0.74512 0.64942 0.74512 0.64942 2.1465z" color="#000000" style="-inkscape-stroke:none"/>
    <path d="m417.41-33.616h-1.2852v-0.7998q-0.55371 0.47852-1.1553 0.74512-0.60157 0.2666-1.3057 0.2666-1.3672 0-2.1738-1.0527-0.79981-1.0527-0.79981-2.9189 0-0.9707 0.27344-1.7295 0.28027-0.75879 0.75195-1.292 0.46484-0.51953 1.0801-0.79297 0.62207-0.27344 1.2852-0.27344 0.60156 0 1.0664 0.12988 0.46485 0.12305 0.97754 0.38965v-3.3086h1.2852zm-1.2852-1.8799v-4.3818q-0.51953-0.23242-0.92969-0.32129-0.41015-0.08887-0.8955-0.08887-1.0801 0-1.6816 0.75195-0.60156 0.75195-0.60156 2.1328 0 1.3604 0.46485 2.0713 0.46484 0.7041 1.4902 0.7041 0.54688 0 1.1074-0.23926 0.56055-0.24609 1.0459-0.62891z" color="#000000" style="-inkscape-stroke:none"/>
    <path d="m425.39-35.817q0 1.0459-0.86816 1.7158-0.86133 0.66992-2.3584 0.66992-0.84766 0-1.5586-0.19824-0.70411-0.20508-1.1826-0.44434v-1.4424h0.0684q0.6084 0.45801 1.3535 0.73144 0.74512 0.2666 1.4287 0.2666 0.84766 0 1.3262-0.27344 0.47851-0.27344 0.47851-0.86133 0-0.45117-0.25976-0.68359-0.25977-0.23242-0.99805-0.39648-0.27344-0.06152-0.71777-0.14356-0.4375-0.08203-0.79981-0.17773-1.0049-0.2666-1.4287-0.7793-0.41699-0.51953-0.41699-1.2715 0-0.47168 0.1914-0.88867 0.19825-0.41699 0.59473-0.74512 0.38281-0.32129 0.9707-0.50586 0.59473-0.19141 1.3262-0.19141 0.68359 0 1.3809 0.1709 0.7041 0.16406 1.1689 0.40332v1.374h-0.0684q-0.49219-0.3623-1.1963-0.6084-0.7041-0.25293-1.3809-0.25293-0.7041 0-1.1894 0.27344-0.48535 0.2666-0.48535 0.7998 0 0.47168 0.29394 0.71094 0.28711 0.23926 0.92969 0.38965 0.35547 0.08203 0.79297 0.16406 0.44434 0.08203 0.73828 0.15039 0.89551 0.20508 1.3809 0.7041 0.48535 0.50586 0.48535 1.3398z" color="#000000" style="-inkscape-stroke:none"/>
    <path d="m431.2-33.684q-0.3623 0.0957-0.79297 0.15723-0.42382 0.06152-0.75878 0.06152-1.169 0-1.7774-0.62891t-0.6084-2.0166v-4.0605h-0.86816v-1.0801h0.86816v-2.1943h1.2852v2.1943h2.6523v1.0801h-2.6523v3.4795q0 0.60156 0.0273 0.94336 0.0273 0.33496 0.19141 0.62891 0.15039 0.27344 0.41016 0.40332 0.2666 0.12305 0.80664 0.12305 0.31445 0 0.65625-0.08887 0.34179-0.0957 0.49218-0.15723h0.0684z" color="#000000" style="-inkscape-stroke:none"/>
    <path d="m439.26-37.43q0 1.8662-0.95703 2.9463t-2.5635 1.0801q-1.6201 0-2.5772-1.0801-0.9502-1.0801-0.9502-2.9463t0.9502-2.9463q0.95703-1.0869 2.5772-1.0869 1.6064 0 2.5635 1.0869 0.95703 1.0801 0.95703 2.9463zm-1.3262 0q0-1.4834-0.58105-2.2012-0.58106-0.72461-1.6133-0.72461-1.0459 0-1.627 0.72461-0.57422 0.71777-0.57422 2.2012 0 1.4355 0.58106 2.1807 0.58105 0.73828 1.6201 0.73828 1.0254 0 1.6064-0.73145 0.58789-0.73828 0.58789-2.1875z" color="#000000" style="-inkscape-stroke:none"/>
    <path d="m447.63-33.616h-1.2852v-4.3477q0-0.52637-0.0615-0.98438-0.0615-0.46484-0.22559-0.72461-0.1709-0.28711-0.49219-0.42383-0.32129-0.14356-0.83398-0.14356-0.52637 0-1.1006 0.25977-0.57422 0.25976-1.1006 0.66309v5.7012h-1.2852v-7.6357h1.2852v0.84766q0.60156-0.49902 1.2441-0.7793 0.64258-0.28027 1.3193-0.28027 1.2373 0 1.8867 0.74512 0.64942 0.74512 0.64942 2.1465z" color="#000000" style="-inkscape-stroke:none"/>
    <path d="m456.5-37.3h-5.626q0 0.7041 0.21192 1.2305 0.21191 0.51953 0.58105 0.85449 0.35547 0.32812 0.84082 0.49219 0.49219 0.16406 1.0801 0.16406 0.7793 0 1.5654-0.30762 0.79297-0.31445 1.1279-0.61524h0.0684v1.4014q-0.64942 0.27344-1.3262 0.45801-0.67676 0.18457-1.4219 0.18457-1.9004 0-2.9668-1.0254-1.0664-1.0322-1.0664-2.9258 0-1.873 1.0186-2.9736 1.0254-1.1006 2.6934-1.1006 1.5449 0 2.3789 0.90234 0.84082 0.90234 0.84082 2.5635zm-1.251-0.98438q-7e-3 -1.0117-0.51269-1.5654-0.49903-0.55371-1.5244-0.55371-1.0322 0-1.6475 0.6084-0.6084 0.6084-0.69043 1.5107z" color="#000000" style="-inkscape-stroke:none"/>
   </g>
   <g aria-label="in BGS">
    <path d="m398.97-25.73h-1.4492v-1.333h1.4492zm-0.082 8.9141h-1.2852v-7.6357h1.2852z" color="#000000" style="-inkscape-stroke:none"/>
    <path d="m407.82-16.816h-1.2852v-4.3477q0-0.52637-0.0615-0.98438-0.0615-0.46484-0.22559-0.72461-0.1709-0.28711-0.49218-0.42383-0.32129-0.14356-0.83399-0.14356-0.52637 0-1.1006 0.25977-0.57422 0.25976-1.1006 0.66309v5.7012h-1.2852v-7.6357h1.2852v0.84766q0.60156-0.49902 1.2441-0.7793 0.64258-0.28027 1.3193-0.28027 1.2373 0 1.8867 0.74512 0.64942 0.74512 0.64942 2.1465z" color="#000000" style="-inkscape-stroke:none"/>
    <path d="m422.99-19.946q0 0.75879-0.28711 1.3398t-0.77246 0.95703q-0.57422 0.45117-1.2646 0.64258-0.68359 0.19141-1.7432 0.19141h-3.6094v-10.179h3.0146q1.1143 0 1.668 0.08203t1.0596 0.3418q0.56055 0.29394 0.81348 0.75879 0.25293 0.45801 0.25293 1.1006 0 0.72461-0.36914 1.2373-0.36915 0.50586-0.98438 0.81348v0.05469q1.0322 0.21192 1.627 0.90918 0.59473 0.69043 0.59473 1.75zm-2.2764-4.5869q0-0.36914-0.12304-0.62207-0.12305-0.25293-0.39649-0.41016-0.32129-0.18457-0.7793-0.22559-0.458-0.04785-1.1348-0.04785h-1.6133v2.9395h1.75q0.63574 0 1.0117-0.06152 0.37597-0.06836 0.69726-0.27344t0.45117-0.52637q0.13672-0.32812 0.13672-0.77246zm0.86817 4.6416q0-0.61524-0.18457-0.97754-0.18457-0.3623-0.66993-0.61524-0.32812-0.1709-0.7998-0.21875-0.46484-0.05469-1.1348-0.05469h-2.126v3.7871h1.791q0.88868 0 1.4561-0.08887 0.56738-0.0957 0.92969-0.3418 0.38281-0.2666 0.56054-0.6084 0.17774-0.3418 0.17774-0.88184z" color="#000000" style="-inkscape-stroke:none"/>
    <path d="m433.4-17.568q-0.83398 0.38281-1.8252 0.66992-0.98438 0.28027-1.9072 0.28027-1.1894 0-2.1807-0.32812t-1.6885-0.98438q-0.7041-0.66309-1.0869-1.6543-0.38282-0.99805-0.38282-2.3311 0-2.4404 1.4219-3.8486 1.4287-1.415 3.917-1.415 0.86816 0 1.7705 0.21191 0.90918 0.20508 1.9551 0.7041v1.6064h-0.12305q-0.21191-0.16406-0.61523-0.43066-0.40332-0.2666-0.79297-0.44434-0.47168-0.21191-1.0732-0.34863-0.59472-0.14355-1.3535-0.14355-1.709 0-2.707 1.1006-0.99121 1.0938-0.99121 2.9668 0 1.9756 1.0391 3.0762 1.0391 1.0938 2.8301 1.0938 0.65625 0 1.3057-0.12988 0.65625-0.12988 1.1484-0.33496v-2.4951h-2.7275v-1.1895h4.0674z" color="#000000" style="-inkscape-stroke:none"/>
    <path d="m443.16-19.721q0 0.59473-0.28027 1.1758-0.27344 0.58106-0.77246 0.98438-0.54688 0.4375-1.2783 0.68359-0.72461 0.24609-1.75 0.24609-1.1006 0-1.9824-0.20508-0.875-0.20508-1.7842-0.6084v-1.6953h0.0957q0.77246 0.64258 1.7842 0.99121t1.9004 0.34863q1.2578 0 1.9551-0.47168 0.7041-0.47168 0.7041-1.2578 0-0.67676-0.33496-0.99805-0.32813-0.32129-1.0049-0.49902-0.51269-0.13672-1.1142-0.22559-0.59473-0.08887-1.2646-0.22559-1.3535-0.28711-2.0098-0.97754-0.64941-0.69727-0.64941-1.8115 0-1.2783 1.0801-2.0918 1.0801-0.82031 2.7412-0.82031 1.0732 0 1.9688 0.20508 0.89551 0.20508 1.5859 0.50586v1.5996h-0.0957q-0.58105-0.49219-1.5312-0.81348-0.94336-0.32812-1.9346-0.32812-1.0869 0-1.75 0.45117-0.65625 0.45117-0.65625 1.1621 0 0.63574 0.32813 0.99805 0.32812 0.3623 1.1553 0.55371 0.4375 0.0957 1.2441 0.23242 0.80664 0.13672 1.3672 0.28027 1.1348 0.30078 1.709 0.90918 0.57422 0.6084 0.57422 1.7021z" color="#000000" style="-inkscape-stroke:none"/>
   </g>
  </g>
  <g class="edge">
   <title>Crushed stone\nin BGS-&gt;Sandstone\nin BGS</title>
   <path d="m323.08-99.24-0.58203 0.8125c17.325 12.353 38.241 27.267 56.238 40.1l0.58008-0.81445c-17.997-12.832-38.912-27.745-56.236-40.098z" color="#000000" fill="#0f0" style="-inkscape-stroke:none"/>
   <g fill="#0f0">
    <path d="m381.49-61.279 6.1103 8.6553-10.174-2.9558z" color="#000000" style="-inkscape-stroke:none"/>
    <path d="m381.49-62.143-0.4082 0.57422-4.4746 6.2734 12.223 3.5508zm-4e-3 1.7266 4.8809 6.9141-8.127-2.3594z" color="#000000" style="-inkscape-stroke:none"/>
   </g>
  </g>
  <g class="node">
   <title>Sand &amp; Gravel in BGS</title>
   <path d="m475.15-142.75c-27.683 0-52.745 2.0141-70.914 5.2793-9.0847 1.6326-16.443 3.5748-21.572 5.7539-2.5644 1.0896-4.5731 2.2355-5.9707 3.4629-1.3976 1.2274-2.2051 2.5733-2.2051 4.0039 0 1.4306 0.80747 2.7746 2.2051 4.002 1.3976 1.2274 3.4063 2.3733 5.9707 3.4629 5.1288 2.1791 12.488 4.1213 21.572 5.7539 18.169 3.2652 43.231 5.2812 70.914 5.2812 27.683 0 52.745-2.0161 70.914-5.2812 9.0847-1.6326 16.445-3.5748 21.574-5.7539 2.5644-1.0896 4.5731-2.2355 5.9707-3.4629 1.3976-1.2274 2.2051-2.5714 2.2051-4.002 0-1.4306-0.80747-2.7765-2.2051-4.0039-1.3976-1.2274-3.4063-2.3733-5.9707-3.4629-5.1288-2.1791-12.49-4.1213-21.574-5.7539-18.169-3.2652-43.231-5.2793-70.914-5.2793zm0 1c27.635 0 52.656 2.0141 70.738 5.2637 9.0411 1.6248 16.351 3.5616 21.359 5.6894 2.5041 1.0639 4.4303 2.1788 5.7012 3.2949s1.8652 2.1973 1.8652 3.252c0 1.0547-0.59435 2.1358-1.8652 3.252s-3.1971 2.229-5.7012 3.293c-5.0082 2.1278-12.318 4.0647-21.359 5.6894-18.082 3.2495-43.103 5.2656-70.738 5.2656s-52.654-2.0161-70.736-5.2656c-9.0411-1.6248-16.351-3.5616-21.359-5.6894-2.5041-1.0639-4.4303-2.1769-5.7012-3.293s-1.8652-2.1973-1.8652-3.252c0-1.0547 0.59435-2.1358 1.8652-3.252s3.1971-2.231 5.7012-3.2949c5.0082-2.1278 12.318-4.0647 21.359-5.6894 18.082-3.2495 43.101-5.2637 70.736-5.2637z" color="#000000" style="-inkscape-stroke:none"/>
   <g aria-label="Sand &amp; Gravel in BGS">
    <path d="m407.17-121.94q0 0.59472-0.28028 1.1758-0.27343 0.58105-0.77246 0.98437-0.54687 0.4375-1.2783 0.6836-0.72461 0.24609-1.75 0.24609-1.1006 0-1.9824-0.20508-0.875-0.20508-1.7842-0.6084v-1.6953h0.0957q0.77247 0.64258 1.7842 0.99121 1.0117 0.34863 1.9004 0.34863 1.2578 0 1.9551-0.47167 0.7041-0.47168 0.7041-1.2578 0-0.67676-0.33496-0.99804-0.32812-0.32129-1.0049-0.49903-0.51269-0.13672-1.1143-0.22558-0.59472-0.0889-1.2646-0.22559-1.3535-0.28711-2.0098-0.97754-0.64942-0.69726-0.64942-1.8115 0-1.2783 1.0801-2.0918 1.0801-0.82031 2.7412-0.82031 1.0732 0 1.9688 0.20508 0.89551 0.20507 1.5859 0.50586v1.5996h-0.0957q-0.58106-0.49219-1.5312-0.81348-0.94336-0.32813-1.9346-0.32813-1.0869 0-1.75 0.45118-0.65625 0.45117-0.65625 1.1621 0 0.63574 0.32812 0.99804 0.32813 0.36231 1.1553 0.55371 0.4375 0.0957 1.2441 0.23242t1.3672 0.28028q1.1348 0.30078 1.709 0.90918t0.57422 1.7022z" color="#000000" style="-inkscape-stroke:none"/>
    <path d="m415.18-119.03h-1.2783v-0.81348q-0.1709 0.11621-0.46484 0.32813-0.28711 0.20508-0.56055 0.32812-0.32129 0.15723-0.73828 0.25977-0.41699 0.10937-0.97754 0.10937-1.0322 0-1.75-0.68359t-0.71777-1.7432q0-0.86817 0.36914-1.4014 0.37597-0.54004 1.0664-0.84766 0.69727-0.30761 1.6748-0.41699 0.97754-0.10937 2.0986-0.16406v-0.19824q0-0.4375-0.15723-0.72461-0.15039-0.28711-0.4375-0.45118-0.27343-0.15722-0.65625-0.21191-0.38281-0.0547-0.7998-0.0547-0.50586 0-1.1279 0.13672-0.62207 0.12988-1.2852 0.38281h-0.0684v-1.3057q0.37598-0.10254 1.0869-0.22559 0.71093-0.12304 1.4014-0.12304 0.80665 0 1.4014 0.13672 0.60156 0.12988 1.0391 0.45117 0.43067 0.31445 0.65625 0.81347 0.22559 0.49903 0.22559 1.2373zm-1.2783-1.8799v-2.126q-0.58789 0.0342-1.3877 0.10254-0.79296 0.0684-1.2578 0.19824-0.55371 0.15723-0.89551 0.49219-0.34179 0.32812-0.34179 0.90918 0 0.65625 0.39648 0.99121 0.39649 0.32812 1.21 0.32812 0.67676 0 1.2373-0.25976 0.56054-0.2666 1.0391-0.63574z" color="#000000" style="-inkscape-stroke:none"/>
    <path d="m424.04-119.03h-1.2852v-4.3477q0-0.52636-0.0615-0.98437-0.0615-0.46485-0.22559-0.72461-0.1709-0.28711-0.49219-0.42383-0.32129-0.14355-0.83398-0.14355-0.52637 0-1.1006 0.25976-0.57422 0.25977-1.1006 0.66309v5.7012h-1.2852v-7.6357h1.2852v0.84765q0.60156-0.49902 1.2441-0.77929 0.64257-0.28028 1.3193-0.28028 1.2373 0 1.8867 0.74512 0.64942 0.74512 0.64942 2.1465z" color="#000000" style="-inkscape-stroke:none"/>
    <path d="m432.7-119.03h-1.2852v-0.7998q-0.55371 0.47851-1.1553 0.74511-0.60156 0.2666-1.3057 0.2666-1.3672 0-2.1738-1.0527-0.7998-1.0527-0.7998-2.919 0-0.9707 0.27343-1.7295 0.28028-0.75879 0.75196-1.292 0.46484-0.51953 1.0801-0.79297 0.62207-0.27344 1.2852-0.27344 0.60156 0 1.0664 0.12989 0.46484 0.12304 0.97754 0.38964v-3.3086h1.2852zm-1.2852-1.8799v-4.3818q-0.51953-0.23242-0.92969-0.32129-0.41016-0.0889-0.89551-0.0889-1.0801 0-1.6816 0.75196-0.60156 0.75195-0.60156 2.1328 0 1.3604 0.46484 2.0713 0.46485 0.7041 1.4902 0.7041 0.54687 0 1.1074-0.23926 0.56055-0.24609 1.0459-0.6289z" color="#000000" style="-inkscape-stroke:none"/>
    <path d="m444.3-127.18q0-0.64942-0.38965-1.0186-0.38281-0.37597-0.98437-0.37597-0.62891 0-1.0254 0.42383-0.39649 0.41699-0.39649 1.0254 0 0.51269 0.2666 0.90918 0.27344 0.39648 1.169 0.93652 0.66992-0.23926 1.0117-0.69727 0.34863-0.46484 0.34863-1.2031zm1.3262 5.9883-3.2676-3.1856q-0.21191 0.10254-0.42382 0.27344-0.21192 0.16406-0.42383 0.45117-0.19141 0.2666-0.31446 0.64258-0.12304 0.37598-0.12304 0.84766 0 0.99804 0.58105 1.6133 0.58789 0.6084 1.6611 0.6084 0.63575 0 1.2578-0.30762 0.6289-0.31445 1.0527-0.94336zm2.0576-4.0606v0.65625q0 0.65625-0.1709 1.4766-0.1709 0.82031-0.58105 1.5654l2.584 2.5156h-1.6816l-1.5654-1.5312q-0.78613 0.9707-1.6064 1.3604-0.82031 0.38281-1.6885 0.38281-1.4219 0-2.3652-0.82714-0.93652-0.83399-0.93652-2.1807 0-0.6289 0.17773-1.0869 0.17774-0.45801 0.417-0.79297 0.23925-0.32129 0.59472-0.60156 0.35547-0.28711 0.71778-0.49903-0.75196-0.49218-1.0869-0.99121-0.32812-0.49902-0.32812-1.2578 0-0.45801 0.17773-0.86816 0.18457-0.417 0.54688-0.75879 0.34179-0.32813 0.88867-0.53321 0.55371-0.20508 1.2168-0.20508 1.1826 0 1.9141 0.60157 0.73144 0.59472 0.73144 1.5107 0 0.30078-0.082 0.68359-0.082 0.37598-0.28027 0.67676-0.21875 0.33496-0.62207 0.64258t-1.0459 0.52637l2.5361 2.4746q0.0957-0.27344 0.14356-0.60157 0.0478-0.32812 0.0547-0.68359 0.0137-0.38281 7e-3 -0.85449 0-0.47168 0-0.79981z" color="#000000" style="-inkscape-stroke:none"/>
    <path d="m463.84-119.79q-0.83399 0.38281-1.8252 0.66992-0.98437 0.28027-1.9072 0.28027-1.1895 0-2.1807-0.32812-0.99121-0.32813-1.6885-0.98438-0.7041-0.66308-1.0869-1.6543-0.38281-0.99805-0.38281-2.3311 0-2.4404 1.4219-3.8486 1.4287-1.415 3.917-1.415 0.86816 0 1.7705 0.21191 0.90917 0.20508 1.9551 0.7041v1.6064h-0.12304q-0.21192-0.16406-0.61524-0.43066-0.40332-0.26661-0.79297-0.44434-0.47168-0.21191-1.0732-0.34863-0.59473-0.14356-1.3535-0.14356-1.709 0-2.707 1.1006-0.99121 1.0938-0.99121 2.9668 0 1.9756 1.0391 3.0762 1.0391 1.0938 2.8301 1.0938 0.65625 0 1.3057-0.12989 0.65625-0.12988 1.1484-0.33496v-2.4951h-2.7275v-1.1895h4.0674z" color="#000000" style="-inkscape-stroke:none"/>
    <path d="m470.87-125.27h-0.0684q-0.28711-0.0684-0.56054-0.0957-0.2666-0.0342-0.63575-0.0342-0.59472 0-1.1484 0.2666-0.55371 0.25977-1.0664 0.67676v5.4209h-1.2852v-7.6357h1.2852v1.1279q0.76563-0.61524 1.3467-0.86817 0.58789-0.25976 1.1963-0.25976 0.33496 0 0.48535 0.0205 0.15039 0.0137 0.45117 0.0615z" color="#000000" style="-inkscape-stroke:none"/>
    <path d="m477.77-119.03h-1.2783v-0.81348q-0.17089 0.11621-0.46484 0.32813-0.28711 0.20508-0.56055 0.32812-0.32129 0.15723-0.73828 0.25977-0.41699 0.10937-0.97754 0.10937-1.0322 0-1.75-0.68359-0.71777-0.68359-0.71777-1.7432 0-0.86817 0.36914-1.4014 0.37598-0.54004 1.0664-0.84766 0.69726-0.30761 1.6748-0.41699 0.97754-0.10937 2.0986-0.16406v-0.19824q0-0.4375-0.15722-0.72461-0.15039-0.28711-0.4375-0.45118-0.27344-0.15722-0.65625-0.21191-0.38282-0.0547-0.79981-0.0547-0.50586 0-1.1279 0.13672-0.62207 0.12988-1.2852 0.38281h-0.0684v-1.3057q0.37597-0.10254 1.0869-0.22559 0.71094-0.12304 1.4014-0.12304 0.80664 0 1.4014 0.13672 0.60156 0.12988 1.0391 0.45117 0.43066 0.31445 0.65625 0.81347 0.22558 0.49903 0.22558 1.2373zm-1.2783-1.8799v-2.126q-0.58789 0.0342-1.3877 0.10254-0.79297 0.0684-1.2578 0.19824-0.55372 0.15723-0.89551 0.49219-0.3418 0.32812-0.3418 0.90918 0 0.65625 0.39649 0.99121 0.39648 0.32812 1.21 0.32812 0.67675 0 1.2373-0.25976 0.56055-0.2666 1.0391-0.63574z" color="#000000" style="-inkscape-stroke:none"/>
    <path d="m486.73-126.67-3.0898 7.6357h-1.292l-3.0693-7.6357h1.3945l2.3652 6.0772 2.3447-6.0772z" color="#000000" style="-inkscape-stroke:none"/>
    <path d="m494.68-122.72h-5.626q0 0.7041 0.21192 1.2305 0.21191 0.51953 0.58105 0.85449 0.35547 0.32813 0.84082 0.49219 0.49219 0.16406 1.0801 0.16406 0.7793 0 1.5654-0.30762 0.79297-0.31445 1.1279-0.61523h0.0684v1.4014q-0.64942 0.27343-1.3262 0.458-0.67676 0.18457-1.4219 0.18457-1.9004 0-2.9668-1.0254-1.0664-1.0322-1.0664-2.9258 0-1.873 1.0186-2.9736 1.0254-1.1006 2.6934-1.1006 1.5449 0 2.3789 0.90235 0.84082 0.90234 0.84082 2.5635zm-1.251-0.98438q-7e-3 -1.0117-0.51269-1.5654-0.49903-0.55371-1.5244-0.55371-1.0322 0-1.6475 0.6084-0.6084 0.6084-0.69043 1.5107z" color="#000000" style="-inkscape-stroke:none"/>
    <path d="m497.93-119.03h-1.2852v-10.637h1.2852z" color="#000000" style="-inkscape-stroke:none"/>
    <path d="m506.78-127.95h-1.4492v-1.333h1.4492zm-0.082 8.9141h-1.2852v-7.6357h1.2852z" color="#000000" style="-inkscape-stroke:none"/>
    <path d="m515.62-119.03h-1.2852v-4.3477q0-0.52636-0.0615-0.98437-0.0615-0.46485-0.22559-0.72461-0.1709-0.28711-0.49219-0.42383-0.32129-0.14355-0.83398-0.14355-0.52637 0-1.1006 0.25976-0.57422 0.25977-1.1006 0.66309v5.7012h-1.2852v-7.6357h1.2852v0.84765q0.60156-0.49902 1.2441-0.77929 0.64258-0.28028 1.3193-0.28028 1.2373 0 1.8867 0.74512 0.64942 0.74512 0.64942 2.1465z" color="#000000" style="-inkscape-stroke:none"/>
    <path d="m530.8-122.17q0 0.75879-0.28711 1.3398-0.28711 0.58106-0.77246 0.95704-0.57422 0.45117-1.2646 0.64257-0.6836 0.19141-1.7432 0.19141h-3.6094v-10.179h3.0146q1.1143 0 1.668 0.082t1.0596 0.3418q0.56054 0.29394 0.81347 0.75879 0.25293 0.458 0.25293 1.1006 0 0.72461-0.36914 1.2373-0.36914 0.50586-0.98437 0.81347v0.0547q1.0322 0.21191 1.627 0.90918 0.59473 0.69043 0.59473 1.75zm-2.2764-4.5869q0-0.36914-0.12305-0.62207-0.12304-0.25293-0.39648-0.41016-0.32129-0.18457-0.7793-0.22559-0.45801-0.0479-1.1348-0.0479h-1.6133v2.9395h1.75q0.63575 0 1.0117-0.0615 0.37598-0.0684 0.69727-0.27344 0.32129-0.20507 0.45117-0.52636 0.13672-0.32813 0.13672-0.77246zm0.86816 4.6416q0-0.61524-0.18457-0.97754-0.18457-0.36231-0.66992-0.61524-0.32812-0.17089-0.7998-0.21875-0.46485-0.0547-1.1348-0.0547h-2.126v3.7871h1.791q0.88867 0 1.4561-0.0889 0.56738-0.0957 0.92968-0.3418 0.38282-0.2666 0.56055-0.6084 0.17773-0.34179 0.17773-0.88183z" color="#000000" style="-inkscape-stroke:none"/>
    <path d="m541.21-119.79q-0.83398 0.38281-1.8252 0.66992-0.98437 0.28027-1.9072 0.28027-1.1895 0-2.1807-0.32812-0.99121-0.32813-1.6885-0.98438-0.7041-0.66308-1.0869-1.6543-0.38281-0.99805-0.38281-2.3311 0-2.4404 1.4219-3.8486 1.4287-1.415 3.917-1.415 0.86816 0 1.7705 0.21191 0.90918 0.20508 1.9551 0.7041v1.6064h-0.12304q-0.21192-0.16406-0.61524-0.43066-0.40332-0.26661-0.79297-0.44434-0.47168-0.21191-1.0732-0.34863-0.59472-0.14356-1.3535-0.14356-1.709 0-2.707 1.1006-0.99121 1.0938-0.99121 2.9668 0 1.9756 1.0391 3.0762 1.0391 1.0938 2.8301 1.0938 0.65625 0 1.3057-0.12989 0.65625-0.12988 1.1484-0.33496v-2.4951h-2.7275v-1.1895h4.0674z" color="#000000" style="-inkscape-stroke:none"/>
    <path d="m550.97-121.94q0 0.59472-0.28027 1.1758-0.27344 0.58105-0.77247 0.98437-0.54687 0.4375-1.2783 0.6836-0.72461 0.24609-1.75 0.24609-1.1006 0-1.9824-0.20508-0.875-0.20508-1.7842-0.6084v-1.6953h0.0957q0.77246 0.64258 1.7842 0.99121 1.0117 0.34863 1.9004 0.34863 1.2578 0 1.9551-0.47167 0.70411-0.47168 0.70411-1.2578 0-0.67676-0.33497-0.99804-0.32812-0.32129-1.0049-0.49903-0.51269-0.13672-1.1143-0.22558-0.59472-0.0889-1.2646-0.22559-1.3535-0.28711-2.0098-0.97754-0.64941-0.69726-0.64941-1.8115 0-1.2783 1.0801-2.0918 1.0801-0.82031 2.7412-0.82031 1.0732 0 1.9688 0.20508 0.89551 0.20507 1.5859 0.50586v1.5996h-0.0957q-0.58106-0.49219-1.5312-0.81348-0.94336-0.32813-1.9346-0.32813-1.0869 0-1.75 0.45118-0.65625 0.45117-0.65625 1.1621 0 0.63574 0.32812 0.99804 0.32813 0.36231 1.1553 0.55371 0.4375 0.0957 1.2441 0.23242t1.3672 0.28028q1.1348 0.30078 1.709 0.90918t0.57422 1.7022z" color="#000000" style="-inkscape-stroke:none"/>
   </g>
  </g>
 </g>
 <path d="m15.064 35.509h142.61" color="#000000" stroke-width=".75272" style="-inkscape-stroke:none"/>
 <path d="m15.064 35.133v0.75195h142.62v-0.75195z" color="#000000" fill="#0f0" style="-inkscape-stroke:none"/>
 <g fill="#0f0" stroke-linecap="round" stroke-linejoin="round">
  <path d="m155.43 32.514c0.18593 1.1266 2.2636 2.8216 2.8216 3.0077-0.55813 0.19652-2.6356 1.8811-2.8216 3.0181" color="#000000" stroke-width=".60224" style="-inkscape-stroke:none"/>
  <path d="m155.38 32.217a0.30112 0.30112 0 0 0-0.24805 0.3457c0.11836 0.71716 0.72699 1.4184 1.3594 2.0254 0.3162 0.3035 0.64358 0.5757 0.93164 0.78711 0.0991 0.07272 0.16503 0.09102 0.25196 0.14844-0.0872 0.05786-0.15248 0.07715-0.25196 0.15039-0.28773 0.21186-0.61546 0.48361-0.93164 0.78711-0.63234 0.607-1.2413 1.3079-1.3594 2.0293a0.30112 0.30112 0 0 0 0.24805 0.34766 0.30112 0.30112 0 0 0 0.3457-0.25c0.068-0.41558 0.59117-1.1247 1.1836-1.6934 0.29621-0.28434 0.60653-0.54152 0.8711-0.73633s0.5027-0.32776 0.57031-0.35156a0.30115 0.30115 0 0 0-4e-3 -0.57031c-0.0625-0.02085-0.30411-0.15372-0.56836-0.34766-0.26424-0.19393-0.57291-0.45004-0.86914-0.73438-0.59245-0.56867-1.116-1.28-1.1836-1.6895a0.30112 0.30112 0 0 0-0.3457-0.24805z" color="#000000" style="-inkscape-stroke:none"/>
 </g>
 <g transform="matrix(2.646 0 0 2.646 -1078.7 -391.96)" fill="#0f0">
  <g transform="matrix(.7503 0 0 .7503 413.73 157.78)">
   <path d="m1.5469-2.9531c-0.82812 0.078125-1.3594 0.78125-1.3594 1.5312 0 0.76562 0.59375 1.4844 1.4531 1.4844 0.79688 0 1.4531-0.65625 1.4531-1.4844 0-0.78125-0.59375-1.5469-1.4531-1.5469-0.03125 0-0.0625 0.015625-0.09375 0.015625zm-0.82812 1.5625v-0.10938c0-0.53125 0.34375-1.0312 0.92188-1.0312s0.92188 0.48438 0.92188 1.0469-0.3125 1.1094-0.92188 1.1094c-0.54688 0-0.85938-0.4375-0.92188-1.0156z" color="#000000" fill="#0f0" style="-inkscape-stroke:none"/>
  </g>
  <g transform="matrix(.7503 0 0 .7503 417.01 157.78)">
   <path d="m0.53125-4.6562v4.6562h0.53125v-0.29688c0.25 0.21875 0.5625 0.35938 0.90625 0.35938 0.78125 0 1.2031-0.8125 1.2031-1.5 0-0.59375-0.29688-1.4844-1.0781-1.4844-0.35938 0-0.76562 0.125-1.0469 0.375v-2.1094zm2.0938 3.3281c-0.03125 0.51562-0.35938 0.96875-0.92188 0.96875-0.26562 0-0.64062-0.20312-0.64062-0.45312v-1.3125c0.046875-0.20312 0.45312-0.375 0.6875-0.375 0.60938 0 0.89062 0.54688 0.89062 1.0469 0 0.03125 0 0.078125-0.015625 0.125z" color="#000000" fill="#0f0" style="-inkscape-stroke:none"/>
  </g>
  <g transform="matrix(.7503 0 0 .7503 420.41 157.78)">
   <path d="m0.70312-2.8438v3.0938c0 0.046875 0.015625 0.10938 0.015625 0.17188 0 0.29688-0.25 0.45312-0.5 0.45312-0.21875 0-0.35938-0.09375-0.51562-0.20312l-0.10938 0.42188c0.21875 0.10938 0.5 0.21875 0.76562 0.21875 0.42188 0 0.85938-0.28125 0.85938-0.95312v-3.2031zm-0.09375-1.5469v0.625h0.60938v-0.625z" color="#000000" fill="#0f0" style="-inkscape-stroke:none"/>
  </g>
  <g transform="matrix(.7503 0 0 .7503 422.17 157.78)">
   <path d="m2.6719-0.6875c-0.10938 0.046875-0.20312 0.125-0.3125 0.17188-0.20312 0.09375-0.4375 0.15625-0.65625 0.15625-0.51562 0-1-0.42188-1-1.0469h2.0312c0-0.65625-0.20312-1.5469-1.1719-1.5469-0.8125 0-1.3438 0.76562-1.3438 1.5312v0.03125c0 0.76562 0.64062 1.4531 1.4531 1.4531 0.32812 0 0.65625-0.09375 0.9375-0.25 0.046875-0.03125 0.09375-0.046875 0.09375-0.10938 0-0.125-0.03125-0.26562-0.03125-0.39062zm-1.9375-1.0938c0.125-0.375 0.375-0.76562 0.82812-0.76562 0.4375 0 0.70312 0.34375 0.78125 0.76562z" color="#000000" fill="#0f0" style="-inkscape-stroke:none"/>
  </g>
  <g transform="matrix(.7503 0 0 .7503 425.09 157.78)">
   <path d="m2.7031-0.70312c-0.39062 0.20312-0.625 0.32812-1.0625 0.32812h-0.046875c-0.5625-0.046875-0.82812-0.57812-0.82812-1.0469 0-0.54688 0.29688-1.1094 0.90625-1.1094 0.29688 0 0.5625 0.0625 0.82812 0.21875 0.046875 0.03125 0.078125 0.0625 0.125 0.078125 0.015625-0.125 0.078125-0.28125 0.078125-0.40625 0-0.25-0.96875-0.3125-1.0312-0.3125-0.8125 0-1.4531 0.70312-1.4531 1.4688 0 0.8125 0.5625 1.5469 1.4531 1.5469 0.35938 0 0.67188-0.09375 0.96875-0.25 0.046875-0.03125 0.09375-0.046875 0.09375-0.10938 0-0.125-0.03125-0.26562-0.03125-0.40625z" color="#000000" fill="#0f0" style="-inkscape-stroke:none"/>
  </g>
  <g transform="matrix(.7503 0 0 .7503 428.01 157.78)">
   <path d="m0.6875-3.6719v0.82812h-0.5625v0.39062h0.54688v1.1406c0 0.10938-0.015625 0.25-0.015625 0.35938 0 0.29688 0 1.0156 0.54688 1.0156 0.35938 0 0.67188-0.09375 0.98438-0.23438l-0.10938-0.40625c-0.17188 0.10938-0.35938 0.20312-0.57812 0.20312-0.28125 0-0.32812-0.3125-0.32812-0.54688v-1.5312h0.90625v-0.39062h-0.90625v-0.82812z" color="#000000" fill="#0f0" style="-inkscape-stroke:none"/>
  </g>
  <g transform="matrix(.7503 0 0 .7503 432.58 157.78)">
   <path d="m2.7031-0.70312c-0.39062 0.20312-0.625 0.32812-1.0625 0.32812h-0.046875c-0.5625-0.046875-0.82812-0.57812-0.82812-1.0469 0-0.54688 0.29688-1.1094 0.90625-1.1094 0.29688 0 0.5625 0.0625 0.82812 0.21875 0.046875 0.03125 0.078125 0.0625 0.125 0.078125 0.015625-0.125 0.078125-0.28125 0.078125-0.40625 0-0.25-0.96875-0.3125-1.0312-0.3125-0.8125 0-1.4531 0.70312-1.4531 1.4688 0 0.8125 0.5625 1.5469 1.4531 1.5469 0.35938 0 0.67188-0.09375 0.96875-0.25 0.046875-0.03125 0.09375-0.046875 0.09375-0.10938 0-0.125-0.03125-0.26562-0.03125-0.40625z" color="#000000" fill="#0f0" style="-inkscape-stroke:none"/>
  </g>
  <g transform="matrix(.7503 0 0 .7503 435.5 157.78)">
   <path d="m1.5469-2.9531c-0.82812 0.078125-1.3594 0.78125-1.3594 1.5312 0 0.76562 0.59375 1.4844 1.4531 1.4844 0.79688 0 1.4531-0.65625 1.4531-1.4844 0-0.78125-0.59375-1.5469-1.4531-1.5469-0.03125 0-0.0625 0.015625-0.09375 0.015625zm-0.82812 1.5625v-0.10938c0-0.53125 0.34375-1.0312 0.92188-1.0312s0.92188 0.48438 0.92188 1.0469-0.3125 1.1094-0.92188 1.1094c-0.54688 0-0.85938-0.4375-0.92188-1.0156z" color="#000000" fill="#0f0" style="-inkscape-stroke:none"/>
  </g>
  <g transform="matrix(.7503 0 0 .7503 438.79 157.78)">
   <path d="m1.0312-2.4375v-0.45312h-0.51562v2.8906h0.54688v-1.4531c0-0.40625 0.078125-1.0469 0.64062-1.0469 0.1875 0 0.39062 0.03125 0.51562 0.1875 0.10938 0.125 0.125 0.3125 0.125 0.48438v1.8282h0.54688v-1.4531c0-0.40625 0.0625-1.0469 0.64062-1.0469 0.17188 0 0.39062 0.03125 0.51562 0.1875 0.10938 0.125 0.125 0.3125 0.125 0.48438v1.8282h0.53125v-1.8281c0-0.23438 0-0.48438-0.10938-0.70312-0.15625-0.28125-0.46875-0.39062-0.78125-0.39062-0.375 0-0.84375 0.21875-1 0.53125-0.14062-0.375-0.42188-0.53125-0.82812-0.53125-0.35938 0-0.78125 0.17188-0.95312 0.48438z" color="#000000" fill="#0f0" style="-inkscape-stroke:none"/>
  </g>
  <g transform="matrix(.7503 0 0 .7503 444.01 157.78)">
   <path d="m1.0469-2.5469v-0.29688h-0.51562v4.0781h0.53125v-1.5312c0.25 0.21875 0.5625 0.35938 0.90625 0.35938 0.78125 0 1.2031-0.8125 1.2031-1.5 0-0.53125-0.25-1.4844-1.0312-1.4844-0.42188 0-0.76562 0.14062-1.0938 0.375zm1.5781 1.2031c-0.046875 0.5-0.40625 0.98438-0.9375 0.98438-0.25 0-0.625-0.20312-0.625-0.45312v-1.2969c0.03125-0.1875 0.42188-0.375 0.6875-0.375 0.54688 0 0.89062 0.54688 0.89062 1.0312 0 0.03125 0 0.078125-0.015625 0.10938z" color="#000000" fill="#0f0" style="-inkscape-stroke:none"/>
  </g>
  <g transform="matrix(.7503 0 0 .7503 447.59 157.78)">
   <path d="m1.5469-2.9531c-0.82812 0.078125-1.3594 0.78125-1.3594 1.5312 0 0.76562 0.59375 1.4844 1.4531 1.4844 0.79688 0 1.4531-0.65625 1.4531-1.4844 0-0.78125-0.59375-1.5469-1.4531-1.5469-0.03125 0-0.0625 0.015625-0.09375 0.015625zm-0.82812 1.5625v-0.10938c0-0.53125 0.34375-1.0312 0.92188-1.0312s0.92188 0.48438 0.92188 1.0469-0.3125 1.1094-0.92188 1.1094c-0.54688 0-0.85938-0.4375-0.92188-1.0156z" color="#000000" fill="#0f0" style="-inkscape-stroke:none"/>
  </g>
  <g transform="matrix(.7503 0 0 .7503 450.88 157.78)">
   <path d="m0.26562-0.6875c-0.03125 0.10938-0.046875 0.21875-0.0625 0.32812 0 0.03125-0.015625 0.078125-0.015625 0.10938 0 0.14062 0.65625 0.28125 0.76562 0.28125 0.10938 0.03125 0.23438 0.03125 0.35938 0.03125 0.48438 0 1.0625-0.1875 1.0625-0.90625v-0.046875c-0.03125-0.39062-0.35938-0.70312-0.73438-0.8125-0.29688-0.078125-0.9375-0.046875-0.9375-0.48438 0-0.26562 0.28125-0.375 0.51562-0.375 0.21875 0 0.4375 0.03125 0.64062 0.10938 0.10938 0.03125 0.21875 0.10938 0.32812 0.14062l0.078125-0.4375c-0.3125-0.14062-0.625-0.20312-0.96875-0.20312-0.5 0-1.0781 0.20312-1.0781 0.82812 0 0.42188 0.3125 0.70312 0.6875 0.82812 0.26562 0.078125 0.98438 0.0625 0.98438 0.51562 0 0.28125-0.29688 0.42188-0.5625 0.42188-0.39062 0-0.70312-0.10938-1.0625-0.32812z" color="#000000" fill="#0f0" style="-inkscape-stroke:none"/>
  </g>
  <g transform="matrix(.7503 0 0 .7503 453.4 157.78)">
   <path d="m2.6719-0.6875c-0.10938 0.046875-0.20312 0.125-0.3125 0.17188-0.20312 0.09375-0.4375 0.15625-0.65625 0.15625-0.51562 0-1-0.42188-1-1.0469h2.0312c0-0.65625-0.20312-1.5469-1.1719-1.5469-0.8125 0-1.3438 0.76562-1.3438 1.5312v0.03125c0 0.76562 0.64062 1.4531 1.4531 1.4531 0.32812 0 0.65625-0.09375 0.9375-0.25 0.046875-0.03125 0.09375-0.046875 0.09375-0.10938 0-0.125-0.03125-0.26562-0.03125-0.39062zm-1.9375-1.0938c0.125-0.375 0.375-0.76562 0.82812-0.76562 0.4375 0 0.70312 0.34375 0.78125 0.76562z" color="#000000" fill="#0f0" style="-inkscape-stroke:none"/>
  </g>
  <g transform="matrix(.7503 0 0 .7503 456.33 157.78)">
   <path d="m2.3438-4.6562v2.0781c-0.26562-0.21875-0.625-0.34375-0.96875-0.34375-0.76562 0-1.1562 0.84375-1.1562 1.5 0 0.67188 0.39062 1.5 1.1406 1.5 0.375 0 0.70312-0.1875 0.96875-0.40625v0.32812h0.54688v-4.6562zm-1.5781 3.3281c0-0.03125-0.015625-0.0625-0.015625-0.10938 0-0.51562 0.32812-1.0625 0.95312-1.0625 0.23438 0 0.59375 0.15625 0.625 0.35938 0.015625 0.046875 0.015625 0.078125 0.015625 0.10938 0 0.078125-0.015625 0.15625-0.015625 0.23438v0.9375c0 0.17188-0.25 0.39062-0.42188 0.45312-0.09375 0.03125-0.1875 0.046875-0.26562 0.046875-0.5625 0-0.82812-0.48438-0.875-0.96875z" color="#000000" fill="#0f0" style="-inkscape-stroke:none"/>
  </g>
  <g transform="matrix(.7503 0 0 .7503 461.91 157.78)">
   <path d="m1.5469-2.9531c-0.82812 0.078125-1.3594 0.78125-1.3594 1.5312 0 0.76562 0.59375 1.4844 1.4531 1.4844 0.79688 0 1.4531-0.65625 1.4531-1.4844 0-0.78125-0.59375-1.5469-1.4531-1.5469-0.03125 0-0.0625 0.015625-0.09375 0.015625zm-0.82812 1.5625v-0.10938c0-0.53125 0.34375-1.0312 0.92188-1.0312s0.92188 0.48438 0.92188 1.0469-0.3125 1.1094-0.92188 1.1094c-0.54688 0-0.85938-0.4375-0.92188-1.0156z" color="#000000" fill="#0f0" style="-inkscape-stroke:none"/>
  </g>
  <g transform="matrix(.7503 0 0 .7503 465.2 157.78)">
   <path d="m0.65625-2.8438h-0.48438v0.39062h0.48438v2.4531h0.51562v-2.4531h0.71875v-0.39062h-0.73438v-0.64062c0-0.078125-0.015625-0.14062-0.015625-0.21875 0-0.3125 0.17188-0.60938 0.65625-0.60938 0.17188 0.015625 0.3125 0.078125 0.48438 0.10938v-0.39062c0-0.125-0.375-0.125-0.5-0.125h-0.015625c-0.65625 0-1.1094 0.54688-1.1094 1.2344z" color="#000000" fill="#0f0" style="-inkscape-stroke:none"/>
  </g>
 </g>
</svg>
